G04*
G04 #@! TF.GenerationSoftware,Altium Limited,Altium Designer,22.11.1 (43)*
G04*
G04 Layer_Color=65535*
%FSLAX44Y44*%
%MOMM*%
G71*
G04*
G04 #@! TF.SameCoordinates,BDB78580-9DC3-4381-8F3F-6093B5378177*
G04*
G04*
G04 #@! TF.FilePolarity,Positive*
G04*
G01*
G75*
%ADD10C,0.2000*%
%ADD11C,0.5000*%
%ADD12C,0.2032*%
%ADD13C,0.2540*%
%ADD14C,0.2500*%
%ADD15C,0.1524*%
%ADD16C,0.1000*%
D10*
X1109800Y1441400D02*
G03*
X1099800Y1451400I-10000J0D01*
G01*
Y891400D02*
G03*
X1109800Y901400I0J10000D01*
G01*
X769800Y1451400D02*
G03*
X759800Y1441400I0J-10000D01*
G01*
Y901400D02*
G03*
X769800Y891400I10000J0D01*
G01*
X1065414Y1044160D02*
G03*
X1044586Y1044160I-10414J0D01*
G01*
Y1023840D02*
G03*
X1065414Y1023840I10414J0D01*
G01*
X780414Y1075160D02*
G03*
X759586Y1075160I-10414J0D01*
G01*
Y1054840D02*
G03*
X780414Y1054840I10414J0D01*
G01*
X755414Y1075160D02*
G03*
X734586Y1075160I-10414J0D01*
G01*
Y1054840D02*
G03*
X755414Y1054840I10414J0D01*
G01*
X1065414Y1000160D02*
G03*
X1044586Y1000160I-10414J0D01*
G01*
Y979840D02*
G03*
X1065414Y979840I10414J0D01*
G01*
X795200Y984200D02*
X1074600D01*
X795200Y1365200D02*
X1074600D01*
Y984200D02*
Y1365200D01*
X795200Y984200D02*
Y1365200D01*
X769800Y891400D02*
X1099800D01*
X769800Y1451400D02*
X1099800D01*
X1109800Y901400D02*
Y1441400D01*
X759800Y901400D02*
Y1441400D01*
X1060000Y575000D02*
X1100000D01*
X1060000Y535000D02*
X1100000D01*
X1080000D02*
Y575000D01*
X1065414Y1023840D02*
Y1044160D01*
X1044586Y1023840D02*
Y1044160D01*
X938600Y964000D02*
Y1014000D01*
X888600Y964000D02*
Y1014000D01*
X938600D01*
X888600Y964000D02*
X938600D01*
X968600Y904000D02*
X978600D01*
Y1044000D01*
X968600D02*
X978600D01*
X808600D02*
X968600D01*
X808600Y904000D02*
Y1044000D01*
Y904000D02*
X818600D01*
X739600Y1096900D02*
Y1198500D01*
Y1096900D02*
X752300D01*
X705733Y1190033D02*
X739600D01*
X701500Y1185800D02*
X705733Y1190033D01*
X701500Y1185800D02*
X705733Y1181567D01*
X739600D01*
X705733Y1164633D02*
X739600D01*
X701500Y1160400D02*
X705733Y1164633D01*
X701500Y1160400D02*
X705733Y1156167D01*
X739600D01*
X705733Y1139233D02*
X739600D01*
X701500Y1135000D02*
X705733Y1139233D01*
X701500Y1135000D02*
X705733Y1130767D01*
X739600D01*
X705733Y1113833D02*
X739600D01*
X701500Y1109600D02*
X705733Y1113833D01*
X701500Y1109600D02*
X705733Y1105367D01*
X739600D01*
Y1198500D02*
X752300D01*
Y1096900D02*
Y1198500D01*
X967300Y1271900D02*
X992700D01*
Y1402460D01*
X967300Y1271900D02*
Y1402460D01*
X751400Y1246500D02*
X776800D01*
X751400Y1398900D02*
X776800D01*
Y1246500D02*
Y1398900D01*
X751400Y1246500D02*
Y1398900D01*
X770240Y935000D02*
Y1015000D01*
X739760Y935000D02*
Y1015000D01*
X770240D01*
X745000Y1027000D02*
X751000Y1015000D01*
X759000D02*
X765000Y1027000D01*
X1119700Y1185500D02*
Y1193500D01*
X1111700Y1185500D02*
X1119700D01*
Y1207500D02*
Y1215500D01*
X1111700D02*
X1119700D01*
X806384Y765440D02*
Y797698D01*
X787842D02*
X792414D01*
X774126Y765440D02*
Y797698D01*
Y765440D02*
X774888D01*
X787588D02*
X791652D01*
X803844D02*
X806384D01*
X804098Y797698D02*
X806384D01*
X774126D02*
X777682D01*
X780000Y576000D02*
X820000D01*
X780000Y536000D02*
X820000D01*
X800000D02*
Y576000D01*
X780414Y1054840D02*
Y1075160D01*
X759586Y1054840D02*
Y1075160D01*
X755414Y1054840D02*
Y1075160D01*
X734586Y1054840D02*
Y1075160D01*
X1065414Y979840D02*
Y1000160D01*
X1044586Y979840D02*
Y1000160D01*
X774126Y866698D02*
X777682D01*
X804098D02*
X806384D01*
X803844Y834440D02*
X806384D01*
X787588D02*
X791652D01*
X774126D02*
X774888D01*
X774126D02*
Y866698D01*
X787842D02*
X792414D01*
X806384Y834440D02*
Y866698D01*
X955698Y869318D02*
Y872874D01*
Y840616D02*
Y842902D01*
X923440Y840616D02*
Y843156D01*
Y855348D02*
Y859412D01*
Y872112D02*
Y872874D01*
X955698D01*
Y854586D02*
Y859158D01*
X923440Y840616D02*
X955698D01*
X1066126Y796698D02*
X1069682D01*
X1096098D02*
X1098384D01*
X1095844Y764440D02*
X1098384D01*
X1079588D02*
X1083652D01*
X1066126D02*
X1066888D01*
X1066126D02*
Y796698D01*
X1079842D02*
X1084414D01*
X1098384Y764440D02*
Y796698D01*
X1066126Y862698D02*
X1069682D01*
X1096098D02*
X1098384D01*
X1095844Y830440D02*
X1098384D01*
X1079588D02*
X1083652D01*
X1066126D02*
X1066888D01*
X1066126D02*
Y862698D01*
X1079842D02*
X1084414D01*
X1098384Y830440D02*
Y862698D01*
X956698Y784318D02*
Y787874D01*
Y755616D02*
Y757902D01*
X924440Y755616D02*
Y758156D01*
Y770348D02*
Y774412D01*
Y787112D02*
Y787874D01*
X956698D01*
Y769586D02*
Y774158D01*
X924440Y755616D02*
X956698D01*
X879698Y827318D02*
Y830874D01*
Y798616D02*
Y800902D01*
X847440Y798616D02*
Y801156D01*
Y813348D02*
Y817412D01*
Y830112D02*
Y830874D01*
X879698D01*
Y812586D02*
Y817158D01*
X847440Y798616D02*
X879698D01*
X1033698Y828318D02*
Y831874D01*
Y799616D02*
Y801902D01*
X1001440Y799616D02*
Y802156D01*
Y814348D02*
Y818412D01*
Y831112D02*
Y831874D01*
X1033698D01*
Y813586D02*
Y818158D01*
X1001440Y799616D02*
X1033698D01*
X923302Y800126D02*
Y803682D01*
Y830098D02*
Y832384D01*
X955560Y829844D02*
Y832384D01*
Y813588D02*
Y817652D01*
Y800126D02*
Y800888D01*
X923302Y800126D02*
X955560D01*
X923302Y813842D02*
Y818414D01*
Y832384D02*
X955560D01*
X1080000Y668000D02*
Y708000D01*
X1060000Y668000D02*
X1100000D01*
X1060000Y708000D02*
X1100000D01*
X980000Y668000D02*
Y708000D01*
X960000Y668000D02*
X1000000D01*
X960000Y708000D02*
X1000000D01*
X890000Y668000D02*
Y708000D01*
X870000Y668000D02*
X910000D01*
X870000Y708000D02*
X910000D01*
X800000Y668000D02*
Y708000D01*
X780000Y668000D02*
X820000D01*
X780000Y708000D02*
X820000D01*
X1080000Y608000D02*
Y648000D01*
X1060000Y608000D02*
X1100000D01*
X1060000Y648000D02*
X1100000D01*
X980000Y608000D02*
Y648000D01*
X960000Y608000D02*
X1000000D01*
X960000Y648000D02*
X1000000D01*
X890000Y608000D02*
Y648000D01*
X870000Y608000D02*
X910000D01*
X870000Y648000D02*
X910000D01*
X800000Y608000D02*
Y648000D01*
X780000Y608000D02*
X820000D01*
X780000Y648000D02*
X820000D01*
X980000Y535000D02*
Y575000D01*
X960000Y535000D02*
X1000000D01*
X960000Y575000D02*
X1000000D01*
X890000Y536000D02*
Y576000D01*
X870000Y536000D02*
X910000D01*
X870000Y576000D02*
X910000D01*
D11*
X952780Y1084490D02*
G03*
X952780Y1084490I-2500J0D01*
G01*
D12*
X1091750Y988250D02*
G03*
X1138248Y988269I23249J-249D01*
G01*
X1138249Y1051750D02*
G03*
X1091751Y1051731I-23249J249D01*
G01*
X869363Y1135245D02*
X886635D01*
X869363D02*
Y1147691D01*
X886635Y1135245D02*
Y1147691D01*
X869363Y1155311D02*
Y1167757D01*
X886635Y1155311D02*
Y1167757D01*
X869363D02*
X886635D01*
X836364Y571256D02*
X853636D01*
Y558810D02*
Y571256D01*
X836364Y558810D02*
Y571256D01*
X853636Y538744D02*
Y551190D01*
X836364Y538744D02*
Y551190D01*
Y538744D02*
X853636D01*
X744555Y1201091D02*
X752112Y1208648D01*
Y1221792D01*
X737888Y1207758D02*
X744555Y1201091D01*
X737888Y1207758D02*
Y1221792D01*
Y1230428D02*
Y1244144D01*
X738396D01*
X752112D01*
Y1243890D02*
Y1244144D01*
Y1230428D02*
Y1243890D01*
X791256Y1226364D02*
Y1243636D01*
X778810Y1226364D02*
X791256D01*
X778810Y1243636D02*
X791256D01*
X758744Y1226364D02*
X778810D01*
X758744Y1243636D02*
X778810D01*
X758744Y1226364D02*
Y1243636D01*
X1138251Y988269D02*
Y1051750D01*
X1091750Y988250D02*
Y1051731D01*
X1016256Y1016364D02*
Y1033636D01*
X1003810Y1016364D02*
X1016256D01*
X1003810Y1033636D02*
X1016256D01*
X983744Y1016364D02*
X1003810D01*
X983744Y1033636D02*
X1003810D01*
X983744Y1016364D02*
Y1033636D01*
X981757Y1018365D02*
Y1035637D01*
X969311Y1018365D02*
X981757D01*
X969311Y1035637D02*
X981757D01*
X949245Y1018365D02*
X961691D01*
X949245Y1035637D02*
X961691D01*
X949245Y1018365D02*
Y1035637D01*
X1098243Y1143363D02*
Y1160635D01*
X1118309D01*
X1098243Y1143363D02*
X1118309D01*
Y1160635D02*
X1130755D01*
X1118309Y1143363D02*
X1130755D01*
Y1160635D01*
X1131249Y1121400D02*
Y1138671D01*
X1111183Y1121400D02*
X1131249D01*
X1111183Y1138671D02*
X1131249D01*
X1098737Y1121400D02*
X1111183D01*
X1098737Y1138671D02*
X1111183D01*
X1098737Y1121400D02*
Y1138671D01*
X1098243Y1161363D02*
Y1178635D01*
X1118309D01*
X1098243Y1161363D02*
X1118309D01*
Y1178635D02*
X1130755D01*
X1118309Y1161363D02*
X1130755D01*
Y1178635D01*
X1098737Y1101364D02*
Y1118636D01*
X1118803D01*
X1098737Y1101364D02*
X1118803D01*
Y1118636D02*
X1131249D01*
X1118803Y1101364D02*
X1131249D01*
Y1118636D01*
Y1081364D02*
Y1098636D01*
X1111183Y1081364D02*
X1131249D01*
X1111183Y1098636D02*
X1131249D01*
X1098737Y1081364D02*
X1111183D01*
X1098737Y1098636D02*
X1111183D01*
X1098737Y1081364D02*
Y1098636D01*
X1011363Y1134245D02*
X1028635D01*
X1011363D02*
Y1146691D01*
X1028635Y1134245D02*
Y1146691D01*
X1011363Y1154311D02*
Y1166757D01*
X1028635Y1154311D02*
Y1166757D01*
X1011363D02*
X1028635D01*
X850950Y1070699D02*
X860856Y1084847D01*
X871052Y1077709D01*
X850950Y1070699D02*
X861145Y1063560D01*
X877294Y1073338D02*
X887489Y1066199D01*
X867387Y1059190D02*
X877582Y1052051D01*
X887489Y1066199D01*
X1016256Y1036364D02*
Y1053636D01*
X996190Y1036364D02*
X1016256D01*
X996190Y1053636D02*
X1016256D01*
X983744Y1036364D02*
X996190D01*
X983744Y1053636D02*
X996190D01*
X983744Y1036364D02*
Y1053636D01*
X791757Y1206365D02*
Y1223637D01*
X771691Y1206365D02*
X791757D01*
X771691Y1223637D02*
X791757D01*
X759245Y1206365D02*
X771691D01*
X759245Y1223637D02*
X771691D01*
X759245Y1206365D02*
Y1223637D01*
X983744Y996364D02*
Y1013636D01*
X1003810D01*
X983744Y996364D02*
X1003810D01*
Y1013636D02*
X1016256D01*
X1003810Y996364D02*
X1016256D01*
Y1013636D01*
X1031364Y923744D02*
X1048636D01*
X1031364D02*
Y936190D01*
X1048636Y923744D02*
Y936190D01*
X1031364Y943810D02*
Y956256D01*
X1048636Y943810D02*
Y956256D01*
X1031364D02*
X1048636D01*
X746364Y706256D02*
X763636D01*
Y693810D02*
Y706256D01*
X746364Y693810D02*
Y706256D01*
X763636Y673744D02*
Y686190D01*
X746364Y673744D02*
Y686190D01*
Y673744D02*
X763636D01*
X890364Y756744D02*
X907636D01*
X890364D02*
Y769190D01*
X907636Y756744D02*
Y769190D01*
X890364Y776810D02*
Y789256D01*
X907636Y776810D02*
Y789256D01*
X890364D02*
X907636D01*
X773744Y732364D02*
Y749636D01*
X786190D01*
X773744Y732364D02*
X786190D01*
X793810Y749636D02*
X806256D01*
X793810Y732364D02*
X806256D01*
Y749636D01*
X1048364Y798744D02*
X1065636D01*
X1048364D02*
Y811190D01*
X1065636Y798744D02*
Y811190D01*
X1048364Y818810D02*
Y831256D01*
X1065636Y818810D02*
Y831256D01*
X1048364D02*
X1065636D01*
X893363Y830757D02*
X910635D01*
Y818311D02*
Y830757D01*
X893363Y818311D02*
Y830757D01*
X910635Y798245D02*
Y810691D01*
X893363Y798245D02*
Y810691D01*
Y798245D02*
X910635D01*
X971364Y840744D02*
X988636D01*
X971364D02*
Y853190D01*
X988636Y840744D02*
Y853190D01*
X971364Y860810D02*
Y873256D01*
X988636Y860810D02*
Y873256D01*
X971364D02*
X988636D01*
X815364Y798744D02*
X832636D01*
X815364D02*
Y811190D01*
X832636Y798744D02*
Y811190D01*
X815364Y818810D02*
Y831256D01*
X832636Y818810D02*
Y831256D01*
X815364D02*
X832636D01*
X1106363Y764245D02*
X1123635D01*
X1106363D02*
Y776691D01*
X1123635Y764245D02*
Y776691D01*
X1106363Y784311D02*
Y796757D01*
X1123635Y784311D02*
Y796757D01*
X1106363D02*
X1123635D01*
X1105363Y830245D02*
X1122635D01*
X1105363D02*
Y842691D01*
X1122635Y830245D02*
Y842691D01*
X1105363Y850311D02*
Y862757D01*
X1122635Y850311D02*
Y862757D01*
X1105363D02*
X1122635D01*
X749365Y865755D02*
X766637D01*
Y853309D02*
Y865755D01*
X749365Y853309D02*
Y865755D01*
X766637Y833243D02*
Y845689D01*
X749365Y833243D02*
Y845689D01*
Y833243D02*
X766637D01*
X1071364Y1031256D02*
X1088636D01*
Y1018810D02*
Y1031256D01*
X1071364Y1018810D02*
Y1031256D01*
X1088636Y998744D02*
Y1018810D01*
X1071364Y998744D02*
Y1018810D01*
Y998744D02*
X1088636D01*
X1021365Y673243D02*
X1038637D01*
X1021365D02*
Y685689D01*
X1038637Y673243D02*
Y685689D01*
X1021365Y693309D02*
Y705755D01*
X1038637Y693309D02*
Y705755D01*
X1021365D02*
X1038637D01*
X926364Y673744D02*
X943636D01*
X926364D02*
Y686190D01*
X943636Y673744D02*
Y686190D01*
X926364Y693810D02*
Y706256D01*
X943636Y693810D02*
Y706256D01*
X926364D02*
X943636D01*
X836365Y673243D02*
X853637D01*
X836365D02*
Y685689D01*
X853637Y673243D02*
Y685689D01*
X836365Y693309D02*
Y705755D01*
X853637Y693309D02*
Y705755D01*
X836365D02*
X853637D01*
X1021364Y613744D02*
X1038636D01*
X1021364D02*
Y626190D01*
X1038636Y613744D02*
Y626190D01*
X1021364Y633810D02*
Y646256D01*
X1038636Y633810D02*
Y646256D01*
X1021364D02*
X1038636D01*
X926364D02*
X943636D01*
Y633810D02*
Y646256D01*
X926364Y633810D02*
Y646256D01*
X943636Y613744D02*
Y626190D01*
X926364Y613744D02*
Y626190D01*
Y613744D02*
X943636D01*
X836364D02*
X853636D01*
X836364D02*
Y626190D01*
X853636Y613744D02*
Y626190D01*
X836364Y633810D02*
Y646256D01*
X853636Y633810D02*
Y646256D01*
X836364D02*
X853636D01*
X746364Y613744D02*
X763636D01*
X746364D02*
Y626190D01*
X763636Y613744D02*
Y626190D01*
X746364Y633810D02*
Y646256D01*
X763636Y633810D02*
Y646256D01*
X746364D02*
X763636D01*
X1021365Y538243D02*
X1038637D01*
X1021365D02*
Y550689D01*
X1038637Y538243D02*
Y550689D01*
X1021365Y558309D02*
Y570755D01*
X1038637Y558309D02*
Y570755D01*
X1021365D02*
X1038637D01*
X926364Y538744D02*
X943636D01*
X926364D02*
Y551190D01*
X943636Y538744D02*
Y551190D01*
X926364Y558810D02*
Y571256D01*
X943636Y558810D02*
Y571256D01*
X926364D02*
X943636D01*
X746364Y538744D02*
X763636D01*
X746364D02*
Y551190D01*
X763636Y538744D02*
Y551190D01*
X746364Y558810D02*
Y571256D01*
X763636Y558810D02*
Y571256D01*
X746364D02*
X763636D01*
D13*
X939721Y479400D02*
G03*
X939721Y479400I-35921J0D01*
G01*
X929200D02*
G03*
X929200Y479400I-25400J0D01*
G01*
X986000Y912254D02*
Y975254D01*
X1024000Y912254D02*
Y975254D01*
X986000Y912254D02*
X994332D01*
X986000Y975254D02*
X994332D01*
X1016684Y912254D02*
X1024000D01*
X1016684Y975254D02*
X1024000D01*
X960440Y1074330D02*
Y1130210D01*
X904560Y1074330D02*
X960440D01*
X904560D02*
Y1130210D01*
X960440D01*
X929200Y504800D02*
X980000D01*
Y454000D02*
Y504800D01*
X929200Y454000D02*
X980000D01*
X774380Y765440D02*
X775904D01*
X774380Y834440D02*
X775904D01*
X923440Y871096D02*
Y872620D01*
X1066380Y764440D02*
X1067904D01*
X1066380Y830440D02*
X1067904D01*
X924440Y786096D02*
Y787620D01*
X847440Y829096D02*
Y830620D01*
X1001440Y830096D02*
Y831620D01*
X955560Y800380D02*
Y801904D01*
X877000Y1173500D02*
X876000Y1174500D01*
X874000D01*
X873001Y1173500D01*
Y1169501D01*
X874000Y1168502D01*
X876000D01*
X877000Y1169501D01*
X878999Y1174500D02*
X882998D01*
Y1173500D01*
X878999Y1169501D01*
Y1168502D01*
X770003Y1442999D02*
X774002D01*
X772003D01*
Y1437001D01*
X780000Y1442999D02*
X776001D01*
Y1440000D01*
X778001D01*
X776001D01*
Y1437001D01*
X781999Y1442999D02*
X785998D01*
X783999D01*
Y1437001D01*
X787997D02*
X789997D01*
X788997D01*
Y1442999D01*
X787997Y1441999D01*
X797740Y936940D02*
X799739D01*
X798740D01*
Y942938D01*
X797740Y941938D01*
X802738Y936940D02*
Y937939D01*
X803738D01*
Y936940D01*
X802738D01*
X807737Y941938D02*
X808736Y942938D01*
X810736D01*
X811735Y941938D01*
Y940938D01*
X810736Y939939D01*
X811735Y938939D01*
Y937939D01*
X810736Y936940D01*
X808736D01*
X807737Y937939D01*
Y938939D01*
X808736Y939939D01*
X807737Y940938D01*
Y941938D01*
X808736Y939939D02*
X810736D01*
X813735Y935940D02*
X817734D01*
X819733Y936940D02*
X821732D01*
X820732D01*
Y942938D01*
X819733Y941938D01*
X828730Y936940D02*
X824731D01*
X828730Y940938D01*
Y941938D01*
X827730Y942938D01*
X825731D01*
X824731Y941938D01*
X830729D02*
X831729Y942938D01*
X833728D01*
X834728Y941938D01*
Y940938D01*
X833728Y939939D01*
X834728Y938939D01*
Y937939D01*
X833728Y936940D01*
X831729D01*
X830729Y937939D01*
Y938939D01*
X831729Y939939D01*
X830729Y940938D01*
Y941938D01*
X831729Y939939D02*
X833728D01*
X836727Y942938D02*
X840726Y936940D01*
Y942938D02*
X836727Y936940D01*
X842725D02*
X844725D01*
X843725D01*
Y942938D01*
X842725Y941938D01*
X851722Y942938D02*
X849723Y941938D01*
X847724Y939939D01*
Y937939D01*
X848723Y936940D01*
X850723D01*
X851722Y937939D01*
Y938939D01*
X850723Y939939D01*
X847724D01*
X853722Y941938D02*
X854722Y942938D01*
X856721D01*
X857720Y941938D01*
Y937939D01*
X856721Y936940D01*
X854722D01*
X853722Y937939D01*
Y941938D01*
X865718Y936940D02*
Y942938D01*
X868717D01*
X869717Y941938D01*
Y939939D01*
X868717Y938939D01*
X865718D01*
X867717D02*
X869717Y936940D01*
X875715Y941938D02*
X874715Y942938D01*
X872716D01*
X871716Y941938D01*
Y937939D01*
X872716Y936940D01*
X874715D01*
X875715Y937939D01*
Y939939D01*
X873715D01*
X877714Y942938D02*
Y936940D01*
X880713D01*
X881713Y937939D01*
Y938939D01*
X880713Y939939D01*
X877714D01*
X880713D01*
X881713Y940938D01*
Y941938D01*
X880713Y942938D01*
X877714D01*
X883712Y935940D02*
X887711D01*
X889710Y942938D02*
X893709D01*
X891710D01*
Y936940D01*
X899707Y942938D02*
X895708D01*
Y939939D01*
X897708D01*
X895708D01*
Y936940D01*
X901706Y942938D02*
X905705D01*
X903706D01*
Y936940D01*
X1017340Y1399938D02*
Y1393940D01*
X1020339D01*
X1021339Y1394940D01*
Y1395939D01*
X1020339Y1396939D01*
X1017340D01*
X1020339D01*
X1021339Y1397939D01*
Y1398938D01*
X1020339Y1399938D01*
X1017340D01*
X1023338D02*
Y1393940D01*
X1027337D01*
X1029336Y1399938D02*
Y1393940D01*
Y1395939D01*
X1033335Y1399938D01*
X1030336Y1396939D01*
X1033335Y1393940D01*
X996339Y1398938D02*
X995339Y1399938D01*
X993340D01*
X992340Y1398938D01*
Y1394940D01*
X993340Y1393940D01*
X995339D01*
X996339Y1394940D01*
X1002337Y1398938D02*
X1001337Y1399938D01*
X999338D01*
X998338Y1398938D01*
Y1397939D01*
X999338Y1396939D01*
X1001337D01*
X1002337Y1395939D01*
Y1394940D01*
X1001337Y1393940D01*
X999338D01*
X998338Y1394940D01*
X967340Y1399938D02*
Y1393940D01*
X970339D01*
X971339Y1394940D01*
Y1398938D01*
X970339Y1399938D01*
X967340D01*
X977337Y1398938D02*
X976337Y1399938D01*
X974338D01*
X973338Y1398938D01*
Y1394940D01*
X974338Y1393940D01*
X976337D01*
X977337Y1394940D01*
X942340Y1393940D02*
Y1399938D01*
X945339D01*
X946339Y1398938D01*
Y1396939D01*
X945339Y1395939D01*
X942340D01*
X944339D02*
X946339Y1393940D01*
X952337Y1398938D02*
X951337Y1399938D01*
X949338D01*
X948338Y1398938D01*
Y1397939D01*
X949338Y1396939D01*
X951337D01*
X952337Y1395939D01*
Y1394940D01*
X951337Y1393940D01*
X949338D01*
X948338Y1394940D01*
X954336Y1399938D02*
X958335D01*
X956336D01*
Y1393940D01*
X916339Y1398938D02*
X915339Y1399938D01*
X913340D01*
X912340Y1398938D01*
Y1397939D01*
X913340Y1396939D01*
X915339D01*
X916339Y1395939D01*
Y1394940D01*
X915339Y1393940D01*
X913340D01*
X912340Y1394940D01*
X918338Y1399938D02*
Y1393940D01*
X921337D01*
X922337Y1394940D01*
Y1398938D01*
X921337Y1399938D01*
X918338D01*
X924336Y1393940D02*
Y1397939D01*
X926336Y1399938D01*
X928335Y1397939D01*
Y1393940D01*
Y1396939D01*
X924336D01*
X891339Y1398938D02*
X890339Y1399938D01*
X888340D01*
X887340Y1398938D01*
Y1397939D01*
X888340Y1396939D01*
X890339D01*
X891339Y1395939D01*
Y1394940D01*
X890339Y1393940D01*
X888340D01*
X887340Y1394940D01*
X897337Y1398938D02*
X896337Y1399938D01*
X894338D01*
X893338Y1398938D01*
Y1394940D01*
X894338Y1393940D01*
X896337D01*
X897337Y1394940D01*
X899336Y1399938D02*
Y1393940D01*
X903335D01*
X862260Y1399938D02*
Y1395939D01*
X864260Y1393940D01*
X866259Y1395939D01*
Y1399938D01*
X868258D02*
Y1393940D01*
X871257D01*
X872257Y1394940D01*
Y1398938D01*
X871257Y1399938D01*
X868258D01*
X874257D02*
Y1393940D01*
X877255D01*
X878255Y1394940D01*
Y1398938D01*
X877255Y1399938D01*
X874257D01*
X841339Y1398938D02*
X840339Y1399938D01*
X838340D01*
X837340Y1398938D01*
Y1394940D01*
X838340Y1393940D01*
X840339D01*
X841339Y1394940D01*
Y1396939D01*
X839339D01*
X843338Y1393940D02*
Y1399938D01*
X847337Y1393940D01*
Y1399938D01*
X849336D02*
Y1393940D01*
X852335D01*
X853335Y1394940D01*
Y1398938D01*
X852335Y1399938D01*
X849336D01*
X960062Y946540D02*
X966060D01*
X964061Y948539D01*
X966060Y950539D01*
X960062D01*
X966060Y956537D02*
Y952538D01*
X962061Y956537D01*
X961062D01*
X960062Y955537D01*
Y953538D01*
X961062Y952538D01*
X960062Y962535D02*
Y958536D01*
X963061D01*
X962061Y960536D01*
Y961535D01*
X963061Y962535D01*
X965060D01*
X966060Y961535D01*
Y959536D01*
X965060Y958536D01*
Y968533D02*
X961062D01*
X960062Y967533D01*
Y965534D01*
X961062Y964534D01*
X965060D01*
X966060Y965534D01*
Y967533D01*
X964061Y966534D02*
X966060Y968533D01*
Y967533D02*
X965060Y968533D01*
X960062Y974531D02*
X961062Y972532D01*
X963061Y970532D01*
X965060D01*
X966060Y971532D01*
Y973531D01*
X965060Y974531D01*
X964061D01*
X963061Y973531D01*
Y970532D01*
X966060Y979529D02*
X960062D01*
X963061Y976530D01*
Y980529D01*
X781004Y783999D02*
Y778001D01*
X784003D01*
X785002Y779001D01*
Y780000D01*
X784003Y781000D01*
X781004D01*
X784003D01*
X785002Y782000D01*
Y782999D01*
X784003Y783999D01*
X781004D01*
X787002D02*
X791000D01*
X789001D01*
Y778001D01*
X793000D02*
Y783999D01*
X796998Y778001D01*
Y783999D01*
X798998D02*
X802997D01*
Y782999D01*
X798998Y779001D01*
Y778001D01*
X1101999Y1201000D02*
X1098001D01*
X1097001Y1200000D01*
Y1198001D01*
X1098001Y1197001D01*
X1101999D01*
X1102999Y1198001D01*
Y1200000D01*
X1101000Y1199001D02*
X1102999Y1201000D01*
Y1200000D02*
X1101999Y1201000D01*
X1102999Y1202999D02*
Y1204999D01*
Y1203999D01*
X1097001D01*
X1098001Y1202999D01*
X899001Y483999D02*
Y478001D01*
Y481000D01*
X903000D01*
Y483999D01*
Y478001D01*
X904999D02*
X906999D01*
X905999D01*
Y483999D01*
X904999Y482999D01*
X1100002Y1062999D02*
X1104000Y1057001D01*
Y1062999D02*
X1100002Y1057001D01*
X1109998D02*
X1106000D01*
X1109998Y1061000D01*
Y1061999D01*
X1108999Y1062999D01*
X1106999D01*
X1106000Y1061999D01*
X746001Y1007999D02*
X750000Y1002001D01*
Y1007999D02*
X746001Y1002001D01*
X751999D02*
X753999D01*
X752999D01*
Y1007999D01*
X751999Y1006999D01*
X792502Y1241499D02*
X798500D01*
Y1238500D01*
X797500Y1237500D01*
X795501D01*
X794501Y1238500D01*
Y1241499D01*
Y1239499D02*
X792502Y1237500D01*
Y1235501D02*
Y1233501D01*
Y1234501D01*
X798500D01*
X797500Y1235501D01*
X792502Y1230502D02*
Y1228503D01*
Y1229503D01*
X798500D01*
X797500Y1230502D01*
X773502Y1197001D02*
Y1202999D01*
X776501D01*
X777501Y1201999D01*
Y1200000D01*
X776501Y1199000D01*
X773502D01*
X775502D02*
X777501Y1197001D01*
X779501D02*
X781500D01*
X780500D01*
Y1202999D01*
X779501Y1201999D01*
X784499D02*
X785499Y1202999D01*
X787498D01*
X788498Y1201999D01*
Y1198001D01*
X787498Y1197001D01*
X785499D01*
X784499Y1198001D01*
Y1201999D01*
X1097491Y1085001D02*
X1091493D01*
Y1088000D01*
X1092493Y1088999D01*
X1094492D01*
X1095492Y1088000D01*
Y1085001D01*
Y1087000D02*
X1097491Y1088999D01*
X1096492Y1090999D02*
X1097491Y1091999D01*
Y1093998D01*
X1096492Y1094997D01*
X1092493D01*
X1091493Y1093998D01*
Y1091999D01*
X1092493Y1090999D01*
X1093493D01*
X1094492Y1091999D01*
Y1094997D01*
X1097992Y1105002D02*
X1091994D01*
Y1108001D01*
X1092994Y1109000D01*
X1094993D01*
X1095993Y1108001D01*
Y1105002D01*
Y1107001D02*
X1097992Y1109000D01*
X1092994Y1111000D02*
X1091994Y1111999D01*
Y1113999D01*
X1092994Y1114998D01*
X1093993D01*
X1094993Y1113999D01*
X1095993Y1114998D01*
X1096992D01*
X1097992Y1113999D01*
Y1111999D01*
X1096992Y1111000D01*
X1095993D01*
X1094993Y1111999D01*
X1093993Y1111000D01*
X1092994D01*
X1094993Y1111999D02*
Y1113999D01*
X1097992Y1125037D02*
X1091994D01*
Y1128036D01*
X1092994Y1129036D01*
X1094993D01*
X1095993Y1128036D01*
Y1125037D01*
Y1127037D02*
X1097992Y1129036D01*
X1091994Y1131035D02*
Y1135034D01*
X1092994D01*
X1096992Y1131035D01*
X1097992D01*
X1097498Y1165001D02*
X1091500D01*
Y1168000D01*
X1092500Y1168999D01*
X1094499D01*
X1095499Y1168000D01*
Y1165001D01*
Y1167000D02*
X1097498Y1168999D01*
X1091500Y1174998D02*
X1092500Y1172998D01*
X1094499Y1170999D01*
X1096499D01*
X1097498Y1171999D01*
Y1173998D01*
X1096499Y1174998D01*
X1095499D01*
X1094499Y1173998D01*
Y1170999D01*
X1097498Y1147001D02*
X1091500D01*
Y1150000D01*
X1092500Y1151000D01*
X1094499D01*
X1095499Y1150000D01*
Y1147001D01*
Y1149000D02*
X1097498Y1151000D01*
X1091500Y1156998D02*
Y1152999D01*
X1094499D01*
X1093500Y1154998D01*
Y1155998D01*
X1094499Y1156998D01*
X1096498D01*
X1097498Y1155998D01*
Y1153998D01*
X1096498Y1152999D01*
X1020002Y1022001D02*
Y1027999D01*
X1023001D01*
X1024000Y1026999D01*
Y1025000D01*
X1023001Y1024000D01*
X1020002D01*
X1022001D02*
X1024000Y1022001D01*
X1028999D02*
Y1027999D01*
X1026000Y1025000D01*
X1029998D01*
X1019501Y1042000D02*
Y1047998D01*
X1022500D01*
X1023500Y1046999D01*
Y1044999D01*
X1022500Y1043999D01*
X1019501D01*
X1021500D02*
X1023500Y1042000D01*
X1025499Y1046999D02*
X1026499Y1047998D01*
X1028498D01*
X1029498Y1046999D01*
Y1045999D01*
X1028498Y1044999D01*
X1027498D01*
X1028498D01*
X1029498Y1043999D01*
Y1043000D01*
X1028498Y1042000D01*
X1026499D01*
X1025499Y1043000D01*
X1072896Y1039876D02*
Y1045874D01*
X1075895D01*
X1076895Y1044874D01*
Y1042875D01*
X1075895Y1041875D01*
X1072896D01*
X1074895D02*
X1076895Y1039876D01*
X1082893D02*
X1078894D01*
X1082893Y1043875D01*
Y1044874D01*
X1081893Y1045874D01*
X1079894D01*
X1078894Y1044874D01*
X675000Y1192599D02*
X673001D01*
X674000D01*
Y1187601D01*
X673001Y1186601D01*
X672001D01*
X671001Y1187601D01*
X676999Y1186601D02*
X678999D01*
X677999D01*
Y1192599D01*
X676999Y1191599D01*
X961796Y926001D02*
X965795D01*
Y929000D01*
X963795D01*
X965795D01*
Y931999D01*
X959797Y926001D02*
Y931999D01*
X955798D01*
X953799D02*
Y928000D01*
X951799Y926001D01*
X949800Y928000D01*
Y931999D01*
Y929000D01*
X953799D01*
X943802Y927001D02*
X944802Y926001D01*
X946801D01*
X947801Y927001D01*
Y928000D01*
X946801Y929000D01*
X944802D01*
X943802Y930000D01*
Y930999D01*
X944802Y931999D01*
X946801D01*
X947801Y930999D01*
X941803Y926001D02*
Y931999D01*
Y929000D01*
X937804D01*
Y926001D01*
Y931999D01*
X935805D02*
X933805D01*
X934805D01*
Y926001D01*
X935805Y927001D01*
X741001Y1252999D02*
Y1247001D01*
X744000D01*
X745000Y1248001D01*
Y1251999D01*
X744000Y1252999D01*
X741001D01*
X746999Y1247001D02*
X748999D01*
X747999D01*
Y1252999D01*
X746999Y1251999D01*
X841945Y584880D02*
X840945Y585880D01*
X838946D01*
X837946Y584880D01*
Y580882D01*
X838946Y579882D01*
X840945D01*
X841945Y580882D01*
X843944Y584880D02*
X844944Y585880D01*
X846943D01*
X847943Y584880D01*
Y583881D01*
X846943Y582881D01*
X845943D01*
X846943D01*
X847943Y581881D01*
Y580882D01*
X846943Y579882D01*
X844944D01*
X843944Y580882D01*
X849942Y584880D02*
X850942Y585880D01*
X852941D01*
X853941Y584880D01*
Y580882D01*
X852941Y579882D01*
X850942D01*
X849942Y580882D01*
Y584880D01*
X751775D02*
X750775Y585880D01*
X748776D01*
X747776Y584880D01*
Y580882D01*
X748776Y579882D01*
X750775D01*
X751775Y580882D01*
X757773Y579882D02*
X753774D01*
X757773Y583881D01*
Y584880D01*
X756773Y585880D01*
X754774D01*
X753774Y584880D01*
X759772Y580882D02*
X760772Y579882D01*
X762771D01*
X763771Y580882D01*
Y584880D01*
X762771Y585880D01*
X760772D01*
X759772Y584880D01*
Y583881D01*
X760772Y582881D01*
X763771D01*
X1026857Y584372D02*
X1025857Y585372D01*
X1023858D01*
X1022858Y584372D01*
Y580374D01*
X1023858Y579374D01*
X1025857D01*
X1026857Y580374D01*
X1032855Y579374D02*
X1028856D01*
X1032855Y583373D01*
Y584372D01*
X1031855Y585372D01*
X1029856D01*
X1028856Y584372D01*
X1034854D02*
X1035854Y585372D01*
X1037853D01*
X1038853Y584372D01*
Y583373D01*
X1037853Y582373D01*
X1038853Y581373D01*
Y580374D01*
X1037853Y579374D01*
X1035854D01*
X1034854Y580374D01*
Y581373D01*
X1035854Y582373D01*
X1034854Y583373D01*
Y584372D01*
X1035854Y582373D02*
X1037853D01*
X931861Y584880D02*
X930861Y585880D01*
X928862D01*
X927862Y584880D01*
Y580882D01*
X928862Y579882D01*
X930861D01*
X931861Y580882D01*
X937859Y579882D02*
X933860D01*
X937859Y583881D01*
Y584880D01*
X936859Y585880D01*
X934860D01*
X933860Y584880D01*
X939858Y585880D02*
X943857D01*
Y584880D01*
X939858Y580882D01*
Y579882D01*
X1026857Y659810D02*
X1025857Y660810D01*
X1023858D01*
X1022858Y659810D01*
Y655812D01*
X1023858Y654812D01*
X1025857D01*
X1026857Y655812D01*
X1032855Y654812D02*
X1028856D01*
X1032855Y658811D01*
Y659810D01*
X1031855Y660810D01*
X1029856D01*
X1028856Y659810D01*
X1038853Y660810D02*
X1036853Y659810D01*
X1034854Y657811D01*
Y655812D01*
X1035854Y654812D01*
X1037853D01*
X1038853Y655812D01*
Y656811D01*
X1037853Y657811D01*
X1034854D01*
X931861Y659810D02*
X930861Y660810D01*
X928862D01*
X927862Y659810D01*
Y655812D01*
X928862Y654812D01*
X930861D01*
X931861Y655812D01*
X937859Y654812D02*
X933860D01*
X937859Y658811D01*
Y659810D01*
X936859Y660810D01*
X934860D01*
X933860Y659810D01*
X943857Y660810D02*
X939858D01*
Y657811D01*
X941858Y658811D01*
X942857D01*
X943857Y657811D01*
Y655812D01*
X942857Y654812D01*
X940858D01*
X939858Y655812D01*
X841945Y659810D02*
X840945Y660810D01*
X838946D01*
X837946Y659810D01*
Y655812D01*
X838946Y654812D01*
X840945D01*
X841945Y655812D01*
X847943Y654812D02*
X843944D01*
X847943Y658811D01*
Y659810D01*
X846943Y660810D01*
X844944D01*
X843944Y659810D01*
X852941Y654812D02*
Y660810D01*
X849942Y657811D01*
X853941D01*
X751775Y659810D02*
X750775Y660810D01*
X748776D01*
X747776Y659810D01*
Y655812D01*
X748776Y654812D01*
X750775D01*
X751775Y655812D01*
X757773Y654812D02*
X753774D01*
X757773Y658811D01*
Y659810D01*
X756773Y660810D01*
X754774D01*
X753774Y659810D01*
X759772D02*
X760772Y660810D01*
X762771D01*
X763771Y659810D01*
Y658811D01*
X762771Y657811D01*
X761771D01*
X762771D01*
X763771Y656811D01*
Y655812D01*
X762771Y654812D01*
X760772D01*
X759772Y655812D01*
X1026857Y719500D02*
X1025857Y720500D01*
X1023858D01*
X1022858Y719500D01*
Y715502D01*
X1023858Y714502D01*
X1025857D01*
X1026857Y715502D01*
X1032855Y714502D02*
X1028856D01*
X1032855Y718501D01*
Y719500D01*
X1031855Y720500D01*
X1029856D01*
X1028856Y719500D01*
X1038853Y714502D02*
X1034854D01*
X1038853Y718501D01*
Y719500D01*
X1037853Y720500D01*
X1035854D01*
X1034854Y719500D01*
X931861Y720008D02*
X930861Y721008D01*
X928862D01*
X927862Y720008D01*
Y716010D01*
X928862Y715010D01*
X930861D01*
X931861Y716010D01*
X937859Y715010D02*
X933860D01*
X937859Y719009D01*
Y720008D01*
X936859Y721008D01*
X934860D01*
X933860Y720008D01*
X939858Y715010D02*
X941858D01*
X940858D01*
Y721008D01*
X939858Y720008D01*
X841945Y719500D02*
X840945Y720500D01*
X838946D01*
X837946Y719500D01*
Y715502D01*
X838946Y714502D01*
X840945D01*
X841945Y715502D01*
X847943Y714502D02*
X843944D01*
X847943Y718501D01*
Y719500D01*
X846943Y720500D01*
X844944D01*
X843944Y719500D01*
X849942D02*
X850942Y720500D01*
X852941D01*
X853941Y719500D01*
Y715502D01*
X852941Y714502D01*
X850942D01*
X849942Y715502D01*
Y719500D01*
X751775Y720008D02*
X750775Y721008D01*
X748776D01*
X747776Y720008D01*
Y716010D01*
X748776Y715010D01*
X750775D01*
X751775Y716010D01*
X753774Y715010D02*
X755773D01*
X754774D01*
Y721008D01*
X753774Y720008D01*
X758772Y716010D02*
X759772Y715010D01*
X761771D01*
X762771Y716010D01*
Y720008D01*
X761771Y721008D01*
X759772D01*
X758772Y720008D01*
Y719009D01*
X759772Y718009D01*
X762771D01*
X816999Y739499D02*
X817999Y740499D01*
Y742498D01*
X816999Y743497D01*
X813001D01*
X812001Y742498D01*
Y740499D01*
X813001Y739499D01*
X812001Y737499D02*
Y735500D01*
Y736500D01*
X817999D01*
X816999Y737499D01*
Y732501D02*
X817999Y731501D01*
Y729502D01*
X816999Y728502D01*
X816000D01*
X815000Y729502D01*
X814000Y728502D01*
X813001D01*
X812001Y729502D01*
Y731501D01*
X813001Y732501D01*
X814000D01*
X815000Y731501D01*
X816000Y732501D01*
X816999D01*
X815000Y731501D02*
Y729502D01*
X900999Y746499D02*
X901999Y747498D01*
Y749498D01*
X900999Y750498D01*
X897001D01*
X896001Y749498D01*
Y747498D01*
X897001Y746499D01*
X896001Y744500D02*
Y742500D01*
Y743500D01*
X901999D01*
X900999Y744500D01*
X901999Y739501D02*
Y735502D01*
X900999D01*
X897001Y739501D01*
X896001D01*
X1111947Y810432D02*
X1110947Y811432D01*
X1108948D01*
X1107948Y810432D01*
Y806434D01*
X1108948Y805434D01*
X1110947D01*
X1111947Y806434D01*
X1113946Y805434D02*
X1115945D01*
X1114946D01*
Y811432D01*
X1113946Y810432D01*
X1122943Y811432D02*
X1120944Y810432D01*
X1118944Y808433D01*
Y806434D01*
X1119944Y805434D01*
X1121944D01*
X1122943Y806434D01*
Y807433D01*
X1121944Y808433D01*
X1118944D01*
X820863Y844976D02*
X819863Y845976D01*
X817864D01*
X816864Y844976D01*
Y840978D01*
X817864Y839978D01*
X819863D01*
X820863Y840978D01*
X822862Y839978D02*
X824861D01*
X823862D01*
Y845976D01*
X822862Y844976D01*
X831859Y845976D02*
X827860D01*
Y842977D01*
X829860Y843977D01*
X830860D01*
X831859Y842977D01*
Y840978D01*
X830860Y839978D01*
X828860D01*
X827860Y840978D01*
X903999Y788499D02*
X904999Y789499D01*
Y791498D01*
X903999Y792498D01*
X900001D01*
X899001Y791498D01*
Y789499D01*
X900001Y788499D01*
X899001Y786499D02*
Y784500D01*
Y785500D01*
X904999D01*
X903999Y786499D01*
X899001Y778502D02*
X904999D01*
X902000Y781501D01*
Y777502D01*
X1058999Y844499D02*
X1059999Y845499D01*
Y847498D01*
X1058999Y848497D01*
X1055001D01*
X1054001Y847498D01*
Y845499D01*
X1055001Y844499D01*
X1054001Y842499D02*
Y840500D01*
Y841500D01*
X1059999D01*
X1058999Y842499D01*
Y837501D02*
X1059999Y836501D01*
Y834502D01*
X1058999Y833502D01*
X1058000D01*
X1057000Y834502D01*
Y835502D01*
Y834502D01*
X1056000Y833502D01*
X1055001D01*
X1054001Y834502D01*
Y836501D01*
X1055001Y837501D01*
X1110931Y876472D02*
X1109931Y877472D01*
X1107932D01*
X1106932Y876472D01*
Y872474D01*
X1107932Y871474D01*
X1109931D01*
X1110931Y872474D01*
X1112930Y871474D02*
X1114929D01*
X1113930D01*
Y877472D01*
X1112930Y876472D01*
X1121927Y871474D02*
X1117928D01*
X1121927Y875473D01*
Y876472D01*
X1120928Y877472D01*
X1118928D01*
X1117928Y876472D01*
X754823Y879266D02*
X753823Y880266D01*
X751824D01*
X750824Y879266D01*
Y875268D01*
X751824Y874268D01*
X753823D01*
X754823Y875268D01*
X756822Y874268D02*
X758821D01*
X757822D01*
Y880266D01*
X756822Y879266D01*
X761820Y874268D02*
X763820D01*
X762820D01*
Y880266D01*
X761820Y879266D01*
X963498Y854501D02*
X964498Y853502D01*
X966497D01*
X967497Y854501D01*
Y858500D01*
X966497Y859500D01*
X964498D01*
X963498Y858500D01*
X961499Y859500D02*
X959499D01*
X960499D01*
Y853502D01*
X961499Y854501D01*
X956500D02*
X955501Y853502D01*
X953501D01*
X952502Y854501D01*
Y858500D01*
X953501Y859500D01*
X955501D01*
X956500Y858500D01*
Y854501D01*
X987500Y1028000D02*
X988500Y1029000D01*
Y1031000D01*
X987500Y1031999D01*
X983501D01*
X982502Y1031000D01*
Y1029000D01*
X983501Y1028000D01*
Y1026001D02*
X982502Y1025002D01*
Y1023002D01*
X983501Y1022002D01*
X987500D01*
X988500Y1023002D01*
Y1025002D01*
X987500Y1026001D01*
X986500D01*
X985501Y1025002D01*
Y1022002D01*
X1018999Y1177500D02*
X1018000Y1178500D01*
X1016001D01*
X1015001Y1177500D01*
Y1173501D01*
X1016001Y1172502D01*
X1018000D01*
X1018999Y1173501D01*
X1020999Y1177500D02*
X1021999Y1178500D01*
X1023998D01*
X1024998Y1177500D01*
Y1176500D01*
X1023998Y1175501D01*
X1024998Y1174501D01*
Y1173501D01*
X1023998Y1172502D01*
X1021999D01*
X1020999Y1173501D01*
Y1174501D01*
X1021999Y1175501D01*
X1020999Y1176500D01*
Y1177500D01*
X1021999Y1175501D02*
X1023998D01*
X891909Y1053782D02*
X893301Y1054027D01*
X894448Y1055665D01*
X894203Y1057057D01*
X890927Y1059351D01*
X889535Y1059106D01*
X888388Y1057468D01*
X888634Y1056075D01*
X889288Y1048295D02*
X889616Y1050506D01*
X889125Y1053291D01*
X887487Y1054438D01*
X886095Y1054192D01*
X884948Y1052554D01*
X885193Y1051162D01*
X886012Y1050589D01*
X887404Y1050834D01*
X889125Y1053291D01*
X1034000Y1035999D02*
X1033001Y1036999D01*
X1031001D01*
X1030002Y1035999D01*
Y1032001D01*
X1031001Y1031001D01*
X1033001D01*
X1034000Y1032001D01*
X1039998Y1036999D02*
X1036000D01*
Y1034000D01*
X1037999Y1035000D01*
X1038999D01*
X1039998Y1034000D01*
Y1032001D01*
X1038999Y1031001D01*
X1036999D01*
X1036000Y1032001D01*
X1034000Y990999D02*
X1033001Y991999D01*
X1031001D01*
X1030002Y990999D01*
Y987001D01*
X1031001Y986001D01*
X1033001D01*
X1034000Y987001D01*
X1038999Y986001D02*
Y991999D01*
X1036000Y989000D01*
X1039998D01*
X769000Y1091999D02*
X768001Y1092999D01*
X766001D01*
X765002Y1091999D01*
Y1088001D01*
X766001Y1087001D01*
X768001D01*
X769000Y1088001D01*
X771000Y1091999D02*
X771999Y1092999D01*
X773999D01*
X774998Y1091999D01*
Y1091000D01*
X773999Y1090000D01*
X772999D01*
X773999D01*
X774998Y1089000D01*
Y1088001D01*
X773999Y1087001D01*
X771999D01*
X771000Y1088001D01*
X744000Y1091999D02*
X743001Y1092999D01*
X741001D01*
X740002Y1091999D01*
Y1088001D01*
X741001Y1087001D01*
X743001D01*
X744000Y1088001D01*
X749998Y1087001D02*
X746000D01*
X749998Y1091000D01*
Y1091999D01*
X748999Y1092999D01*
X746999D01*
X746000Y1091999D01*
X1054100Y589690D02*
Y583692D01*
X1057099D01*
X1058099Y584692D01*
Y585691D01*
X1057099Y586691D01*
X1054100D01*
X1057099D01*
X1058099Y587691D01*
Y588690D01*
X1057099Y589690D01*
X1054100D01*
X1060098D02*
X1064097D01*
X1062097D01*
Y583692D01*
X1066096D02*
Y589690D01*
X1070095Y583692D01*
Y589690D01*
X1076093Y583692D02*
X1072094D01*
X1076093Y587691D01*
Y588690D01*
X1075093Y589690D01*
X1073094D01*
X1072094Y588690D01*
X1078092Y583692D02*
X1080092D01*
X1079092D01*
Y589690D01*
X1078092Y588690D01*
X954024Y589690D02*
Y583692D01*
X957023D01*
X958023Y584692D01*
Y585691D01*
X957023Y586691D01*
X954024D01*
X957023D01*
X958023Y587691D01*
Y588690D01*
X957023Y589690D01*
X954024D01*
X960022D02*
X964021D01*
X962021D01*
Y583692D01*
X966020D02*
Y589690D01*
X970019Y583692D01*
Y589690D01*
X976017Y583692D02*
X972018D01*
X976017Y587691D01*
Y588690D01*
X975017Y589690D01*
X973018D01*
X972018Y588690D01*
X978016D02*
X979016Y589690D01*
X981015D01*
X982015Y588690D01*
Y584692D01*
X981015Y583692D01*
X979016D01*
X978016Y584692D01*
Y588690D01*
X864108Y590706D02*
Y584708D01*
X867107D01*
X868107Y585708D01*
Y586707D01*
X867107Y587707D01*
X864108D01*
X867107D01*
X868107Y588707D01*
Y589706D01*
X867107Y590706D01*
X864108D01*
X870106D02*
X874105D01*
X872105D01*
Y584708D01*
X876104D02*
Y590706D01*
X880103Y584708D01*
Y590706D01*
X882102Y584708D02*
X884101D01*
X883102D01*
Y590706D01*
X882102Y589706D01*
X887101Y585708D02*
X888100Y584708D01*
X890100D01*
X891099Y585708D01*
Y589706D01*
X890100Y590706D01*
X888100D01*
X887101Y589706D01*
Y588707D01*
X888100Y587707D01*
X891099D01*
X773938Y590706D02*
Y584708D01*
X776937D01*
X777937Y585708D01*
Y586707D01*
X776937Y587707D01*
X773938D01*
X776937D01*
X777937Y588707D01*
Y589706D01*
X776937Y590706D01*
X773938D01*
X779936D02*
X783935D01*
X781935D01*
Y584708D01*
X785934D02*
Y590706D01*
X789933Y584708D01*
Y590706D01*
X791932Y584708D02*
X793932D01*
X792932D01*
Y590706D01*
X791932Y589706D01*
X796930D02*
X797930Y590706D01*
X799930D01*
X800929Y589706D01*
Y588707D01*
X799930Y587707D01*
X800929Y586707D01*
Y585708D01*
X799930Y584708D01*
X797930D01*
X796930Y585708D01*
Y586707D01*
X797930Y587707D01*
X796930Y588707D01*
Y589706D01*
X797930Y587707D02*
X799930D01*
X1054100Y662588D02*
Y656590D01*
X1057099D01*
X1058099Y657590D01*
Y658589D01*
X1057099Y659589D01*
X1054100D01*
X1057099D01*
X1058099Y660589D01*
Y661588D01*
X1057099Y662588D01*
X1054100D01*
X1060098D02*
X1064097D01*
X1062097D01*
Y656590D01*
X1066096D02*
Y662588D01*
X1070095Y656590D01*
Y662588D01*
X1072094Y656590D02*
X1074093D01*
X1073094D01*
Y662588D01*
X1072094Y661588D01*
X1077093Y662588D02*
X1081091D01*
Y661588D01*
X1077093Y657590D01*
Y656590D01*
X954024Y662588D02*
Y656590D01*
X957023D01*
X958023Y657590D01*
Y658589D01*
X957023Y659589D01*
X954024D01*
X957023D01*
X958023Y660589D01*
Y661588D01*
X957023Y662588D01*
X954024D01*
X960022D02*
X964021D01*
X962021D01*
Y656590D01*
X966020D02*
Y662588D01*
X970019Y656590D01*
Y662588D01*
X972018Y656590D02*
X974017D01*
X973018D01*
Y662588D01*
X972018Y661588D01*
X981015Y662588D02*
X979016Y661588D01*
X977017Y659589D01*
Y657590D01*
X978016Y656590D01*
X980016D01*
X981015Y657590D01*
Y658589D01*
X980016Y659589D01*
X977017D01*
X864108Y662588D02*
Y656590D01*
X867107D01*
X868107Y657590D01*
Y658589D01*
X867107Y659589D01*
X864108D01*
X867107D01*
X868107Y660589D01*
Y661588D01*
X867107Y662588D01*
X864108D01*
X870106D02*
X874105D01*
X872105D01*
Y656590D01*
X876104D02*
Y662588D01*
X880103Y656590D01*
Y662588D01*
X882102Y656590D02*
X884101D01*
X883102D01*
Y662588D01*
X882102Y661588D01*
X891099Y662588D02*
X887101D01*
Y659589D01*
X889100Y660589D01*
X890100D01*
X891099Y659589D01*
Y657590D01*
X890100Y656590D01*
X888100D01*
X887101Y657590D01*
X773938Y662588D02*
Y656590D01*
X776937D01*
X777937Y657590D01*
Y658589D01*
X776937Y659589D01*
X773938D01*
X776937D01*
X777937Y660589D01*
Y661588D01*
X776937Y662588D01*
X773938D01*
X779936D02*
X783935D01*
X781935D01*
Y656590D01*
X785934D02*
Y662588D01*
X789933Y656590D01*
Y662588D01*
X791932Y656590D02*
X793932D01*
X792932D01*
Y662588D01*
X791932Y661588D01*
X799930Y656590D02*
Y662588D01*
X796930Y659589D01*
X800929D01*
X1054100Y722532D02*
Y716534D01*
X1057099D01*
X1058099Y717534D01*
Y718533D01*
X1057099Y719533D01*
X1054100D01*
X1057099D01*
X1058099Y720533D01*
Y721532D01*
X1057099Y722532D01*
X1054100D01*
X1060098D02*
X1064097D01*
X1062097D01*
Y716534D01*
X1066096D02*
Y722532D01*
X1070095Y716534D01*
Y722532D01*
X1072094Y716534D02*
X1074093D01*
X1073094D01*
Y722532D01*
X1072094Y721532D01*
X1077093D02*
X1078092Y722532D01*
X1080092D01*
X1081091Y721532D01*
Y720533D01*
X1080092Y719533D01*
X1079092D01*
X1080092D01*
X1081091Y718533D01*
Y717534D01*
X1080092Y716534D01*
X1078092D01*
X1077093Y717534D01*
X954024Y722532D02*
Y716534D01*
X957023D01*
X958023Y717534D01*
Y718533D01*
X957023Y719533D01*
X954024D01*
X957023D01*
X958023Y720533D01*
Y721532D01*
X957023Y722532D01*
X954024D01*
X960022D02*
X964021D01*
X962021D01*
Y716534D01*
X966020D02*
Y722532D01*
X970019Y716534D01*
Y722532D01*
X972018Y716534D02*
X974017D01*
X973018D01*
Y722532D01*
X972018Y721532D01*
X981015Y716534D02*
X977017D01*
X981015Y720533D01*
Y721532D01*
X980016Y722532D01*
X978016D01*
X977017Y721532D01*
X864108Y722532D02*
Y716534D01*
X867107D01*
X868107Y717534D01*
Y718533D01*
X867107Y719533D01*
X864108D01*
X867107D01*
X868107Y720533D01*
Y721532D01*
X867107Y722532D01*
X864108D01*
X870106D02*
X874105D01*
X872105D01*
Y716534D01*
X876104D02*
Y722532D01*
X880103Y716534D01*
Y722532D01*
X882102Y716534D02*
X884101D01*
X883102D01*
Y722532D01*
X882102Y721532D01*
X887101Y716534D02*
X889100D01*
X888100D01*
Y722532D01*
X887101Y721532D01*
X773938Y722532D02*
Y716534D01*
X776937D01*
X777937Y717534D01*
Y718533D01*
X776937Y719533D01*
X773938D01*
X776937D01*
X777937Y720533D01*
Y721532D01*
X776937Y722532D01*
X773938D01*
X779936D02*
X783935D01*
X781935D01*
Y716534D01*
X785934D02*
Y722532D01*
X789933Y716534D01*
Y722532D01*
X791932Y716534D02*
X793932D01*
X792932D01*
Y722532D01*
X791932Y721532D01*
X796930D02*
X797930Y722532D01*
X799930D01*
X800929Y721532D01*
Y717534D01*
X799930Y716534D01*
X797930D01*
X796930Y717534D01*
Y721532D01*
X1069004Y782999D02*
Y777001D01*
X1072003D01*
X1073002Y778001D01*
Y779000D01*
X1072003Y780000D01*
X1069004D01*
X1072003D01*
X1073002Y781000D01*
Y781999D01*
X1072003Y782999D01*
X1069004D01*
X1075002D02*
X1079000D01*
X1077001D01*
Y777001D01*
X1081000D02*
Y782999D01*
X1084998Y777001D01*
Y782999D01*
X1086998Y778001D02*
X1087997Y777001D01*
X1089997D01*
X1090996Y778001D01*
Y781999D01*
X1089997Y782999D01*
X1087997D01*
X1086998Y781999D01*
Y781000D01*
X1087997Y780000D01*
X1090996D01*
X937001Y763004D02*
X942999D01*
Y766003D01*
X941999Y767002D01*
X941000D01*
X940000Y766003D01*
Y763004D01*
Y766003D01*
X939000Y767002D01*
X938001D01*
X937001Y766003D01*
Y763004D01*
Y769002D02*
Y773000D01*
Y771001D01*
X942999D01*
Y775000D02*
X937001D01*
X942999Y778998D01*
X937001D01*
X938001Y780998D02*
X937001Y781997D01*
Y783997D01*
X938001Y784996D01*
X939000D01*
X940000Y783997D01*
X941000Y784996D01*
X941999D01*
X942999Y783997D01*
Y781997D01*
X941999Y780998D01*
X941000D01*
X940000Y781997D01*
X939000Y780998D01*
X938001D01*
X940000Y781997D02*
Y783997D01*
X1019999Y824996D02*
X1014001D01*
Y821997D01*
X1015001Y820998D01*
X1016000D01*
X1017000Y821997D01*
Y824996D01*
Y821997D01*
X1018000Y820998D01*
X1018999D01*
X1019999Y821997D01*
Y824996D01*
Y818998D02*
Y815000D01*
Y816999D01*
X1014001D01*
Y813000D02*
X1019999D01*
X1014001Y809002D01*
X1019999D01*
Y803003D02*
X1018999Y805003D01*
X1017000Y807002D01*
X1015001D01*
X1014001Y806003D01*
Y804003D01*
X1015001Y803003D01*
X1016000D01*
X1017000Y804003D01*
Y807002D01*
X929801Y803204D02*
X935799D01*
Y806203D01*
X934799Y807202D01*
X933800D01*
X932800Y806203D01*
Y803204D01*
Y806203D01*
X931800Y807202D01*
X930801D01*
X929801Y806203D01*
Y803204D01*
Y809202D02*
Y813200D01*
Y811201D01*
X935799D01*
Y815200D02*
X929801D01*
X935799Y819198D01*
X929801D01*
Y825196D02*
Y821198D01*
X932800D01*
X931800Y823197D01*
Y824197D01*
X932800Y825196D01*
X934799D01*
X935799Y824197D01*
Y822197D01*
X934799Y821198D01*
X860001Y806004D02*
X865999D01*
Y809003D01*
X864999Y810002D01*
X864000D01*
X863000Y809003D01*
Y806004D01*
Y809003D01*
X862000Y810002D01*
X861001D01*
X860001Y809003D01*
Y806004D01*
Y812002D02*
Y816000D01*
Y814001D01*
X865999D01*
Y818000D02*
X860001D01*
X865999Y821998D01*
X860001D01*
X865999Y826997D02*
X860001D01*
X863000Y823998D01*
Y827997D01*
X941999Y869996D02*
X936001D01*
Y866997D01*
X937001Y865998D01*
X938000D01*
X939000Y866997D01*
Y869996D01*
Y866997D01*
X940000Y865998D01*
X940999D01*
X941999Y866997D01*
Y869996D01*
Y863998D02*
Y860000D01*
Y861999D01*
X936001D01*
Y858000D02*
X941999D01*
X936001Y854002D01*
X941999D01*
X940999Y852002D02*
X941999Y851003D01*
Y849003D01*
X940999Y848003D01*
X940000D01*
X939000Y849003D01*
Y850003D01*
Y849003D01*
X938000Y848003D01*
X937001D01*
X936001Y849003D01*
Y851003D01*
X937001Y852002D01*
X1073004Y848999D02*
Y843001D01*
X1076003D01*
X1077002Y844001D01*
Y845000D01*
X1076003Y846000D01*
X1073004D01*
X1076003D01*
X1077002Y847000D01*
Y847999D01*
X1076003Y848999D01*
X1073004D01*
X1079002D02*
X1083000D01*
X1081001D01*
Y843001D01*
X1085000D02*
Y848999D01*
X1088998Y843001D01*
Y848999D01*
X1094996Y843001D02*
X1090998D01*
X1094996Y847000D01*
Y847999D01*
X1093997Y848999D01*
X1091997D01*
X1090998Y847999D01*
X778003Y852999D02*
Y847001D01*
X781002D01*
X782002Y848001D01*
Y849000D01*
X781002Y850000D01*
X778003D01*
X781002D01*
X782002Y851000D01*
Y851999D01*
X781002Y852999D01*
X778003D01*
X784001D02*
X788000D01*
X786001D01*
Y847001D01*
X789999D02*
Y852999D01*
X793998Y847001D01*
Y852999D01*
X795997Y847001D02*
X797997D01*
X796997D01*
Y852999D01*
X795997Y851999D01*
X913501Y1120269D02*
Y1115271D01*
X914501Y1114271D01*
X916500D01*
X917500Y1115271D01*
Y1120269D01*
X919499Y1114271D02*
X921499D01*
X920499D01*
Y1120269D01*
X919499Y1119269D01*
X1020502Y1002002D02*
Y1008000D01*
X1023501D01*
X1024501Y1007000D01*
Y1005001D01*
X1023501Y1004001D01*
X1020502D01*
X1022502D02*
X1024501Y1002002D01*
X1026500D02*
X1028500D01*
X1027500D01*
Y1008000D01*
X1026500Y1007000D01*
X991001Y967999D02*
Y962001D01*
Y964000D01*
X995000Y967999D01*
X992001Y965000D01*
X995000Y962001D01*
X996999D02*
X998999D01*
X997999D01*
Y967999D01*
X996999Y966999D01*
X1055000Y951999D02*
X1054000Y952999D01*
X1052001D01*
X1051001Y951999D01*
Y948001D01*
X1052001Y947001D01*
X1054000D01*
X1055000Y948001D01*
X1056999Y947001D02*
X1058999D01*
X1057999D01*
Y952999D01*
X1056999Y951999D01*
D14*
X1112680Y1210000D02*
G03*
X1112680Y1210000I-1250J0D01*
G01*
D15*
X877999Y1152771D02*
Y1154041D01*
Y1148961D02*
Y1150231D01*
X874189D02*
X881809D01*
X874189Y1152771D02*
X881809D01*
X841190Y556270D02*
X848810D01*
X841190Y553730D02*
X848810D01*
X845000Y552460D02*
Y553730D01*
Y556270D02*
Y557540D01*
X1104840Y1022540D02*
X1125160D01*
X1104840Y1017460D02*
Y1022540D01*
Y1017460D02*
X1125160D01*
Y1022540D01*
X1104840Y1026350D02*
X1125160D01*
X1104840Y1013650D02*
X1125160D01*
X1115000Y1006030D02*
Y1013650D01*
Y1026350D02*
Y1033970D01*
X962961Y1027001D02*
X964231D01*
X966771D02*
X968041D01*
X966771Y1023191D02*
Y1030811D01*
X964231Y1023191D02*
Y1030811D01*
X1016189Y1149231D02*
X1023809D01*
X1016189Y1151771D02*
X1023809D01*
X1019999D02*
Y1153041D01*
Y1147961D02*
Y1149231D01*
X865993Y1066057D02*
X870364Y1072299D01*
X868074Y1064600D02*
X872445Y1070842D01*
X870259Y1067721D02*
X871300Y1066992D01*
X867139Y1069906D02*
X868179Y1069178D01*
X1036190Y938730D02*
X1043810D01*
X1036190Y941270D02*
X1043810D01*
X1040000D02*
Y942540D01*
Y937460D02*
Y938730D01*
X751190Y691270D02*
X758810D01*
X751190Y688730D02*
X758810D01*
X755000Y687460D02*
Y688730D01*
Y691270D02*
Y692540D01*
X899000Y774270D02*
Y775540D01*
Y770460D02*
Y771730D01*
X895190D02*
X902810D01*
X895190Y774270D02*
X902810D01*
X791270Y741000D02*
X792540D01*
X787460D02*
X788730D01*
Y737190D02*
Y744810D01*
X791270Y737190D02*
Y744810D01*
X1057000Y816270D02*
Y817540D01*
Y812460D02*
Y813730D01*
X1053190D02*
X1060810D01*
X1053190Y816270D02*
X1060810D01*
X901999Y811961D02*
Y813231D01*
Y815771D02*
Y817041D01*
X898189Y815771D02*
X905809D01*
X898189Y813231D02*
X905809D01*
X980000Y858270D02*
Y859540D01*
Y854460D02*
Y855730D01*
X976190D02*
X983810D01*
X976190Y858270D02*
X983810D01*
X824000Y816270D02*
Y817540D01*
Y812460D02*
Y813730D01*
X820190D02*
X827810D01*
X820190Y816270D02*
X827810D01*
X1111189Y779231D02*
X1118809D01*
X1111189Y781771D02*
X1118809D01*
X1114999D02*
Y783041D01*
Y777961D02*
Y779231D01*
X1110189Y845231D02*
X1117809D01*
X1110189Y847771D02*
X1117809D01*
X1113999D02*
Y849041D01*
Y843961D02*
Y845231D01*
X754191Y850769D02*
X761811D01*
X754191Y848229D02*
X761811D01*
X758001Y846959D02*
Y848229D01*
Y850769D02*
Y852039D01*
X1030001Y690769D02*
Y692039D01*
Y686959D02*
Y688229D01*
X1026191D02*
X1033811D01*
X1026191Y690769D02*
X1033811D01*
X935000Y691270D02*
Y692540D01*
Y687460D02*
Y688730D01*
X931190D02*
X938810D01*
X931190Y691270D02*
X938810D01*
X845001Y690769D02*
Y692039D01*
Y686959D02*
Y688229D01*
X841191D02*
X848811D01*
X841191Y690769D02*
X848811D01*
X1030000Y631270D02*
Y632540D01*
Y627460D02*
Y628730D01*
X1026190D02*
X1033810D01*
X1026190Y631270D02*
X1033810D01*
X935000Y627460D02*
Y628730D01*
Y631270D02*
Y632540D01*
X931190Y631270D02*
X938810D01*
X931190Y628730D02*
X938810D01*
X845000Y631270D02*
Y632540D01*
Y627460D02*
Y628730D01*
X841190D02*
X848810D01*
X841190Y631270D02*
X848810D01*
X755000D02*
Y632540D01*
Y627460D02*
Y628730D01*
X751190D02*
X758810D01*
X751190Y631270D02*
X758810D01*
X1030001Y555769D02*
Y557039D01*
Y551959D02*
Y553229D01*
X1026191D02*
X1033811D01*
X1026191Y555769D02*
X1033811D01*
X935000Y556270D02*
Y557540D01*
Y552460D02*
Y553730D01*
X931190D02*
X938810D01*
X931190Y556270D02*
X938810D01*
X755000D02*
Y557540D01*
Y552460D02*
Y553730D01*
X751190D02*
X758810D01*
X751190Y556270D02*
X758810D01*
D16*
X967300Y1402460D02*
X992700D01*
M02*
