G04*
G04 #@! TF.GenerationSoftware,Altium Limited,Altium Designer,22.11.1 (43)*
G04*
G04 Layer_Color=255*
%FSLAX44Y44*%
%MOMM*%
G71*
G04*
G04 #@! TF.SameCoordinates,BDB78580-9DC3-4381-8F3F-6093B5378177*
G04*
G04*
G04 #@! TF.FilePolarity,Positive*
G04*
G01*
G75*
%ADD17R,1.2700X0.8890*%
%ADD18R,1.5000X2.0000*%
%ADD19O,0.3000X2.1000*%
%ADD20O,2.1000X0.3000*%
%ADD21R,0.8890X1.2700*%
%ADD22R,3.3000X3.5000*%
%ADD23R,1.4000X0.6000*%
G04:AMPARAMS|DCode=24|XSize=1.27mm|YSize=0.889mm|CornerRadius=0mm|HoleSize=0mm|Usage=FLASHONLY|Rotation=55.000|XOffset=0mm|YOffset=0mm|HoleType=Round|Shape=Rectangle|*
%AMROTATEDRECTD24*
4,1,4,-0.0001,-0.7751,-0.7283,-0.2652,0.0001,0.7751,0.7283,0.2652,-0.0001,-0.7751,0.0*
%
%ADD24ROTATEDRECTD24*%

%ADD52C,1.5240*%
G04:AMPARAMS|DCode=53|XSize=1mm|YSize=1.5mm|CornerRadius=0.25mm|HoleSize=0mm|Usage=FLASHONLY|Rotation=90.000|XOffset=0mm|YOffset=0mm|HoleType=Round|Shape=RoundedRectangle|*
%AMROUNDEDRECTD53*
21,1,1.0000,1.0000,0,0,90.0*
21,1,0.5000,1.5000,0,0,90.0*
1,1,0.5000,0.5000,0.2500*
1,1,0.5000,0.5000,-0.2500*
1,1,0.5000,-0.5000,-0.2500*
1,1,0.5000,-0.5000,0.2500*
%
%ADD53ROUNDEDRECTD53*%
%ADD54C,1.3000*%
%ADD55C,2.0000*%
%ADD56R,2.0000X2.0000*%
%ADD57R,2.0000X2.0000*%
%ADD58C,1.5000*%
%ADD59R,1.5000X1.5000*%
%ADD60C,1.0000*%
G04:AMPARAMS|DCode=61|XSize=1.5mm|YSize=3mm|CornerRadius=0.375mm|HoleSize=0mm|Usage=FLASHONLY|Rotation=270.000|XOffset=0mm|YOffset=0mm|HoleType=Round|Shape=RoundedRectangle|*
%AMROUNDEDRECTD61*
21,1,1.5000,2.2500,0,0,270.0*
21,1,0.7500,3.0000,0,0,270.0*
1,1,0.7500,-1.1250,-0.3750*
1,1,0.7500,-1.1250,0.3750*
1,1,0.7500,1.1250,0.3750*
1,1,0.7500,1.1250,-0.3750*
%
%ADD61ROUNDEDRECTD61*%
G04:AMPARAMS|DCode=62|XSize=0.7mm|YSize=1.5mm|CornerRadius=0.175mm|HoleSize=0mm|Usage=FLASHONLY|Rotation=0.000|XOffset=0mm|YOffset=0mm|HoleType=Round|Shape=RoundedRectangle|*
%AMROUNDEDRECTD62*
21,1,0.7000,1.1500,0,0,0.0*
21,1,0.3500,1.5000,0,0,0.0*
1,1,0.3500,0.1750,-0.5750*
1,1,0.3500,-0.1750,-0.5750*
1,1,0.3500,-0.1750,0.5750*
1,1,0.3500,0.1750,0.5750*
%
%ADD62ROUNDEDRECTD62*%
G04:AMPARAMS|DCode=63|XSize=0.7mm|YSize=1.5mm|CornerRadius=0.175mm|HoleSize=0mm|Usage=FLASHONLY|Rotation=270.000|XOffset=0mm|YOffset=0mm|HoleType=Round|Shape=RoundedRectangle|*
%AMROUNDEDRECTD63*
21,1,0.7000,1.1500,0,0,270.0*
21,1,0.3500,1.5000,0,0,270.0*
1,1,0.3500,-0.5750,-0.1750*
1,1,0.3500,-0.5750,0.1750*
1,1,0.3500,0.5750,0.1750*
1,1,0.3500,0.5750,-0.1750*
%
%ADD63ROUNDEDRECTD63*%
D17*
X877998Y1161002D02*
D03*
X877998Y1142002D02*
D03*
X844999Y564501D02*
D03*
Y545501D02*
D03*
X1020000Y1160000D02*
D03*
Y1141000D02*
D03*
X1040001Y949499D02*
D03*
Y930499D02*
D03*
X754999Y680501D02*
D03*
Y699501D02*
D03*
X898999Y763501D02*
D03*
Y782501D02*
D03*
X1056999Y805501D02*
D03*
Y824501D02*
D03*
X902000Y824000D02*
D03*
Y805000D02*
D03*
X979999Y847501D02*
D03*
Y866501D02*
D03*
X823999Y805501D02*
D03*
Y824501D02*
D03*
X1115000Y771000D02*
D03*
Y790000D02*
D03*
X1114000Y837000D02*
D03*
Y856000D02*
D03*
X758000Y859000D02*
D03*
Y840000D02*
D03*
X845000Y699000D02*
D03*
X1030000D02*
D03*
X934999Y699501D02*
D03*
X1079999Y1024501D02*
D03*
Y1005501D02*
D03*
X1030000Y680000D02*
D03*
X934999Y680501D02*
D03*
X845000Y680000D02*
D03*
X1029999Y620501D02*
D03*
Y639501D02*
D03*
X935001Y639499D02*
D03*
Y620499D02*
D03*
X844999Y620501D02*
D03*
Y639501D02*
D03*
X754999Y620501D02*
D03*
Y639501D02*
D03*
X1030000Y545000D02*
D03*
Y564000D02*
D03*
X934999Y545501D02*
D03*
Y564501D02*
D03*
X754999Y545501D02*
D03*
Y564501D02*
D03*
D18*
X1005200Y904412D02*
D03*
X1005000Y983740D02*
D03*
D19*
X930000Y1144540D02*
D03*
X920000Y1060000D02*
D03*
X915000D02*
D03*
X955000D02*
D03*
X910000Y1144540D02*
D03*
X960000Y1060000D02*
D03*
X950000D02*
D03*
X945000D02*
D03*
X940000D02*
D03*
X935000D02*
D03*
X930000D02*
D03*
X925000D02*
D03*
X910000D02*
D03*
X905000D02*
D03*
Y1144540D02*
D03*
X915000D02*
D03*
X920000D02*
D03*
X925000D02*
D03*
X935000D02*
D03*
X940000D02*
D03*
X945000D02*
D03*
X950000D02*
D03*
X955000D02*
D03*
X960000D02*
D03*
D20*
X890484Y1079770D02*
D03*
X974770Y1109770D02*
D03*
X890484Y1074770D02*
D03*
Y1084770D02*
D03*
Y1089770D02*
D03*
Y1094770D02*
D03*
Y1099770D02*
D03*
Y1104770D02*
D03*
Y1109770D02*
D03*
Y1114770D02*
D03*
Y1119770D02*
D03*
Y1124770D02*
D03*
Y1129770D02*
D03*
X974770D02*
D03*
Y1124770D02*
D03*
Y1119770D02*
D03*
Y1114770D02*
D03*
Y1104770D02*
D03*
Y1099770D02*
D03*
Y1094770D02*
D03*
Y1089770D02*
D03*
Y1084770D02*
D03*
Y1079770D02*
D03*
Y1074770D02*
D03*
D21*
X745000Y1235000D02*
D03*
Y1217220D02*
D03*
X784501Y1235001D02*
D03*
X765501D02*
D03*
X1009501Y1025001D02*
D03*
X990501D02*
D03*
X956000Y1027000D02*
D03*
X975000D02*
D03*
X1105000Y1152000D02*
D03*
X1124000D02*
D03*
X1124492Y1130035D02*
D03*
X1105492D02*
D03*
X1105000Y1170000D02*
D03*
X1124000D02*
D03*
X1105494Y1110001D02*
D03*
X1124494D02*
D03*
X1124492Y1089999D02*
D03*
X1105492D02*
D03*
X990499Y1044999D02*
D03*
X1009499D02*
D03*
X785000Y1215000D02*
D03*
X766000D02*
D03*
X990501Y1005001D02*
D03*
X1009501D02*
D03*
X780501Y741001D02*
D03*
X799501D02*
D03*
D22*
X755000Y915000D02*
D03*
D23*
X1125139Y1200499D02*
D03*
X1100000Y1191000D02*
D03*
Y1210000D02*
D03*
D24*
X877000Y1063000D02*
D03*
X861436Y1073898D02*
D03*
D52*
X1023800Y1416000D02*
D03*
X998400D02*
D03*
X973000D02*
D03*
X947600D02*
D03*
X922200D02*
D03*
X896800D02*
D03*
X871400D02*
D03*
X846000D02*
D03*
X904800Y904000D02*
D03*
X955600D02*
D03*
X930200D02*
D03*
X879400D02*
D03*
X854000D02*
D03*
X828600D02*
D03*
D53*
X1100000Y545000D02*
D03*
Y567000D02*
D03*
X1060000Y545000D02*
D03*
Y567000D02*
D03*
X820000Y546000D02*
D03*
Y568000D02*
D03*
X780000Y546000D02*
D03*
Y568000D02*
D03*
X870000Y700000D02*
D03*
X1060000D02*
D03*
X960000D02*
D03*
X780000D02*
D03*
X1060000Y678000D02*
D03*
X1100000Y700000D02*
D03*
Y678000D02*
D03*
X960000D02*
D03*
X1000000Y700000D02*
D03*
Y678000D02*
D03*
X870000D02*
D03*
X910000Y700000D02*
D03*
Y678000D02*
D03*
X780000D02*
D03*
X820000Y700000D02*
D03*
Y678000D02*
D03*
X1060000Y640000D02*
D03*
Y618000D02*
D03*
X1100000Y640000D02*
D03*
Y618000D02*
D03*
X960000Y640000D02*
D03*
Y618000D02*
D03*
X1000000Y640000D02*
D03*
Y618000D02*
D03*
X870000Y640000D02*
D03*
Y618000D02*
D03*
X910000Y640000D02*
D03*
Y618000D02*
D03*
X780000Y640000D02*
D03*
Y618000D02*
D03*
X820000Y640000D02*
D03*
Y618000D02*
D03*
X960000Y567000D02*
D03*
Y545000D02*
D03*
X1000000Y567000D02*
D03*
Y545000D02*
D03*
X870000Y568000D02*
D03*
Y546000D02*
D03*
X910000Y568000D02*
D03*
Y546000D02*
D03*
D54*
X1055000Y1025000D02*
D03*
Y1043000D02*
D03*
X1115000Y1044000D02*
D03*
Y996000D02*
D03*
X770000Y1056000D02*
D03*
Y1074000D02*
D03*
X745000Y1056000D02*
D03*
Y1074000D02*
D03*
X1055000Y981000D02*
D03*
Y999000D02*
D03*
D55*
X1017000Y1385000D02*
D03*
X1090000Y1355000D02*
D03*
D56*
X1120000Y1385000D02*
D03*
D57*
X1040000Y1355000D02*
D03*
D58*
X765000Y1109600D02*
D03*
Y1160400D02*
D03*
Y1135000D02*
D03*
X980000Y1284600D02*
D03*
Y1386200D02*
D03*
Y1360800D02*
D03*
Y1335400D02*
D03*
Y1310000D02*
D03*
X764100Y1360800D02*
D03*
Y1335400D02*
D03*
Y1310000D02*
D03*
Y1284600D02*
D03*
Y1259200D02*
D03*
D59*
X765000Y1185800D02*
D03*
X764100Y1386200D02*
D03*
D60*
X765000Y1035000D02*
D03*
X745000D02*
D03*
D61*
X980000Y504800D02*
D03*
Y454000D02*
D03*
D62*
X798000Y761000D02*
D03*
X782000D02*
D03*
Y801000D02*
D03*
X798000D02*
D03*
X782000Y870000D02*
D03*
X798000D02*
D03*
X782000Y830000D02*
D03*
X798000D02*
D03*
X1074000Y800000D02*
D03*
X1090000D02*
D03*
X1074000Y760000D02*
D03*
X1090000D02*
D03*
X1074000Y866000D02*
D03*
X1090000D02*
D03*
X1074000Y826000D02*
D03*
X1090000D02*
D03*
D63*
X959000Y865000D02*
D03*
Y849000D02*
D03*
X919000Y865000D02*
D03*
Y849000D02*
D03*
X960000Y780000D02*
D03*
Y764000D02*
D03*
X920000Y780000D02*
D03*
Y764000D02*
D03*
X883000Y823000D02*
D03*
Y807000D02*
D03*
X843000Y823000D02*
D03*
Y807000D02*
D03*
X1037000Y824000D02*
D03*
Y808000D02*
D03*
X997000Y824000D02*
D03*
Y808000D02*
D03*
X920000D02*
D03*
Y824000D02*
D03*
X960000Y808000D02*
D03*
Y824000D02*
D03*
M02*
