G04*
G04 #@! TF.GenerationSoftware,Altium Limited,Altium Designer,22.11.1 (43)*
G04*
G04 Layer_Physical_Order=2*
G04 Layer_Color=16711680*
%FSLAX44Y44*%
%MOMM*%
G71*
G04*
G04 #@! TF.SameCoordinates,BDB78580-9DC3-4381-8F3F-6093B5378177*
G04*
G04*
G04 #@! TF.FilePolarity,Positive*
G04*
G01*
G75*
%ADD11C,0.5000*%
%ADD13C,0.2540*%
%ADD50C,0.3000*%
%ADD52C,1.5240*%
%ADD54C,1.3000*%
%ADD55C,2.0000*%
%ADD56R,2.0000X2.0000*%
%ADD57R,2.0000X2.0000*%
%ADD58C,1.5000*%
%ADD59R,1.5000X1.5000*%
%ADD60C,1.0000*%
G04:AMPARAMS|DCode=61|XSize=1.5mm|YSize=3mm|CornerRadius=0.375mm|HoleSize=0mm|Usage=FLASHONLY|Rotation=270.000|XOffset=0mm|YOffset=0mm|HoleType=Round|Shape=RoundedRectangle|*
%AMROUNDEDRECTD61*
21,1,1.5000,2.2500,0,0,270.0*
21,1,0.7500,3.0000,0,0,270.0*
1,1,0.7500,-1.1250,-0.3750*
1,1,0.7500,-1.1250,0.3750*
1,1,0.7500,1.1250,0.3750*
1,1,0.7500,1.1250,-0.3750*
%
%ADD61ROUNDEDRECTD61*%
%ADD64C,0.3810*%
%ADD65R,4.0000X2.1000*%
%ADD66R,2.1000X4.0000*%
%ADD67C,2.2000*%
%ADD68C,2.0000*%
%ADD69C,1.0000*%
%ADD70R,20.4000X2.6000*%
%ADD71R,4.7000X5.3000*%
G04:AMPARAMS|DCode=72|XSize=6mm|YSize=10mm|CornerRadius=1.5mm|HoleSize=0mm|Usage=FLASHONLY|Rotation=0.000|XOffset=0mm|YOffset=0mm|HoleType=Round|Shape=RoundedRectangle|*
%AMROUNDEDRECTD72*
21,1,6.0000,7.0000,0,0,0.0*
21,1,3.0000,10.0000,0,0,0.0*
1,1,3.0000,1.5000,-3.5000*
1,1,3.0000,-1.5000,-3.5000*
1,1,3.0000,-1.5000,3.5000*
1,1,3.0000,1.5000,3.5000*
%
%ADD72ROUNDEDRECTD72*%
G04:AMPARAMS|DCode=73|XSize=4mm|YSize=2mm|CornerRadius=0.5mm|HoleSize=0mm|Usage=FLASHONLY|Rotation=180.000|XOffset=0mm|YOffset=0mm|HoleType=Round|Shape=RoundedRectangle|*
%AMROUNDEDRECTD73*
21,1,4.0000,1.0000,0,0,180.0*
21,1,3.0000,2.0000,0,0,180.0*
1,1,1.0000,-1.5000,0.5000*
1,1,1.0000,1.5000,0.5000*
1,1,1.0000,1.5000,-0.5000*
1,1,1.0000,-1.5000,-0.5000*
%
%ADD73ROUNDEDRECTD73*%
G36*
X903474Y1412171D02*
X903356Y1411574D01*
X903340Y1410961D01*
X903425Y1410330D01*
X903612Y1409682D01*
X903899Y1409017D01*
X904288Y1408334D01*
X904777Y1407634D01*
X905368Y1406917D01*
X906061Y1406183D01*
X903939Y1404062D01*
X903122Y1404846D01*
X901525Y1406181D01*
X900746Y1406732D01*
X899979Y1407204D01*
X899224Y1407598D01*
X898482Y1407914D01*
X897753Y1408152D01*
X897036Y1408312D01*
X896332Y1408394D01*
X903692Y1412750D01*
X903474Y1412171D01*
D02*
G37*
G36*
X876196Y1409964D02*
X875714Y1409294D01*
X875289Y1408548D01*
X874920Y1407725D01*
X874609Y1406825D01*
X874353Y1405849D01*
X874155Y1404797D01*
X874013Y1403668D01*
X873928Y1402463D01*
X873900Y1401182D01*
X868900D01*
X868872Y1402463D01*
X868645Y1404797D01*
X868447Y1405849D01*
X868192Y1406825D01*
X867880Y1407725D01*
X867511Y1408548D01*
X867086Y1409294D01*
X866605Y1409964D01*
X866066Y1410558D01*
X876734D01*
X876196Y1409964D01*
D02*
G37*
G36*
X910018Y1365004D02*
X909943Y1365478D01*
X909717Y1365903D01*
X909340Y1366277D01*
X908813Y1366601D01*
X908135Y1366876D01*
X907307Y1367101D01*
X906328Y1367275D01*
X905199Y1367400D01*
X902488Y1367500D01*
Y1372500D01*
X903918Y1372525D01*
X906328Y1372725D01*
X907307Y1372899D01*
X908135Y1373124D01*
X908813Y1373399D01*
X909340Y1373723D01*
X909717Y1374097D01*
X909943Y1374522D01*
X910018Y1374996D01*
Y1365004D01*
D02*
G37*
G36*
X974644Y1355550D02*
X974067Y1356073D01*
X973413Y1356540D01*
X972682Y1356953D01*
X971876Y1357310D01*
X970992Y1357612D01*
X970033Y1357860D01*
X968997Y1358053D01*
X967884Y1358190D01*
X966695Y1358273D01*
X965429Y1358300D01*
Y1363300D01*
X966695Y1363327D01*
X968997Y1363548D01*
X970033Y1363740D01*
X970992Y1363987D01*
X971876Y1364290D01*
X972682Y1364648D01*
X973413Y1365060D01*
X974067Y1365527D01*
X974644Y1366050D01*
Y1355550D01*
D02*
G37*
G36*
X1122834Y1436231D02*
X1126473Y1434724D01*
X1129749Y1432535D01*
X1132535Y1429749D01*
X1134724Y1426474D01*
X1136231Y1422834D01*
X1137000Y1418970D01*
Y1417000D01*
Y457000D01*
Y455030D01*
X1136231Y451166D01*
X1134724Y447526D01*
X1132535Y444251D01*
X1129749Y441465D01*
X1126473Y439276D01*
X1122834Y437769D01*
X1118970Y437000D01*
X1081272D01*
X1080619Y438089D01*
X1080812Y438451D01*
X1081786Y441661D01*
X1082114Y445000D01*
Y515000D01*
X1081786Y518339D01*
X1080812Y521549D01*
X1079230Y524508D01*
X1077102Y527102D01*
X1074508Y529230D01*
X1071549Y530812D01*
X1068339Y531786D01*
X1065000Y532114D01*
X1035000D01*
X1031661Y531786D01*
X1028451Y530812D01*
X1025492Y529230D01*
X1022898Y527102D01*
X1020770Y524508D01*
X1019188Y521549D01*
X1018214Y518339D01*
X1017886Y515000D01*
Y494072D01*
X992316D01*
X992190Y495342D01*
X993506Y495603D01*
X995419Y496881D01*
X996696Y498794D01*
X997145Y501050D01*
Y508550D01*
X996696Y510806D01*
X995419Y512719D01*
X993506Y513997D01*
X991250Y514445D01*
X973457D01*
X973387Y515306D01*
Y529980D01*
X973130Y531268D01*
X972401Y532361D01*
X970571Y534190D01*
X971057Y535363D01*
X1009633D01*
Y525160D01*
X1009063Y523783D01*
Y522217D01*
X1009662Y520770D01*
X1010770Y519662D01*
X1012217Y519063D01*
X1013783D01*
X1015230Y519662D01*
X1016338Y520770D01*
X1016937Y522217D01*
Y523783D01*
X1016367Y525160D01*
Y537242D01*
X1016110Y538531D01*
X1015381Y539623D01*
X1013893Y541111D01*
X1012801Y541840D01*
X1011512Y542097D01*
X823460D01*
X822934Y543367D01*
X823338Y543770D01*
X823937Y545217D01*
Y546783D01*
X823367Y548160D01*
Y559809D01*
X844111Y580553D01*
X844840Y581646D01*
X845097Y582934D01*
Y809632D01*
X868381Y832915D01*
X869110Y834008D01*
X869367Y835296D01*
Y863840D01*
X869937Y865217D01*
Y866783D01*
X869338Y868230D01*
X868230Y869338D01*
X866783Y869937D01*
X865217D01*
X863770Y869338D01*
X862662Y868230D01*
X862063Y866783D01*
Y865217D01*
X862633Y863840D01*
Y836691D01*
X839349Y813407D01*
X838620Y812315D01*
X838363Y811026D01*
Y584328D01*
X817619Y563585D01*
X816890Y562492D01*
X816633Y561204D01*
Y548160D01*
X816063Y546783D01*
Y545217D01*
X816662Y543770D01*
X817066Y543367D01*
X816540Y542097D01*
X766665D01*
X762097Y546665D01*
Y1027183D01*
X763367Y1028158D01*
X764074Y1027968D01*
X765926D01*
X767714Y1028447D01*
X769318Y1029373D01*
X770627Y1030682D01*
X771553Y1032286D01*
X772032Y1034074D01*
Y1035926D01*
X771553Y1037714D01*
X770627Y1039318D01*
X769318Y1040627D01*
X767714Y1041553D01*
X765926Y1042032D01*
X764074D01*
X763367Y1041842D01*
X762097Y1042817D01*
Y1050293D01*
X763367Y1050567D01*
X764761Y1049173D01*
X766707Y1048049D01*
X768877Y1047468D01*
X771123D01*
X773293Y1048049D01*
X775239Y1049173D01*
X776827Y1050761D01*
X777951Y1052707D01*
X778532Y1054877D01*
Y1057123D01*
X777951Y1059293D01*
X776827Y1061239D01*
X775239Y1062827D01*
X773293Y1063951D01*
X772812Y1064080D01*
Y1065395D01*
X773489Y1065576D01*
X775551Y1066766D01*
X777234Y1068449D01*
X778424Y1070511D01*
X779019Y1072730D01*
X770000D01*
Y1074000D01*
X768730D01*
Y1083019D01*
X766511Y1082424D01*
X764449Y1081234D01*
X763367Y1080151D01*
X762097Y1080677D01*
Y1092270D01*
X761840Y1093558D01*
X761111Y1094651D01*
X751367Y1104395D01*
Y1246439D01*
X752540Y1246925D01*
X754704Y1244762D01*
X754704Y1244762D01*
X756203Y1243760D01*
X757971Y1243408D01*
X757971Y1243408D01*
X796057D01*
X800379Y1239086D01*
Y1231180D01*
X800332Y1229911D01*
X800223Y1228926D01*
X800077Y1228105D01*
X799908Y1227485D01*
X799745Y1227084D01*
X799714Y1227032D01*
X792468D01*
Y1220286D01*
X792416Y1220255D01*
X792015Y1220092D01*
X791395Y1219923D01*
X790602Y1219782D01*
X788664Y1219621D01*
X786914D01*
X768267Y1238267D01*
X766768Y1239269D01*
X765000Y1239621D01*
X763232Y1239269D01*
X761733Y1238267D01*
X760731Y1236768D01*
X760379Y1235000D01*
X760731Y1233232D01*
X761733Y1231733D01*
X761733Y1231732D01*
X781732Y1211733D01*
X781733Y1211733D01*
X782534Y1211197D01*
X782539Y1209672D01*
X781933Y1209267D01*
X781933Y1209267D01*
X771160Y1198494D01*
X769149Y1196718D01*
X768218Y1196006D01*
X767420Y1195477D01*
X767151Y1195332D01*
X755468D01*
Y1176268D01*
X765351D01*
X765398Y1176259D01*
X765445Y1176268D01*
X767127D01*
X767432Y1176106D01*
X768185Y1175609D01*
X771251Y1173014D01*
X783379Y1160886D01*
Y952000D01*
X783379Y952000D01*
X783731Y950232D01*
X784733Y948733D01*
X789733Y943733D01*
X791232Y942731D01*
X793000Y942379D01*
X793000Y942379D01*
X822086D01*
X823979Y940486D01*
Y917317D01*
X823924Y916534D01*
X823797Y915524D01*
X823624Y914605D01*
X823407Y913777D01*
X823152Y913039D01*
X822861Y912391D01*
X822540Y911826D01*
X822191Y911340D01*
X821731Y910834D01*
X821653Y910703D01*
X820876Y909927D01*
X819606Y907726D01*
X818948Y905271D01*
Y902729D01*
X819606Y900275D01*
X820876Y898074D01*
X821213Y897737D01*
X821222Y897719D01*
X821661Y897158D01*
X822003Y896616D01*
X822316Y896000D01*
X822596Y895304D01*
X822841Y894528D01*
X823047Y893670D01*
X823206Y892755D01*
X823379Y890847D01*
Y887929D01*
X823379Y887929D01*
X823731Y886161D01*
X824733Y884662D01*
X827662Y881733D01*
X827662Y881733D01*
X829161Y880731D01*
X830929Y880379D01*
X854581D01*
X854712Y879110D01*
X853619Y878381D01*
X849619Y874381D01*
X848890Y873288D01*
X848633Y872000D01*
Y841882D01*
X848118Y841367D01*
X832000D01*
X830712Y841110D01*
X829619Y840381D01*
X829540Y840301D01*
X828367Y840787D01*
Y848605D01*
X841853Y862092D01*
X843230Y862662D01*
X844338Y863770D01*
X844937Y865217D01*
Y866783D01*
X844338Y868230D01*
X843230Y869338D01*
X841783Y869937D01*
X840217D01*
X838770Y869338D01*
X837662Y868230D01*
X837092Y866853D01*
X822619Y852381D01*
X821890Y851288D01*
X821633Y850000D01*
Y844731D01*
X820363Y844204D01*
X820230Y844338D01*
X818783Y844937D01*
X817217D01*
X815840Y844367D01*
X790000D01*
X788712Y844110D01*
X787619Y843381D01*
X779619Y835381D01*
X778890Y834288D01*
X778633Y833000D01*
Y831160D01*
X778063Y829783D01*
Y828217D01*
X778662Y826770D01*
X779770Y825662D01*
X781217Y825063D01*
X782783D01*
X784230Y825662D01*
X785338Y826770D01*
X785937Y828217D01*
Y829783D01*
X785367Y831160D01*
Y831606D01*
X791395Y837633D01*
X815840D01*
X817217Y837063D01*
X818783D01*
X820230Y837662D01*
X820363Y837795D01*
X821633Y837270D01*
Y786545D01*
X820363Y785697D01*
X819783Y785937D01*
X818217D01*
X816770Y785338D01*
X815662Y784230D01*
X815063Y782783D01*
Y781217D01*
X815633Y779840D01*
Y758882D01*
X813118Y756367D01*
X800421D01*
X800168Y757637D01*
X800230Y757662D01*
X801338Y758770D01*
X801937Y760217D01*
Y761783D01*
X801338Y763230D01*
X800230Y764338D01*
X798853Y764908D01*
X793367Y770395D01*
Y820605D01*
X797824Y825063D01*
X798783D01*
X800230Y825662D01*
X801338Y826770D01*
X801937Y828217D01*
Y829783D01*
X801338Y831230D01*
X800770Y831798D01*
X800381Y832381D01*
X799288Y833110D01*
X798000Y833367D01*
X796712Y833110D01*
X795619Y832381D01*
X787619Y824381D01*
X786890Y823288D01*
X786633Y822000D01*
Y769000D01*
X786890Y767712D01*
X787619Y766619D01*
X794092Y760147D01*
X794662Y758770D01*
X795770Y757662D01*
X795832Y757637D01*
X795579Y756367D01*
X791395D01*
X785908Y761853D01*
X785338Y763230D01*
X784230Y764338D01*
X782783Y764937D01*
X781217D01*
X779770Y764338D01*
X778662Y763230D01*
X778063Y761783D01*
Y760217D01*
X778662Y758770D01*
X779770Y757662D01*
X781147Y757092D01*
X787619Y750619D01*
X788712Y749890D01*
X790000Y749633D01*
X814512D01*
X815800Y749890D01*
X816893Y750619D01*
X820363Y754090D01*
X821633Y753564D01*
Y713394D01*
X816349Y708111D01*
X815620Y707018D01*
X815363Y705730D01*
Y619270D01*
X815620Y617982D01*
X816063Y617318D01*
Y617217D01*
X816662Y615770D01*
X817770Y614662D01*
X819217Y614063D01*
X820783D01*
X822230Y614662D01*
X823338Y615770D01*
X823937Y617217D01*
Y618783D01*
X823338Y620230D01*
X822230Y621338D01*
X822097Y621393D01*
Y695384D01*
X823153Y696090D01*
X823217Y696063D01*
X824783D01*
X826230Y696662D01*
X827338Y697770D01*
X827908Y699147D01*
X830847Y702086D01*
X831577Y703179D01*
X831834Y704467D01*
Y833072D01*
X833394Y834633D01*
X849512D01*
X850800Y834890D01*
X851893Y835619D01*
X854381Y838107D01*
X855110Y839200D01*
X855367Y840488D01*
Y870605D01*
X857394Y872633D01*
X872840D01*
X874217Y872063D01*
X875783D01*
X877230Y872662D01*
X878338Y873770D01*
X878937Y875217D01*
Y876783D01*
X878338Y878230D01*
X877459Y879109D01*
X877732Y880183D01*
X877848Y880379D01*
X972071D01*
X972071Y880379D01*
X973839Y880731D01*
X975339Y881733D01*
X978267Y884661D01*
X978267Y884662D01*
X979269Y886161D01*
X979621Y887929D01*
Y999086D01*
X979703Y999168D01*
X980204Y999569D01*
X980849Y1000007D01*
X981512Y1000383D01*
X982195Y1000700D01*
X982903Y1000960D01*
X983638Y1001162D01*
X984403Y1001308D01*
X985042Y1001379D01*
X990000D01*
X990652Y1001509D01*
X991633Y1000703D01*
Y728160D01*
X991063Y726783D01*
Y725217D01*
X991662Y723770D01*
X992770Y722662D01*
X994217Y722063D01*
X995783D01*
X997230Y722662D01*
X997363Y722795D01*
X998633Y722270D01*
Y702160D01*
X998063Y700783D01*
Y699217D01*
X998662Y697770D01*
X998903Y697529D01*
Y643148D01*
X998712Y643110D01*
X997619Y642381D01*
X996890Y641288D01*
X996633Y640000D01*
X996890Y638712D01*
X997619Y637619D01*
X998712Y636890D01*
X998903Y636852D01*
Y570149D01*
X998712Y570110D01*
X997619Y569381D01*
X996890Y568288D01*
X996633Y567000D01*
X996890Y565712D01*
X997619Y564619D01*
X998619Y563619D01*
X999202Y563230D01*
X999770Y562662D01*
X1001217Y562063D01*
X1002783D01*
X1004230Y562662D01*
X1005338Y563770D01*
X1005937Y565217D01*
Y566783D01*
X1005637Y567508D01*
Y638492D01*
X1005937Y639217D01*
Y640783D01*
X1005637Y641508D01*
Y698492D01*
X1005937Y699217D01*
Y700783D01*
X1005367Y702160D01*
Y1020688D01*
X1006637Y1021168D01*
X1007730Y1020715D01*
Y1025000D01*
Y1029285D01*
X1006637Y1028832D01*
X1005367Y1029312D01*
Y1036000D01*
X1005110Y1037288D01*
X1004381Y1038381D01*
X1000381Y1042381D01*
X999288Y1043110D01*
X998000Y1043367D01*
X994505D01*
X993937Y1044217D01*
Y1045783D01*
X993338Y1047230D01*
X992230Y1048338D01*
X990783Y1048937D01*
X989217D01*
X987840Y1048367D01*
X944367D01*
Y1052076D01*
X945637Y1052602D01*
X946619Y1051619D01*
X947712Y1050890D01*
X949000Y1050633D01*
X1036606D01*
X1040633Y1046606D01*
Y784000D01*
X1040890Y782712D01*
X1041619Y781619D01*
X1046619Y776619D01*
X1047712Y775890D01*
X1049000Y775633D01*
X1084605D01*
X1086633Y773605D01*
Y763160D01*
X1086063Y761783D01*
Y760217D01*
X1086662Y758770D01*
X1087230Y758202D01*
X1087619Y757619D01*
X1088712Y756890D01*
X1090000Y756633D01*
X1091288Y756890D01*
X1092381Y757619D01*
X1092770Y758202D01*
X1093338Y758770D01*
X1093937Y760217D01*
Y761783D01*
X1093367Y763160D01*
Y775000D01*
X1093110Y776288D01*
X1092381Y777381D01*
X1088381Y781381D01*
X1087288Y782110D01*
X1086000Y782367D01*
X1050395D01*
X1047367Y785395D01*
Y974771D01*
X1048637Y975297D01*
X1049761Y974173D01*
X1051707Y973049D01*
X1053877Y972468D01*
X1056123D01*
X1058293Y973049D01*
X1060239Y974173D01*
X1061827Y975761D01*
X1062951Y977707D01*
X1063400Y979386D01*
X1063432Y979460D01*
X1063468Y979639D01*
X1063532Y979877D01*
Y979951D01*
X1063617Y980370D01*
X1063833Y981189D01*
X1064091Y981975D01*
X1064389Y982729D01*
X1064728Y983451D01*
X1065108Y984144D01*
X1065530Y984808D01*
X1065995Y985446D01*
X1066503Y986059D01*
X1066520Y986077D01*
X1081506Y1001063D01*
X1081783D01*
X1083230Y1001662D01*
X1084338Y1002770D01*
X1084937Y1004217D01*
Y1005783D01*
X1084338Y1007230D01*
X1083230Y1008338D01*
X1081783Y1008937D01*
X1080217D01*
X1078770Y1008338D01*
X1077662Y1007230D01*
X1077317Y1006397D01*
X1062173Y991253D01*
X1062035Y991124D01*
X1061410Y990624D01*
X1060797Y990212D01*
X1060197Y989884D01*
X1060117Y989850D01*
X1059886Y989916D01*
X1059719Y991286D01*
X1060551Y991766D01*
X1062234Y993449D01*
X1063424Y995511D01*
X1064019Y997730D01*
X1055000D01*
Y999000D01*
X1053730D01*
Y1008019D01*
X1051511Y1007424D01*
X1049449Y1006234D01*
X1048637Y1005421D01*
X1047367Y1005947D01*
Y1018053D01*
X1048637Y1018579D01*
X1049449Y1017766D01*
X1051511Y1016576D01*
X1053730Y1015981D01*
Y1025000D01*
X1055000D01*
Y1026270D01*
X1064019D01*
X1063596Y1027847D01*
X1064735Y1028504D01*
X1070619Y1022619D01*
X1071712Y1021890D01*
X1073000Y1021633D01*
X1078840D01*
X1080217Y1021063D01*
X1081783D01*
X1083230Y1021662D01*
X1084338Y1022770D01*
X1084937Y1024217D01*
Y1025783D01*
X1084338Y1027230D01*
X1083230Y1028338D01*
X1081783Y1028937D01*
X1080217D01*
X1078840Y1028367D01*
X1074395D01*
X1065980Y1036781D01*
X1065891Y1036877D01*
X1065383Y1037502D01*
X1064944Y1038133D01*
X1064569Y1038773D01*
X1064257Y1039423D01*
X1064005Y1040084D01*
X1063811Y1040760D01*
X1063675Y1041455D01*
X1063595Y1042172D01*
X1063571Y1042996D01*
X1063532Y1043164D01*
Y1044123D01*
X1062951Y1046293D01*
X1061827Y1048239D01*
X1060239Y1049827D01*
X1058293Y1050951D01*
X1056123Y1051532D01*
X1053877D01*
X1051707Y1050951D01*
X1049761Y1049827D01*
X1048541Y1048607D01*
X1047246Y1048904D01*
X1047177Y1048954D01*
X1047110Y1049288D01*
X1046381Y1050381D01*
X1044171Y1052590D01*
X1044657Y1053763D01*
X1113783D01*
X1113877Y1052532D01*
X1111707Y1051951D01*
X1109761Y1050827D01*
X1108173Y1049239D01*
X1107049Y1047293D01*
X1106468Y1045123D01*
Y1042877D01*
X1107049Y1040707D01*
X1108173Y1038761D01*
X1109761Y1037173D01*
X1111707Y1036049D01*
X1113877Y1035468D01*
X1116123D01*
X1118293Y1036049D01*
X1120239Y1037173D01*
X1121827Y1038761D01*
X1122951Y1040707D01*
X1123532Y1042877D01*
Y1045123D01*
X1122951Y1047293D01*
X1121827Y1049239D01*
X1120239Y1050827D01*
X1118293Y1051951D01*
X1116123Y1052532D01*
X1116217Y1053763D01*
X1122130D01*
X1123418Y1054019D01*
X1124511Y1054749D01*
X1126381Y1056619D01*
X1127110Y1057712D01*
X1127367Y1059000D01*
Y1149840D01*
X1127937Y1151217D01*
Y1152783D01*
X1127338Y1154230D01*
X1126230Y1155338D01*
X1124783Y1155937D01*
X1123217D01*
X1121770Y1155338D01*
X1120662Y1154230D01*
X1120063Y1152783D01*
Y1151217D01*
X1120633Y1149840D01*
Y1060497D01*
X1076177D01*
X1075723Y1061767D01*
X1077102Y1062898D01*
X1079230Y1065492D01*
X1080812Y1068451D01*
X1081786Y1071661D01*
X1082114Y1075000D01*
Y1145000D01*
X1081786Y1148339D01*
X1080812Y1151549D01*
X1079230Y1154508D01*
X1077102Y1157102D01*
X1074508Y1159230D01*
X1071549Y1160812D01*
X1068339Y1161786D01*
X1065000Y1162114D01*
X1038639D01*
X1030262Y1170492D01*
Y1179444D01*
X1029814Y1182846D01*
X1028501Y1186016D01*
X1026412Y1188738D01*
X1010856Y1204295D01*
X1008133Y1206383D01*
X1004963Y1207697D01*
X1001561Y1208144D01*
X952540D01*
Y1218730D01*
X907460D01*
Y1206960D01*
X907968D01*
Y1182468D01*
Y1160414D01*
X895704D01*
X874324Y1181795D01*
X874810Y1182968D01*
X892532D01*
Y1227032D01*
X843040D01*
Y1227540D01*
X831270D01*
Y1205000D01*
Y1182460D01*
X842355D01*
Y1182029D01*
X842803Y1178627D01*
X844117Y1175457D01*
X846206Y1172735D01*
X846304Y1172637D01*
X845778Y1171367D01*
X817395D01*
X815420Y1173341D01*
Y1181860D01*
X815442Y1182451D01*
X815489Y1182884D01*
X815504Y1182968D01*
X816960D01*
Y1182460D01*
X828730D01*
Y1205000D01*
Y1227540D01*
X816960D01*
Y1227032D01*
X810286D01*
X810255Y1227084D01*
X810092Y1227485D01*
X809923Y1228105D01*
X809782Y1228898D01*
X809621Y1230835D01*
Y1241000D01*
X809269Y1242768D01*
X808267Y1244267D01*
X808267Y1244268D01*
X801238Y1251296D01*
X799739Y1252298D01*
X797971Y1252650D01*
X797971Y1252650D01*
X773603D01*
X773391Y1253920D01*
X773703Y1254026D01*
X774516Y1254236D01*
X775392Y1254399D01*
X777279Y1254579D01*
X837200D01*
X837200Y1254579D01*
X838968Y1254931D01*
X840467Y1255933D01*
X858914Y1274379D01*
X903799D01*
X905085Y1274333D01*
X906090Y1274223D01*
X906928Y1274076D01*
X907566Y1273906D01*
X907984Y1273739D01*
X908081Y1273681D01*
X908149Y1273164D01*
X908858Y1271454D01*
X909985Y1269985D01*
X911454Y1268858D01*
X913164Y1268149D01*
X915000Y1267907D01*
X945000D01*
X946836Y1268149D01*
X948546Y1268858D01*
X950015Y1269985D01*
X951142Y1271454D01*
X951851Y1273164D01*
X952093Y1275000D01*
Y1285000D01*
X951851Y1286836D01*
X951142Y1288546D01*
X950015Y1290015D01*
X948546Y1291142D01*
X946836Y1291851D01*
X945000Y1292093D01*
X915000D01*
X913164Y1291851D01*
X911454Y1291142D01*
X909985Y1290015D01*
X908858Y1288546D01*
X908149Y1286836D01*
X907907Y1285000D01*
Y1284266D01*
X907887Y1284254D01*
X907488Y1284092D01*
X906869Y1283923D01*
X906074Y1283782D01*
X904129Y1283621D01*
X857000D01*
X857000Y1283621D01*
X855232Y1283269D01*
X853733Y1282267D01*
X835286Y1263821D01*
X777167D01*
X776415Y1263873D01*
X775420Y1263996D01*
X774516Y1264164D01*
X773703Y1264374D01*
X772981Y1264621D01*
X772349Y1264901D01*
X771803Y1265210D01*
X771335Y1265544D01*
X770846Y1265986D01*
X770716Y1266064D01*
X769953Y1266827D01*
X767779Y1268082D01*
X765355Y1268732D01*
X762845D01*
X760421Y1268082D01*
X758891Y1267199D01*
X757621Y1267932D01*
Y1275868D01*
X758891Y1276601D01*
X760421Y1275718D01*
X762845Y1275068D01*
X765355D01*
X767779Y1275718D01*
X769953Y1276973D01*
X770716Y1277736D01*
X770846Y1277814D01*
X771335Y1278257D01*
X771802Y1278590D01*
X772349Y1278899D01*
X772981Y1279179D01*
X773703Y1279426D01*
X774516Y1279636D01*
X775392Y1279799D01*
X777279Y1279979D01*
X834671D01*
X834671Y1279979D01*
X836439Y1280331D01*
X837938Y1281333D01*
X846267Y1289662D01*
X846267Y1289662D01*
X847269Y1291161D01*
X847621Y1292929D01*
X847621Y1292929D01*
Y1305280D01*
X848891Y1305959D01*
X849232Y1305731D01*
X851000Y1305379D01*
X966933D01*
X967685Y1305327D01*
X968680Y1305204D01*
X969584Y1305036D01*
X970397Y1304826D01*
X971119Y1304579D01*
X971751Y1304299D01*
X972298Y1303990D01*
X972765Y1303656D01*
X973254Y1303214D01*
X973383Y1303136D01*
X974147Y1302372D01*
X976321Y1301118D01*
X978745Y1300468D01*
X981255D01*
X983679Y1301118D01*
X985853Y1302372D01*
X987627Y1304147D01*
X988882Y1306321D01*
X989532Y1308745D01*
Y1311255D01*
X988882Y1313679D01*
X987627Y1315853D01*
X985853Y1317628D01*
X983679Y1318882D01*
X981255Y1319532D01*
X978745D01*
X976321Y1318882D01*
X974147Y1317628D01*
X973383Y1316864D01*
X973254Y1316786D01*
X972765Y1316344D01*
X972298Y1316010D01*
X971751Y1315701D01*
X971119Y1315421D01*
X970397Y1315174D01*
X969584Y1314964D01*
X968708Y1314801D01*
X966821Y1314621D01*
X851000D01*
X849232Y1314269D01*
X848891Y1314041D01*
X847621Y1314720D01*
Y1356086D01*
X856914Y1365379D01*
X903780D01*
X905046Y1365332D01*
X906032Y1365224D01*
X906853Y1365077D01*
X907473Y1364909D01*
X907875Y1364746D01*
X907947Y1364702D01*
X908149Y1363164D01*
X908858Y1361454D01*
X909985Y1359985D01*
X911454Y1358858D01*
X913164Y1358149D01*
X915000Y1357907D01*
X945000D01*
X945664Y1357995D01*
X946257Y1356792D01*
X941086Y1351621D01*
X896000D01*
X894232Y1351269D01*
X892733Y1350267D01*
X891731Y1348768D01*
X891379Y1347000D01*
X891731Y1345232D01*
X892733Y1343733D01*
X894232Y1342731D01*
X896000Y1342379D01*
X943000D01*
X943000Y1342379D01*
X944768Y1342731D01*
X946267Y1343733D01*
X958714Y1356179D01*
X966933D01*
X967685Y1356127D01*
X968680Y1356004D01*
X969584Y1355836D01*
X970397Y1355626D01*
X971119Y1355379D01*
X971751Y1355099D01*
X972298Y1354790D01*
X972765Y1354456D01*
X973254Y1354014D01*
X973383Y1353936D01*
X974147Y1353172D01*
X976321Y1351918D01*
X978745Y1351268D01*
X981255D01*
X983679Y1351918D01*
X985853Y1353172D01*
X987627Y1354947D01*
X988882Y1357121D01*
X989532Y1359545D01*
Y1362055D01*
X988882Y1364479D01*
X987627Y1366653D01*
X985853Y1368427D01*
X983679Y1369682D01*
X981255Y1370332D01*
X978745D01*
X976321Y1369682D01*
X974147Y1368427D01*
X973383Y1367664D01*
X973254Y1367586D01*
X972765Y1367144D01*
X972298Y1366810D01*
X971751Y1366501D01*
X971119Y1366221D01*
X970397Y1365974D01*
X969584Y1365764D01*
X968708Y1365601D01*
X966821Y1365421D01*
X956800D01*
X956800Y1365421D01*
X955032Y1365069D01*
X953533Y1364067D01*
X953532Y1364067D01*
X953208Y1363743D01*
X952005Y1364336D01*
X952093Y1365000D01*
Y1375000D01*
X951851Y1376836D01*
X951142Y1378546D01*
X950015Y1380015D01*
X948546Y1381142D01*
X946836Y1381851D01*
X945000Y1382093D01*
X915327D01*
X915312Y1382103D01*
X914728Y1382856D01*
X914564Y1383316D01*
X914937Y1384217D01*
Y1385783D01*
X914338Y1387230D01*
X913230Y1388338D01*
X912419Y1388673D01*
X908601Y1392492D01*
Y1405123D01*
X908327Y1406501D01*
X907546Y1407669D01*
X906906Y1408310D01*
X906428Y1408889D01*
X906040Y1409443D01*
X905756Y1409943D01*
X905566Y1410382D01*
X905458Y1410757D01*
X905416Y1411073D01*
X905423Y1411346D01*
X905473Y1411601D01*
X905600Y1411939D01*
X905794Y1412274D01*
X906452Y1414729D01*
Y1417271D01*
X905794Y1419725D01*
X904523Y1421926D01*
X902727Y1423723D01*
X900526Y1424994D01*
X898071Y1425652D01*
X895529D01*
X893074Y1424994D01*
X890874Y1423723D01*
X889077Y1421926D01*
X887806Y1419725D01*
X887148Y1417271D01*
Y1414729D01*
X887806Y1412274D01*
X889077Y1410074D01*
X890874Y1408277D01*
X893074Y1407006D01*
X895529Y1406348D01*
X896057D01*
X896092Y1406337D01*
X896690Y1406267D01*
X897205Y1406152D01*
X897753Y1405973D01*
X898337Y1405724D01*
X898955Y1405401D01*
X899604Y1405001D01*
X900261Y1404538D01*
X901399Y1403587D01*
Y1391000D01*
X901673Y1389622D01*
X902454Y1388454D01*
X907327Y1383581D01*
X907662Y1382770D01*
X908770Y1381662D01*
X909598Y1381319D01*
X909834Y1380524D01*
X909888Y1379890D01*
X908858Y1378546D01*
X908149Y1376836D01*
X907947Y1375298D01*
X907875Y1375254D01*
X907473Y1375091D01*
X906853Y1374923D01*
X906060Y1374781D01*
X904123Y1374621D01*
X867961D01*
X867610Y1375247D01*
X867497Y1375891D01*
X874667Y1383062D01*
X875669Y1384561D01*
X876021Y1386329D01*
X876021Y1386329D01*
Y1402683D01*
X876076Y1403466D01*
X876203Y1404476D01*
X876376Y1405395D01*
X876593Y1406223D01*
X876848Y1406961D01*
X877139Y1407610D01*
X877460Y1408174D01*
X877809Y1408660D01*
X878269Y1409167D01*
X878347Y1409297D01*
X879124Y1410074D01*
X880394Y1412274D01*
X881052Y1414729D01*
Y1417271D01*
X880394Y1419725D01*
X879124Y1421926D01*
X877327Y1423723D01*
X875126Y1424994D01*
X872671Y1425652D01*
X870129D01*
X867674Y1424994D01*
X865474Y1423723D01*
X863677Y1421926D01*
X862406Y1419725D01*
X861748Y1417271D01*
Y1414729D01*
X862406Y1412274D01*
X863677Y1410074D01*
X864453Y1409297D01*
X864531Y1409167D01*
X864991Y1408660D01*
X865340Y1408174D01*
X865661Y1407610D01*
X865952Y1406961D01*
X866208Y1406223D01*
X866424Y1405395D01*
X866592Y1404504D01*
X866779Y1402575D01*
Y1388243D01*
X862157Y1383621D01*
X850000D01*
X850000Y1383621D01*
X848232Y1383269D01*
X846733Y1382267D01*
X846733Y1382267D01*
X831733Y1367267D01*
X830731Y1365768D01*
X830379Y1364000D01*
X830379Y1364000D01*
Y1305914D01*
X826086Y1301621D01*
X770997D01*
X770471Y1302891D01*
X771728Y1304147D01*
X772982Y1306321D01*
X773632Y1308745D01*
Y1311255D01*
X772982Y1313679D01*
X771728Y1315853D01*
X769953Y1317628D01*
X767779Y1318882D01*
X765355Y1319532D01*
X762845D01*
X760421Y1318882D01*
X758247Y1317628D01*
X756472Y1315853D01*
X756089Y1315189D01*
X756020Y1315124D01*
X755745Y1314739D01*
X755515Y1314497D01*
X755231Y1314270D01*
X754880Y1314057D01*
X754452Y1313861D01*
X753938Y1313687D01*
X753335Y1313542D01*
X752643Y1313434D01*
X751873Y1313367D01*
X751000D01*
X749712Y1313110D01*
X748619Y1312381D01*
X746637Y1310398D01*
X745367Y1310924D01*
Y1327605D01*
X749794Y1332033D01*
X749865D01*
X750166Y1332023D01*
X751083Y1331921D01*
X751961Y1331753D01*
X752803Y1331520D01*
X753611Y1331221D01*
X754390Y1330857D01*
X755142Y1330425D01*
X755871Y1329923D01*
X756578Y1329348D01*
X757318Y1328647D01*
X757467Y1328553D01*
X758247Y1327773D01*
X760421Y1326518D01*
X762845Y1325868D01*
X765355D01*
X767779Y1326518D01*
X769953Y1327773D01*
X771728Y1329547D01*
X772982Y1331721D01*
X773632Y1334145D01*
Y1336655D01*
X772982Y1339079D01*
X771728Y1341253D01*
X769953Y1343027D01*
X767779Y1344282D01*
X765355Y1344932D01*
X762845D01*
X760421Y1344282D01*
X758247Y1343027D01*
X757467Y1342247D01*
X757318Y1342153D01*
X756578Y1341452D01*
X755871Y1340877D01*
X755142Y1340375D01*
X754390Y1339943D01*
X753611Y1339579D01*
X752803Y1339280D01*
X751961Y1339047D01*
X751083Y1338879D01*
X750166Y1338777D01*
X749865Y1338767D01*
X748400D01*
X747112Y1338510D01*
X746019Y1337781D01*
X739619Y1331381D01*
X738890Y1330288D01*
X738633Y1329000D01*
Y1101000D01*
X738890Y1099712D01*
X739619Y1098619D01*
X751633Y1086606D01*
Y1081750D01*
X750363Y1081342D01*
X748489Y1082424D01*
X746270Y1083019D01*
Y1074000D01*
X743730D01*
Y1083019D01*
X741511Y1082424D01*
X739449Y1081234D01*
X738270Y1080054D01*
X737000Y1080581D01*
Y1417000D01*
Y1418970D01*
X737769Y1422834D01*
X739276Y1426474D01*
X741465Y1429749D01*
X744251Y1432535D01*
X747526Y1434724D01*
X751166Y1436231D01*
X755030Y1437000D01*
X1118970D01*
X1122834Y1436231D01*
D02*
G37*
G36*
X758744Y1330150D02*
X757946Y1330906D01*
X757114Y1331583D01*
X756247Y1332180D01*
X755346Y1332697D01*
X754409Y1333135D01*
X753438Y1333493D01*
X752433Y1333772D01*
X751393Y1333971D01*
X750318Y1334090D01*
X749208Y1334130D01*
Y1336670D01*
X750318Y1336710D01*
X751393Y1336829D01*
X752433Y1337028D01*
X753438Y1337307D01*
X754409Y1337665D01*
X755346Y1338103D01*
X756247Y1338620D01*
X757114Y1339217D01*
X757946Y1339894D01*
X758744Y1340650D01*
Y1330150D01*
D02*
G37*
G36*
X757706Y1306080D02*
X757346Y1306584D01*
X756918Y1307034D01*
X756420Y1307431D01*
X755853Y1307776D01*
X755217Y1308067D01*
X754512Y1308306D01*
X753738Y1308492D01*
X752894Y1308624D01*
X751982Y1308703D01*
X751000Y1308730D01*
Y1311270D01*
X751982Y1311297D01*
X752894Y1311376D01*
X753738Y1311508D01*
X754512Y1311694D01*
X755217Y1311933D01*
X755853Y1312224D01*
X756420Y1312569D01*
X756918Y1312966D01*
X757346Y1313416D01*
X757706Y1313920D01*
Y1306080D01*
D02*
G37*
G36*
X974644Y1304750D02*
X974067Y1305273D01*
X973413Y1305740D01*
X972682Y1306152D01*
X971876Y1306510D01*
X970992Y1306812D01*
X970033Y1307060D01*
X968997Y1307253D01*
X967884Y1307390D01*
X966695Y1307473D01*
X965429Y1307500D01*
Y1312500D01*
X966695Y1312527D01*
X968997Y1312747D01*
X970033Y1312940D01*
X970992Y1313188D01*
X971876Y1313490D01*
X972682Y1313848D01*
X973413Y1314260D01*
X974067Y1314727D01*
X974644Y1315250D01*
Y1304750D01*
D02*
G37*
G36*
X838379Y1299048D02*
Y1294843D01*
X832757Y1289221D01*
X777167D01*
X776415Y1289273D01*
X775420Y1289396D01*
X774516Y1289564D01*
X773703Y1289774D01*
X772981Y1290021D01*
X772349Y1290301D01*
X771803Y1290609D01*
X771335Y1290943D01*
X771152Y1291109D01*
X771533Y1292313D01*
X771597Y1292379D01*
X828000D01*
X828000Y1292379D01*
X829768Y1292731D01*
X831267Y1293733D01*
X837109Y1299574D01*
X838379Y1299048D01*
D02*
G37*
G36*
X770033Y1289328D02*
X770687Y1288860D01*
X771417Y1288448D01*
X772224Y1288090D01*
X773108Y1287787D01*
X774067Y1287540D01*
X775104Y1287348D01*
X776216Y1287210D01*
X777405Y1287128D01*
X778671Y1287100D01*
Y1282100D01*
X777405Y1282072D01*
X775104Y1281853D01*
X774067Y1281660D01*
X773108Y1281413D01*
X772224Y1281110D01*
X771417Y1280753D01*
X770687Y1280340D01*
X770033Y1279873D01*
X769456Y1279350D01*
Y1289850D01*
X770033Y1289328D01*
D02*
G37*
G36*
X910150Y1274004D02*
X910067Y1274478D01*
X909833Y1274903D01*
X909446Y1275277D01*
X908908Y1275601D01*
X908218Y1275876D01*
X907375Y1276101D01*
X906381Y1276275D01*
X905235Y1276400D01*
X902488Y1276500D01*
Y1281500D01*
X903924Y1281525D01*
X906342Y1281725D01*
X907323Y1281900D01*
X908152Y1282125D01*
X908829Y1282400D01*
X909354Y1282725D01*
X909727Y1283100D01*
X909949Y1283525D01*
X910018Y1284000D01*
X910150Y1274004D01*
D02*
G37*
G36*
X770033Y1263928D02*
X770687Y1263460D01*
X771417Y1263047D01*
X772224Y1262690D01*
X773108Y1262387D01*
X774067Y1262140D01*
X775104Y1261947D01*
X776216Y1261810D01*
X777405Y1261728D01*
X778671Y1261700D01*
Y1256700D01*
X777405Y1256673D01*
X775104Y1256452D01*
X774067Y1256260D01*
X773108Y1256012D01*
X772224Y1255710D01*
X771417Y1255352D01*
X770687Y1254940D01*
X770033Y1254473D01*
X769456Y1253950D01*
Y1264450D01*
X770033Y1263928D01*
D02*
G37*
G36*
X807525Y1231039D02*
X807725Y1228629D01*
X807900Y1227650D01*
X808125Y1226822D01*
X808400Y1226144D01*
X808725Y1225617D01*
X809100Y1225240D01*
X809525Y1225014D01*
X810000Y1224939D01*
X800000D01*
X800475Y1225014D01*
X800900Y1225240D01*
X801275Y1225617D01*
X801600Y1226144D01*
X801875Y1226822D01*
X802100Y1227650D01*
X802275Y1228629D01*
X802400Y1229759D01*
X802500Y1232469D01*
X807500D01*
X807525Y1231039D01*
D02*
G37*
G36*
X794561Y1210000D02*
Y1201000D01*
X794486Y1201475D01*
X794260Y1201900D01*
X793883Y1202275D01*
X793356Y1202600D01*
X792678Y1202875D01*
X791850Y1203100D01*
X790871Y1203275D01*
X789741Y1203400D01*
X787030Y1203500D01*
Y1208500D01*
X788461Y1208525D01*
X790871Y1208725D01*
X791850Y1208900D01*
X792678Y1209125D01*
X793356Y1209400D01*
X793883Y1209725D01*
X794260Y1210100D01*
X794472Y1210500D01*
X794260Y1210900D01*
X793883Y1211275D01*
X793356Y1211600D01*
X792678Y1211875D01*
X791850Y1212100D01*
X790871Y1212275D01*
X789741Y1212400D01*
X787030Y1212500D01*
Y1217500D01*
X788461Y1217525D01*
X790871Y1217725D01*
X791850Y1217900D01*
X792678Y1218125D01*
X793356Y1218400D01*
X793883Y1218725D01*
X794260Y1219100D01*
X794486Y1219525D01*
X794561Y1220000D01*
Y1210000D01*
D02*
G37*
G36*
X777773Y1195037D02*
X776444Y1193673D01*
X773518Y1190222D01*
X772896Y1189284D01*
X772451Y1188454D01*
X772183Y1187730D01*
X772092Y1187113D01*
X772177Y1186602D01*
X772439Y1186198D01*
X765398Y1193239D01*
X765802Y1192977D01*
X766313Y1192892D01*
X766930Y1192983D01*
X767654Y1193251D01*
X768484Y1193696D01*
X769422Y1194318D01*
X770465Y1195117D01*
X772873Y1197244D01*
X774237Y1198573D01*
X777773Y1195037D01*
D02*
G37*
G36*
X813727Y1196036D02*
X813643Y1195805D01*
X813568Y1195485D01*
X813503Y1195078D01*
X813403Y1194001D01*
X813328Y1191727D01*
X813323Y1190793D01*
X810783D01*
X810778Y1191727D01*
X810539Y1195485D01*
X810464Y1195805D01*
X810379Y1196036D01*
X810284Y1196180D01*
X813822D01*
X813727Y1196036D01*
D02*
G37*
G36*
X814352Y1185023D02*
X814136Y1184907D01*
X813946Y1184715D01*
X813781Y1184446D01*
X813641Y1184101D01*
X813527Y1183678D01*
X813438Y1183179D01*
X813374Y1182603D01*
X813323Y1181220D01*
X810783D01*
X810771Y1181950D01*
X810669Y1183179D01*
X810580Y1183678D01*
X810466Y1184101D01*
X810326Y1184446D01*
X810161Y1184715D01*
X809970Y1184907D01*
X809755Y1185023D01*
X809513Y1185061D01*
X814593D01*
X814352Y1185023D01*
D02*
G37*
G36*
X772204Y1184995D02*
X772116Y1184482D01*
X772204Y1183864D01*
X772469Y1183139D01*
X772911Y1182308D01*
X773530Y1181371D01*
X774326Y1180328D01*
X776447Y1177924D01*
X777773Y1176563D01*
X774237Y1173027D01*
X772876Y1174353D01*
X769429Y1177270D01*
X768492Y1177889D01*
X767661Y1178331D01*
X766936Y1178596D01*
X766318Y1178684D01*
X765805Y1178596D01*
X765398Y1178331D01*
X772469Y1185402D01*
X772204Y1184995D01*
D02*
G37*
G36*
X789589Y1201332D02*
X790574Y1201223D01*
X791395Y1201077D01*
X792015Y1200908D01*
X792416Y1200745D01*
X792468Y1200714D01*
Y1182968D01*
X808602D01*
X808612Y1182912D01*
X808687Y1182012D01*
Y1171947D01*
X808943Y1170658D01*
X809673Y1169566D01*
X813619Y1165619D01*
X814712Y1164890D01*
X816000Y1164633D01*
X845605D01*
X848400Y1161838D01*
X847636Y1160807D01*
X846745Y1161283D01*
X843438Y1162286D01*
X840000Y1162625D01*
X826270D01*
Y1110000D01*
Y1057375D01*
X840000D01*
X843438Y1057714D01*
X846745Y1058717D01*
X849792Y1060346D01*
X852463Y1062537D01*
X854654Y1065208D01*
X856283Y1068255D01*
X856363Y1068519D01*
X857633Y1068331D01*
Y914062D01*
X856626Y913289D01*
X855271Y913652D01*
X852729D01*
X850274Y912994D01*
X848074Y911723D01*
X846276Y909927D01*
X845006Y907726D01*
X844348Y905271D01*
Y902729D01*
X845006Y900275D01*
X846276Y898074D01*
X848074Y896276D01*
X850274Y895006D01*
X852729Y894348D01*
X855271D01*
X857726Y895006D01*
X859926Y896276D01*
X861723Y898074D01*
X862994Y900275D01*
X863652Y902729D01*
Y905271D01*
X862994Y907726D01*
X862790Y908080D01*
X862860Y908159D01*
X863381Y908680D01*
X864110Y909772D01*
X864367Y911060D01*
Y984579D01*
X865637Y984832D01*
X865662Y984770D01*
X866770Y983662D01*
X868217Y983063D01*
X869783D01*
X871230Y983662D01*
X872338Y984770D01*
X872937Y986217D01*
Y987783D01*
X872367Y989160D01*
Y1012840D01*
X872937Y1014217D01*
Y1015783D01*
X872338Y1017230D01*
X871230Y1018338D01*
X869783Y1018937D01*
X868217D01*
X866770Y1018338D01*
X865662Y1017230D01*
X865637Y1017168D01*
X864367Y1017421D01*
Y1127118D01*
X866882Y1129633D01*
X868455D01*
X869303Y1128363D01*
X869063Y1127783D01*
Y1126217D01*
X869662Y1124770D01*
X870770Y1123662D01*
X872043Y1123135D01*
X872103Y1122724D01*
Y1122276D01*
X872043Y1121865D01*
X870770Y1121338D01*
X869662Y1120230D01*
X869063Y1118783D01*
Y1117217D01*
X869662Y1115770D01*
X870770Y1114662D01*
X872217Y1114063D01*
X872763D01*
X876033Y1110792D01*
Y918482D01*
X876022Y918162D01*
X875918Y917231D01*
X875746Y916339D01*
X875507Y915482D01*
X875202Y914658D01*
X874828Y913863D01*
X874386Y913094D01*
X873871Y912349D01*
X873281Y911625D01*
X872563Y910868D01*
X872469Y910719D01*
X871676Y909927D01*
X870406Y907726D01*
X869748Y905271D01*
Y902729D01*
X870406Y900275D01*
X871676Y898074D01*
X873474Y896276D01*
X875674Y895006D01*
X878129Y894348D01*
X880671D01*
X883126Y895006D01*
X885326Y896276D01*
X887123Y898074D01*
X888394Y900275D01*
X889052Y902729D01*
Y905271D01*
X888394Y907726D01*
X887123Y909927D01*
X886331Y910719D01*
X886237Y910868D01*
X885519Y911625D01*
X884929Y912349D01*
X884414Y913094D01*
X883972Y913863D01*
X883598Y914658D01*
X883293Y915482D01*
X883054Y916338D01*
X882882Y917231D01*
X882778Y918162D01*
X882767Y918482D01*
Y1112187D01*
X882510Y1113475D01*
X881781Y1114567D01*
X876493Y1119855D01*
X876338Y1120230D01*
X875230Y1121338D01*
X873957Y1121865D01*
X873897Y1122276D01*
Y1122724D01*
X873957Y1123135D01*
X875160Y1123633D01*
X886606D01*
X886633Y1123605D01*
Y1015488D01*
X886890Y1014200D01*
X887619Y1013107D01*
X889107Y1011619D01*
X890200Y1010890D01*
X891488Y1010633D01*
X926833D01*
Y918482D01*
X926822Y918162D01*
X926718Y917231D01*
X926546Y916339D01*
X926307Y915482D01*
X926002Y914658D01*
X925628Y913863D01*
X925185Y913094D01*
X924671Y912349D01*
X924081Y911625D01*
X923363Y910868D01*
X923270Y910719D01*
X922477Y909927D01*
X921206Y907726D01*
X920548Y905271D01*
Y902729D01*
X921206Y900275D01*
X922477Y898074D01*
X924274Y896276D01*
X926474Y895006D01*
X928929Y894348D01*
X931471D01*
X933925Y895006D01*
X936126Y896276D01*
X937924Y898074D01*
X939194Y900275D01*
X939852Y902729D01*
Y905271D01*
X939735Y905708D01*
X940873Y906365D01*
X943189Y904049D01*
X944282Y903320D01*
X945570Y903063D01*
X945948D01*
Y902729D01*
X946606Y900275D01*
X947877Y898074D01*
X949673Y896276D01*
X951874Y895006D01*
X954329Y894348D01*
X956871D01*
X959325Y895006D01*
X961526Y896276D01*
X963324Y898074D01*
X964594Y900275D01*
X965252Y902729D01*
Y905271D01*
X964594Y907726D01*
X963324Y909927D01*
X961526Y911723D01*
X959325Y912994D01*
X956871Y913652D01*
X954329D01*
X951874Y912994D01*
X949673Y911723D01*
X947877Y909927D01*
X946693Y910068D01*
X944367Y912394D01*
Y980269D01*
X945637Y980796D01*
X945770Y980662D01*
X947217Y980063D01*
X948783D01*
X950230Y980662D01*
X951338Y981770D01*
X951937Y983217D01*
Y984783D01*
X951367Y986160D01*
Y1012606D01*
X951381Y1012619D01*
X952110Y1013712D01*
X952367Y1015000D01*
X952110Y1016288D01*
X951381Y1017381D01*
X950798Y1017770D01*
X950230Y1018338D01*
X948783Y1018937D01*
X947217D01*
X945770Y1018338D01*
X945637Y1018204D01*
X944846Y1018396D01*
X944330Y1018694D01*
X944110Y1019800D01*
X943381Y1020893D01*
X941893Y1022381D01*
X940800Y1023110D01*
X939512Y1023367D01*
X915882D01*
X913367Y1025882D01*
Y1097840D01*
X913937Y1099217D01*
Y1100783D01*
X913338Y1102230D01*
X912230Y1103338D01*
X912168Y1103363D01*
X912421Y1104633D01*
X916840D01*
X918217Y1104063D01*
X919783D01*
X921230Y1104662D01*
X922338Y1105770D01*
X922937Y1107217D01*
Y1107506D01*
X924207Y1108032D01*
X925633Y1106606D01*
Y1040000D01*
X925890Y1038712D01*
X926619Y1037619D01*
X931619Y1032619D01*
X932712Y1031890D01*
X934000Y1031633D01*
X952551D01*
X953077Y1030363D01*
X952232Y1029518D01*
X951715Y1028270D01*
X960285D01*
X959768Y1029518D01*
X958923Y1030363D01*
X959449Y1031633D01*
X972579D01*
X972832Y1030363D01*
X972770Y1030338D01*
X971662Y1029230D01*
X971615Y1029116D01*
X970731Y1027793D01*
X970379Y1026024D01*
Y1011000D01*
X970379Y1011000D01*
X970731Y1009232D01*
X971733Y1007733D01*
X972232Y1007234D01*
X972482Y1006876D01*
X972657Y1006526D01*
X972742Y1006242D01*
X972766Y1006000D01*
X972742Y1005758D01*
X972657Y1005474D01*
X972482Y1005124D01*
X972232Y1004766D01*
X971733Y1004267D01*
X970731Y1002768D01*
X970379Y1001000D01*
X970379Y1001000D01*
Y889843D01*
X970157Y889621D01*
X833507D01*
X832646Y890809D01*
X832681Y891283D01*
X832814Y892278D01*
X832994Y893174D01*
X833218Y893970D01*
X833480Y894667D01*
X833775Y895267D01*
X834097Y895777D01*
X834446Y896205D01*
X834513Y896268D01*
X834526Y896276D01*
X834639Y896389D01*
X834919Y896656D01*
X834949Y896700D01*
X836323Y898074D01*
X837594Y900275D01*
X838252Y902729D01*
Y905271D01*
X837594Y907726D01*
X836323Y909927D01*
X835547Y910703D01*
X835469Y910834D01*
X835009Y911340D01*
X834660Y911826D01*
X834339Y912390D01*
X834048Y913039D01*
X833792Y913777D01*
X833576Y914605D01*
X833408Y915496D01*
X833221Y917425D01*
Y942400D01*
X833221Y942400D01*
X832869Y944168D01*
X831867Y945667D01*
X827267Y950267D01*
X825768Y951269D01*
X824000Y951621D01*
X824000Y951621D01*
X794914D01*
X792621Y953914D01*
Y983015D01*
X793302Y983399D01*
X793891Y983612D01*
X795217Y983063D01*
X796783D01*
X798230Y983662D01*
X799338Y984770D01*
X799937Y986217D01*
Y987783D01*
X799367Y989160D01*
Y1041840D01*
X799937Y1043217D01*
Y1044783D01*
X799338Y1046230D01*
X798230Y1047338D01*
X796783Y1047937D01*
X795217D01*
X793891Y1047388D01*
X793302Y1047601D01*
X792621Y1047985D01*
Y1067611D01*
X793891Y1067930D01*
X795346Y1065208D01*
X797537Y1062537D01*
X800208Y1060346D01*
X803255Y1058717D01*
X806562Y1057714D01*
X810000Y1057375D01*
X823730D01*
Y1110000D01*
Y1162625D01*
X810000D01*
X806562Y1162286D01*
X803255Y1161283D01*
X800208Y1159655D01*
X797537Y1157463D01*
X795346Y1154792D01*
X793891Y1152070D01*
X792621Y1152389D01*
Y1162800D01*
X792269Y1164568D01*
X791267Y1166067D01*
X791267Y1166067D01*
X777703Y1179632D01*
X775928Y1181643D01*
X775220Y1182572D01*
X774694Y1183368D01*
X774532Y1183673D01*
Y1185355D01*
X774541Y1185402D01*
X774532Y1185449D01*
Y1187951D01*
X774677Y1188220D01*
X775177Y1188975D01*
X777779Y1192044D01*
X787114Y1201379D01*
X788320D01*
X789589Y1201332D01*
D02*
G37*
G36*
X1003973Y1173999D02*
Y1165047D01*
X1004421Y1161645D01*
X1005734Y1158475D01*
X1007823Y1155753D01*
X1015258Y1148318D01*
X1014772Y1147144D01*
X977095D01*
X967675Y1156564D01*
X964953Y1158653D01*
X961783Y1159967D01*
X958381Y1160414D01*
X952032D01*
Y1181855D01*
X996117D01*
X1003973Y1173999D01*
D02*
G37*
G36*
X962356Y1124706D02*
X965078Y1122617D01*
X968249Y1121303D01*
X971650Y1120855D01*
X1017886D01*
Y1075000D01*
X1018214Y1071661D01*
X1019188Y1068451D01*
X1020430Y1066127D01*
X1019399Y1065362D01*
X1002381Y1082381D01*
X1001288Y1083110D01*
X1000000Y1083367D01*
X958160D01*
X956783Y1083937D01*
X955217D01*
X953770Y1083338D01*
X952662Y1082230D01*
X952063Y1080783D01*
Y1079217D01*
X952662Y1077770D01*
X953770Y1076662D01*
X955217Y1076063D01*
X956783D01*
X958160Y1076633D01*
X998605D01*
X1016699Y1058540D01*
X1016213Y1057367D01*
X950395D01*
X950367Y1057394D01*
Y1118226D01*
X950110Y1119514D01*
X949381Y1120607D01*
X947937Y1122050D01*
Y1122783D01*
X947338Y1124230D01*
X946230Y1125338D01*
X944783Y1125937D01*
X943217D01*
X941770Y1125338D01*
X940662Y1124230D01*
X940063Y1122783D01*
Y1122494D01*
X938793Y1121968D01*
X936908Y1123853D01*
X936338Y1125230D01*
X935230Y1126338D01*
X933783Y1126937D01*
X932217D01*
X930770Y1126338D01*
X929662Y1125230D01*
X929467Y1124760D01*
X929232Y1124650D01*
X928009Y1124558D01*
X927230Y1125338D01*
X925783Y1125937D01*
X924217D01*
X922770Y1125338D01*
X921662Y1124230D01*
X921063Y1122783D01*
Y1122494D01*
X919793Y1121968D01*
X918908Y1122853D01*
X918338Y1124230D01*
X917230Y1125338D01*
X915783Y1125937D01*
X914217D01*
X912770Y1125338D01*
X911662Y1124230D01*
X911063Y1122783D01*
Y1121217D01*
X911662Y1119770D01*
X912770Y1118662D01*
X914147Y1118092D01*
X919032Y1113207D01*
X918506Y1111937D01*
X918217D01*
X916840Y1111367D01*
X902394D01*
X901367Y1112394D01*
Y1124000D01*
X901110Y1125288D01*
X900381Y1126381D01*
X893809Y1132952D01*
X894295Y1134126D01*
X952936D01*
X962356Y1124706D01*
D02*
G37*
G36*
X1061526Y1042027D02*
X1061625Y1041140D01*
X1061796Y1040273D01*
X1062038Y1039428D01*
X1062352Y1038604D01*
X1062738Y1037800D01*
X1063196Y1037017D01*
X1063726Y1036255D01*
X1064328Y1035514D01*
X1065002Y1034794D01*
X1063206Y1032998D01*
X1062486Y1033672D01*
X1061745Y1034274D01*
X1060983Y1034804D01*
X1060200Y1035262D01*
X1059397Y1035648D01*
X1058572Y1035962D01*
X1057727Y1036204D01*
X1056860Y1036375D01*
X1055973Y1036474D01*
X1055065Y1036500D01*
X1061500Y1042935D01*
X1061526Y1042027D01*
D02*
G37*
G36*
X894890Y1109712D02*
X895619Y1108619D01*
X898619Y1105619D01*
X899712Y1104890D01*
X901000Y1104633D01*
X907579D01*
X907832Y1103363D01*
X907770Y1103338D01*
X907202Y1102770D01*
X906619Y1102381D01*
X905890Y1101288D01*
X905633Y1100000D01*
X905890Y1098712D01*
X906619Y1097619D01*
X906633Y1097606D01*
Y1024488D01*
X906890Y1023199D01*
X907619Y1022107D01*
X911090Y1018637D01*
X910564Y1017367D01*
X893367D01*
Y1110992D01*
X894633Y1111000D01*
X894890Y1109712D01*
D02*
G37*
G36*
X991633Y1011297D02*
X990652Y1010491D01*
X990000Y1010621D01*
X985042D01*
X984403Y1010692D01*
X983637Y1010838D01*
X982903Y1011040D01*
X982195Y1011300D01*
X981512Y1011617D01*
X980849Y1011993D01*
X980204Y1012431D01*
X979702Y1012832D01*
X979621Y1012914D01*
Y1026024D01*
X979269Y1027793D01*
X978385Y1029116D01*
X978338Y1029230D01*
X977230Y1030338D01*
X977168Y1030363D01*
X977421Y1031633D01*
X991633D01*
Y1011297D01*
D02*
G37*
G36*
X978222Y1011364D02*
X978973Y1010763D01*
X979753Y1010232D01*
X980563Y1009773D01*
X981402Y1009384D01*
X982270Y1009066D01*
X983167Y1008818D01*
X984094Y1008641D01*
X985050Y1008535D01*
X986036Y1008500D01*
Y1003500D01*
X985050Y1003465D01*
X984094Y1003359D01*
X983167Y1003182D01*
X982270Y1002934D01*
X981402Y1002616D01*
X980563Y1002227D01*
X979753Y1001768D01*
X978973Y1001237D01*
X978222Y1000636D01*
X977500Y999965D01*
X973232Y1002768D01*
X973814Y1003414D01*
X974267Y1004061D01*
X974590Y1004707D01*
X974784Y1005353D01*
X974848Y1006000D01*
X974784Y1006646D01*
X974590Y1007293D01*
X974267Y1007939D01*
X973814Y1008586D01*
X973232Y1009232D01*
X977500Y1012036D01*
X978222Y1011364D01*
D02*
G37*
G36*
X1065590Y988112D02*
X1064949Y987431D01*
X1064358Y986719D01*
X1063817Y985974D01*
X1063324Y985198D01*
X1062881Y984390D01*
X1062486Y983551D01*
X1062141Y982680D01*
X1061846Y981776D01*
X1061599Y980842D01*
X1061402Y979875D01*
X1056253Y987378D01*
X1057086Y987259D01*
X1057908Y987230D01*
X1058721Y987291D01*
X1059524Y987443D01*
X1060318Y987684D01*
X1061101Y988017D01*
X1061874Y988439D01*
X1062638Y988952D01*
X1063391Y989556D01*
X1064135Y990249D01*
X1065590Y988112D01*
D02*
G37*
G36*
X937633Y912084D02*
X936363Y911578D01*
X936319Y911625D01*
X935729Y912349D01*
X935214Y913094D01*
X934772Y913863D01*
X934398Y914658D01*
X934093Y915482D01*
X933854Y916338D01*
X933682Y917231D01*
X933578Y918162D01*
X933567Y918482D01*
Y1012200D01*
X933310Y1013488D01*
X932581Y1014581D01*
X931798Y1015363D01*
X932324Y1016633D01*
X937633D01*
Y912084D01*
D02*
G37*
G36*
X861898Y910162D02*
X861576Y909835D01*
X860668Y908806D01*
X860536Y908619D01*
X860443Y908460D01*
X860387Y908329D01*
X860370Y908226D01*
X860390Y908150D01*
X858079Y910436D01*
X858154Y910417D01*
X858258Y910435D01*
X858390Y910492D01*
X858550Y910587D01*
X858738Y910720D01*
X858954Y910891D01*
X859472Y911348D01*
X860102Y911958D01*
X861898Y910162D01*
D02*
G37*
G36*
X931511Y918009D02*
X931633Y916919D01*
X931836Y915864D01*
X932120Y914843D01*
X932486Y913856D01*
X932933Y912905D01*
X933461Y911987D01*
X934071Y911104D01*
X934762Y910256D01*
X935534Y909442D01*
X924866D01*
X925638Y910256D01*
X926329Y911104D01*
X926939Y911987D01*
X927467Y912905D01*
X927914Y913856D01*
X928280Y914843D01*
X928564Y915864D01*
X928767Y916919D01*
X928889Y918009D01*
X928930Y919133D01*
X931470D01*
X931511Y918009D01*
D02*
G37*
G36*
X880711D02*
X880833Y916919D01*
X881036Y915864D01*
X881320Y914843D01*
X881686Y913856D01*
X882133Y912905D01*
X882661Y911987D01*
X883271Y911104D01*
X883962Y910256D01*
X884734Y909442D01*
X874066D01*
X874838Y910256D01*
X875529Y911104D01*
X876139Y911987D01*
X876667Y912905D01*
X877114Y913856D01*
X877480Y914843D01*
X877764Y915864D01*
X877967Y916919D01*
X878089Y918009D01*
X878130Y919133D01*
X880670D01*
X880711Y918009D01*
D02*
G37*
G36*
X831128Y917537D02*
X831355Y915203D01*
X831553Y914151D01*
X831808Y913175D01*
X832120Y912275D01*
X832489Y911452D01*
X832914Y910706D01*
X833395Y910035D01*
X833934Y909442D01*
X823266D01*
X823804Y910035D01*
X824286Y910706D01*
X824711Y911452D01*
X825080Y912275D01*
X825391Y913175D01*
X825647Y914151D01*
X825845Y915203D01*
X825987Y916332D01*
X826072Y917537D01*
X826100Y918818D01*
X831100D01*
X831128Y917537D01*
D02*
G37*
G36*
X947995Y904485D02*
X947979Y904613D01*
X947912Y904728D01*
X947795Y904829D01*
X947628Y904917D01*
X947411Y904991D01*
X947143Y905052D01*
X946825Y905099D01*
X946457Y905133D01*
X945570Y905160D01*
Y907700D01*
X946208Y907705D01*
X948160Y907828D01*
X948498Y907884D01*
X948776Y907950D01*
X948994Y908027D01*
X949151Y908114D01*
X949249Y908211D01*
X947995Y904485D01*
D02*
G37*
G36*
X833489Y898155D02*
X832921Y897614D01*
X832413Y896989D01*
X831965Y896281D01*
X831576Y895490D01*
X831247Y894616D01*
X830978Y893660D01*
X830769Y892619D01*
X830620Y891496D01*
X830530Y890290D01*
X830500Y889001D01*
X825500Y889419D01*
X825473Y890692D01*
X825262Y893027D01*
X825077Y894090D01*
X824838Y895082D01*
X824548Y896005D01*
X824203Y896857D01*
X823807Y897640D01*
X823357Y898353D01*
X822854Y898995D01*
X833489Y898155D01*
D02*
G37*
G36*
X971303Y515371D02*
X971404Y514127D01*
X971493Y513624D01*
X971608Y513200D01*
X971747Y512856D01*
X971912Y512590D01*
X972103Y512405D01*
X972319Y512298D01*
X972560Y512271D01*
X967492Y512022D01*
X967731Y512074D01*
X967945Y512205D01*
X968133Y512416D01*
X968297Y512706D01*
X968435Y513075D01*
X968549Y513524D01*
X968637Y514052D01*
X968700Y514659D01*
X968750Y516112D01*
X971290D01*
X971303Y515371D01*
D02*
G37*
G36*
X966653Y528586D02*
Y515429D01*
X966632Y514802D01*
X966583Y514329D01*
X966528Y514003D01*
X966494Y513997D01*
X964581Y512719D01*
X963304Y510806D01*
X962855Y508550D01*
Y501050D01*
X963304Y498794D01*
X964581Y496881D01*
X966494Y495603D01*
X967810Y495342D01*
X967684Y494072D01*
X857114D01*
Y515000D01*
X856786Y518339D01*
X855812Y521549D01*
X854230Y524508D01*
X852102Y527102D01*
X849508Y529230D01*
X847388Y530363D01*
X847706Y531633D01*
X963605D01*
X966653Y528586D01*
D02*
G37*
G36*
X1020015Y477460D02*
X1019976Y477701D01*
X1019861Y477917D01*
X1019669Y478108D01*
X1019400Y478273D01*
X1019055Y478413D01*
X1018632Y478527D01*
X1018133Y478616D01*
X1017557Y478679D01*
X1016174Y478730D01*
Y481270D01*
X1016904Y481283D01*
X1018133Y481384D01*
X1018632Y481473D01*
X1019055Y481587D01*
X1019400Y481727D01*
X1019669Y481892D01*
X1019861Y482083D01*
X1019976Y482299D01*
X1020015Y482540D01*
Y477460D01*
D02*
G37*
G36*
X855024Y482299D02*
X855139Y482083D01*
X855331Y481892D01*
X855600Y481727D01*
X855945Y481587D01*
X856368Y481473D01*
X856867Y481384D01*
X857443Y481321D01*
X858826Y481270D01*
Y478730D01*
X858096Y478717D01*
X856867Y478616D01*
X856368Y478527D01*
X855945Y478413D01*
X855600Y478273D01*
X855331Y478108D01*
X855139Y477917D01*
X855024Y477701D01*
X854985Y477460D01*
Y482540D01*
X855024Y482299D01*
D02*
G37*
G36*
X1017886Y445000D02*
X1018214Y441661D01*
X1019188Y438451D01*
X1019381Y438089D01*
X1018728Y437000D01*
X856272D01*
X855619Y438089D01*
X855812Y438451D01*
X856786Y441661D01*
X857114Y445000D01*
Y463928D01*
X965303D01*
X965688Y462658D01*
X964581Y461919D01*
X963304Y460006D01*
X962855Y457750D01*
Y450250D01*
X963304Y447994D01*
X964581Y446081D01*
X966494Y444804D01*
X968750Y444355D01*
X991250D01*
X993506Y444804D01*
X995419Y446081D01*
X996696Y447994D01*
X997145Y450250D01*
Y457750D01*
X996696Y460006D01*
X995419Y461919D01*
X994312Y462658D01*
X994697Y463928D01*
X1017886D01*
Y445000D01*
D02*
G37*
G36*
X738447Y1032286D02*
X739373Y1030682D01*
X740682Y1029373D01*
X742286Y1028447D01*
X744074Y1027968D01*
X745926D01*
X747714Y1028447D01*
X749318Y1029373D01*
X750363Y1030419D01*
X751461Y1030096D01*
X751633Y1029976D01*
Y541000D01*
X751890Y539712D01*
X752619Y538619D01*
X758619Y532619D01*
X759712Y531890D01*
X761000Y531633D01*
X802294D01*
X802612Y530363D01*
X800492Y529230D01*
X797898Y527102D01*
X795770Y524508D01*
X794188Y521549D01*
X793214Y518339D01*
X792886Y515000D01*
Y445000D01*
X793214Y441661D01*
X794188Y438451D01*
X794381Y438089D01*
X793728Y437000D01*
X755030D01*
X751166Y437769D01*
X747526Y439276D01*
X744251Y441465D01*
X741465Y444251D01*
X739276Y447526D01*
X737769Y451166D01*
X737000Y455030D01*
Y457000D01*
Y1032780D01*
X738270Y1032947D01*
X738447Y1032286D01*
D02*
G37*
%LPC*%
G36*
X847338Y1426160D02*
X847270D01*
Y1417270D01*
X856160D01*
Y1417338D01*
X855468Y1419922D01*
X854130Y1422238D01*
X852238Y1424130D01*
X849922Y1425468D01*
X847338Y1426160D01*
D02*
G37*
G36*
X844730D02*
X844662D01*
X842078Y1425468D01*
X839762Y1424130D01*
X837870Y1422238D01*
X836532Y1419922D01*
X835840Y1417338D01*
Y1417270D01*
X844730D01*
Y1426160D01*
D02*
G37*
G36*
X1025071Y1425652D02*
X1022529D01*
X1020074Y1424994D01*
X1017874Y1423723D01*
X1016077Y1421926D01*
X1014806Y1419725D01*
X1014148Y1417271D01*
Y1414729D01*
X1014806Y1412274D01*
X1016077Y1410074D01*
X1017874Y1408277D01*
X1020074Y1407006D01*
X1022529Y1406348D01*
X1025071D01*
X1027526Y1407006D01*
X1029726Y1408277D01*
X1031524Y1410074D01*
X1032794Y1412274D01*
X1033452Y1414729D01*
Y1417271D01*
X1032794Y1419725D01*
X1031524Y1421926D01*
X1029726Y1423723D01*
X1027526Y1424994D01*
X1025071Y1425652D01*
D02*
G37*
G36*
X999671D02*
X997129D01*
X994675Y1424994D01*
X992474Y1423723D01*
X990676Y1421926D01*
X989406Y1419725D01*
X988748Y1417271D01*
Y1414729D01*
X989406Y1412274D01*
X990676Y1410074D01*
X992474Y1408277D01*
X994675Y1407006D01*
X997129Y1406348D01*
X999671D01*
X1002126Y1407006D01*
X1004326Y1408277D01*
X1006124Y1410074D01*
X1007394Y1412274D01*
X1008052Y1414729D01*
Y1417271D01*
X1007394Y1419725D01*
X1006124Y1421926D01*
X1004326Y1423723D01*
X1002126Y1424994D01*
X999671Y1425652D01*
D02*
G37*
G36*
X974271D02*
X971729D01*
X969275Y1424994D01*
X967074Y1423723D01*
X965276Y1421926D01*
X964006Y1419725D01*
X963348Y1417271D01*
Y1414729D01*
X964006Y1412274D01*
X965276Y1410074D01*
X967074Y1408277D01*
X969275Y1407006D01*
X971729Y1406348D01*
X974271D01*
X976726Y1407006D01*
X978926Y1408277D01*
X980723Y1410074D01*
X981994Y1412274D01*
X982652Y1414729D01*
Y1417271D01*
X981994Y1419725D01*
X980723Y1421926D01*
X978926Y1423723D01*
X976726Y1424994D01*
X974271Y1425652D01*
D02*
G37*
G36*
X948871D02*
X946329D01*
X943875Y1424994D01*
X941674Y1423723D01*
X939876Y1421926D01*
X938606Y1419725D01*
X937948Y1417271D01*
Y1414729D01*
X938606Y1412274D01*
X939876Y1410074D01*
X941674Y1408277D01*
X943875Y1407006D01*
X946329Y1406348D01*
X948871D01*
X951326Y1407006D01*
X953527Y1408277D01*
X955323Y1410074D01*
X956594Y1412274D01*
X957252Y1414729D01*
Y1417271D01*
X956594Y1419725D01*
X955323Y1421926D01*
X953527Y1423723D01*
X951326Y1424994D01*
X948871Y1425652D01*
D02*
G37*
G36*
X923471D02*
X920929D01*
X918475Y1424994D01*
X916274Y1423723D01*
X914476Y1421926D01*
X913206Y1419725D01*
X912548Y1417271D01*
Y1414729D01*
X913206Y1412274D01*
X914476Y1410074D01*
X916274Y1408277D01*
X918475Y1407006D01*
X920929Y1406348D01*
X923471D01*
X925926Y1407006D01*
X928127Y1408277D01*
X929923Y1410074D01*
X931194Y1412274D01*
X931852Y1414729D01*
Y1417271D01*
X931194Y1419725D01*
X929923Y1421926D01*
X928127Y1423723D01*
X925926Y1424994D01*
X923471Y1425652D01*
D02*
G37*
G36*
X856160Y1414730D02*
X847270D01*
Y1405840D01*
X847338D01*
X849922Y1406532D01*
X852238Y1407870D01*
X854130Y1409762D01*
X855468Y1412078D01*
X856160Y1414662D01*
Y1414730D01*
D02*
G37*
G36*
X844730D02*
X835840D01*
Y1414662D01*
X836532Y1412078D01*
X837870Y1409762D01*
X839762Y1407870D01*
X842078Y1406532D01*
X844662Y1405840D01*
X844730D01*
Y1414730D01*
D02*
G37*
G36*
X1076184Y1428032D02*
X1073016D01*
X1069956Y1427212D01*
X1067212Y1425628D01*
X1064972Y1423388D01*
X1063388Y1420644D01*
X1062568Y1417584D01*
Y1414416D01*
X1063388Y1411356D01*
X1064972Y1408612D01*
X1067212Y1406372D01*
X1069956Y1404788D01*
X1073016Y1403968D01*
X1076184D01*
X1079244Y1404788D01*
X1081988Y1406372D01*
X1084228Y1408612D01*
X1085812Y1411356D01*
X1086632Y1414416D01*
Y1417584D01*
X1085812Y1420644D01*
X1084228Y1423388D01*
X1081988Y1425628D01*
X1079244Y1427212D01*
X1076184Y1428032D01*
D02*
G37*
G36*
X796784D02*
X793616D01*
X790556Y1427212D01*
X787812Y1425628D01*
X785572Y1423388D01*
X783988Y1420644D01*
X783168Y1417584D01*
Y1414416D01*
X783988Y1411356D01*
X785572Y1408612D01*
X787812Y1406372D01*
X790556Y1404788D01*
X793616Y1403968D01*
X796784D01*
X799844Y1404788D01*
X802588Y1406372D01*
X804828Y1408612D01*
X806412Y1411356D01*
X807232Y1414416D01*
Y1417584D01*
X806412Y1420644D01*
X804828Y1423388D01*
X802588Y1425628D01*
X799844Y1427212D01*
X796784Y1428032D01*
D02*
G37*
G36*
X1051000Y1398072D02*
X1004000D01*
X1003207Y1397914D01*
X1002535Y1397465D01*
X1002086Y1396793D01*
X1001928Y1396000D01*
Y1392798D01*
X1000512Y1392693D01*
X991434D01*
X987983Y1392771D01*
X986830Y1392859D01*
X986820Y1392860D01*
X985853Y1393828D01*
X983679Y1395082D01*
X981255Y1395732D01*
X978745D01*
X976321Y1395082D01*
X974147Y1393828D01*
X972373Y1392053D01*
X971118Y1389879D01*
X970468Y1387455D01*
Y1384945D01*
X971118Y1382521D01*
X972373Y1380347D01*
X974147Y1378573D01*
X976321Y1377318D01*
X978745Y1376668D01*
X981255D01*
X983679Y1377318D01*
X985680Y1378473D01*
X989936Y1378507D01*
X998844D01*
X1001417Y1378444D01*
X1001928Y1378398D01*
Y1343000D01*
X1002086Y1342207D01*
X1002535Y1341535D01*
X1003207Y1341086D01*
X1004000Y1340928D01*
X1051000D01*
X1051793Y1341086D01*
X1052465Y1341535D01*
X1052914Y1342207D01*
X1053072Y1343000D01*
Y1396000D01*
X1052914Y1396793D01*
X1052465Y1397465D01*
X1051793Y1397914D01*
X1051000Y1398072D01*
D02*
G37*
G36*
X773632Y1395732D02*
X754568D01*
Y1376668D01*
X773632D01*
Y1395732D01*
D02*
G37*
G36*
X1091651Y1367540D02*
X1091270D01*
Y1356270D01*
X1102540D01*
Y1356651D01*
X1101685Y1359840D01*
X1100034Y1362700D01*
X1097700Y1365034D01*
X1094840Y1366685D01*
X1091651Y1367540D01*
D02*
G37*
G36*
X1088730D02*
X1088349D01*
X1085160Y1366685D01*
X1082300Y1365034D01*
X1079966Y1362700D01*
X1078315Y1359840D01*
X1077460Y1356651D01*
Y1356270D01*
X1088730D01*
Y1367540D01*
D02*
G37*
G36*
X765355Y1370332D02*
X762845D01*
X760421Y1369682D01*
X758247Y1368427D01*
X756472Y1366653D01*
X755218Y1364479D01*
X754568Y1362055D01*
Y1359545D01*
X755218Y1357121D01*
X756472Y1354947D01*
X758247Y1353172D01*
X760421Y1351918D01*
X762845Y1351268D01*
X765355D01*
X767779Y1351918D01*
X769953Y1353172D01*
X771728Y1354947D01*
X772982Y1357121D01*
X773632Y1359545D01*
Y1362055D01*
X772982Y1364479D01*
X771728Y1366653D01*
X769953Y1368427D01*
X767779Y1369682D01*
X765355Y1370332D01*
D02*
G37*
G36*
X1102540Y1353730D02*
X1091270D01*
Y1342460D01*
X1091651D01*
X1094840Y1343315D01*
X1097700Y1344966D01*
X1100034Y1347300D01*
X1101685Y1350160D01*
X1102540Y1353349D01*
Y1353730D01*
D02*
G37*
G36*
X1088730D02*
X1077460D01*
Y1353349D01*
X1078315Y1350160D01*
X1079966Y1347300D01*
X1082300Y1344966D01*
X1085160Y1343315D01*
X1088349Y1342460D01*
X1088730D01*
Y1353730D01*
D02*
G37*
G36*
X981255Y1344932D02*
X978745D01*
X976321Y1344282D01*
X974147Y1343027D01*
X973210Y1342090D01*
X973078Y1342007D01*
X972607Y1341559D01*
X972159Y1341225D01*
X971630Y1340915D01*
X971014Y1340633D01*
X970306Y1340383D01*
X969503Y1340170D01*
X968636Y1340005D01*
X966743Y1339821D01*
X896200D01*
X896200Y1339821D01*
X895194Y1339621D01*
X859000D01*
X857232Y1339269D01*
X855733Y1338267D01*
X854731Y1336768D01*
X854379Y1335000D01*
X854731Y1333232D01*
X855733Y1331733D01*
X857232Y1330731D01*
X859000Y1330379D01*
X896000D01*
X896000Y1330379D01*
X897005Y1330579D01*
X966574D01*
X967784Y1330526D01*
X968760Y1330408D01*
X969671Y1330243D01*
X970495Y1330037D01*
X971230Y1329792D01*
X971877Y1329515D01*
X972441Y1329209D01*
X972927Y1328876D01*
X973434Y1328439D01*
X973541Y1328378D01*
X974147Y1327773D01*
X976321Y1326518D01*
X978745Y1325868D01*
X981255D01*
X983679Y1326518D01*
X985853Y1327773D01*
X987627Y1329547D01*
X988882Y1331721D01*
X989532Y1334145D01*
Y1336655D01*
X988882Y1339079D01*
X987627Y1341253D01*
X985853Y1343027D01*
X983679Y1344282D01*
X981255Y1344932D01*
D02*
G37*
G36*
X981322Y1294640D02*
X981270D01*
Y1285870D01*
X990040D01*
Y1285922D01*
X989356Y1288475D01*
X988034Y1290765D01*
X986165Y1292634D01*
X983875Y1293956D01*
X981322Y1294640D01*
D02*
G37*
G36*
X978730D02*
X978678D01*
X976125Y1293956D01*
X973835Y1292634D01*
X971966Y1290765D01*
X970644Y1288475D01*
X969960Y1285922D01*
Y1285870D01*
X978730D01*
Y1294640D01*
D02*
G37*
G36*
X990040Y1283330D02*
X981270D01*
Y1274560D01*
X981322D01*
X983875Y1275244D01*
X986165Y1276566D01*
X988034Y1278435D01*
X989356Y1280725D01*
X990040Y1283278D01*
Y1283330D01*
D02*
G37*
G36*
X978730D02*
X969960D01*
Y1283278D01*
X970644Y1280725D01*
X971966Y1278435D01*
X973835Y1276566D01*
X976125Y1275244D01*
X978678Y1274560D01*
X978730D01*
Y1283330D01*
D02*
G37*
G36*
X1132032Y1397032D02*
X1107968D01*
Y1388808D01*
X1107278Y1387141D01*
X1106864Y1384000D01*
Y1281027D01*
X1082973Y1257136D01*
X967701D01*
X957505Y1257189D01*
X952032Y1257348D01*
Y1257532D01*
X950016D01*
X949969Y1257541D01*
X949923Y1257532D01*
X907968D01*
Y1233040D01*
X907460D01*
Y1221270D01*
X952540D01*
Y1232499D01*
X975894Y1232864D01*
X1088000D01*
X1091141Y1233278D01*
X1092353Y1233780D01*
X1094068Y1234490D01*
X1096581Y1236419D01*
X1127581Y1267419D01*
X1129510Y1269932D01*
X1130220Y1271647D01*
X1130722Y1272859D01*
X1131136Y1276000D01*
Y1372968D01*
X1132032D01*
Y1397032D01*
D02*
G37*
G36*
X897783Y1244937D02*
X896217D01*
X894770Y1244338D01*
X894299Y1243867D01*
X818953D01*
X818783Y1243937D01*
X817217D01*
X815770Y1243338D01*
X814662Y1242230D01*
X814063Y1240783D01*
Y1239217D01*
X814662Y1237770D01*
X815770Y1236662D01*
X817217Y1236063D01*
X818783D01*
X820230Y1236662D01*
X820701Y1237133D01*
X896047D01*
X896217Y1237063D01*
X897783D01*
X899230Y1237662D01*
X900338Y1238770D01*
X900937Y1240217D01*
Y1241783D01*
X900338Y1243230D01*
X899230Y1244338D01*
X897783Y1244937D01*
D02*
G37*
G36*
X901705Y1182720D02*
Y1179705D01*
X904720D01*
X904203Y1180953D01*
X902953Y1182203D01*
X901705Y1182720D01*
D02*
G37*
G36*
X899165D02*
X897917Y1182203D01*
X896667Y1180953D01*
X896150Y1179705D01*
X899165D01*
Y1182720D01*
D02*
G37*
G36*
X904720Y1177165D02*
X901705D01*
Y1174150D01*
X902953Y1174667D01*
X904203Y1175917D01*
X904720Y1177165D01*
D02*
G37*
G36*
X899165D02*
X896150D01*
X896667Y1175917D01*
X897917Y1174667D01*
X899165Y1174150D01*
Y1177165D01*
D02*
G37*
G36*
X766255Y1169932D02*
X763745D01*
X761321Y1169282D01*
X759147Y1168027D01*
X757373Y1166253D01*
X756118Y1164079D01*
X755468Y1161655D01*
Y1159145D01*
X756118Y1156721D01*
X757373Y1154547D01*
X759147Y1152773D01*
X761321Y1151518D01*
X763745Y1150868D01*
X766255D01*
X768679Y1151518D01*
X770853Y1152773D01*
X772627Y1154547D01*
X773882Y1156721D01*
X774532Y1159145D01*
Y1161655D01*
X773882Y1164079D01*
X772627Y1166253D01*
X770853Y1168027D01*
X768679Y1169282D01*
X766255Y1169932D01*
D02*
G37*
G36*
Y1144532D02*
X763745D01*
X761321Y1143882D01*
X759147Y1142627D01*
X757373Y1140853D01*
X756118Y1138679D01*
X755468Y1136255D01*
Y1133745D01*
X756118Y1131321D01*
X757373Y1129147D01*
X759147Y1127373D01*
X761321Y1126118D01*
X763745Y1125468D01*
X766255D01*
X768679Y1126118D01*
X770853Y1127373D01*
X772627Y1129147D01*
X773882Y1131321D01*
X774532Y1133745D01*
Y1136255D01*
X773882Y1138679D01*
X772627Y1140853D01*
X770853Y1142627D01*
X768679Y1143882D01*
X766255Y1144532D01*
D02*
G37*
G36*
X766322Y1119640D02*
X766270D01*
Y1110870D01*
X775040D01*
Y1110922D01*
X774356Y1113475D01*
X773034Y1115765D01*
X771165Y1117634D01*
X768875Y1118956D01*
X766322Y1119640D01*
D02*
G37*
G36*
X763730D02*
X763678D01*
X761125Y1118956D01*
X758835Y1117634D01*
X756966Y1115765D01*
X755644Y1113475D01*
X754960Y1110922D01*
Y1110870D01*
X763730D01*
Y1119640D01*
D02*
G37*
G36*
X775040Y1108330D02*
X766270D01*
Y1099560D01*
X766322D01*
X768875Y1100244D01*
X771165Y1101566D01*
X773034Y1103435D01*
X774356Y1105725D01*
X775040Y1108278D01*
Y1108330D01*
D02*
G37*
G36*
X763730D02*
X754960D01*
Y1108278D01*
X755644Y1105725D01*
X756966Y1103435D01*
X758835Y1101566D01*
X761125Y1100244D01*
X763678Y1099560D01*
X763730D01*
Y1108330D01*
D02*
G37*
G36*
X771270Y1083019D02*
Y1075270D01*
X779019D01*
X778424Y1077489D01*
X777234Y1079551D01*
X775551Y1081234D01*
X773489Y1082424D01*
X771270Y1083019D01*
D02*
G37*
G36*
X1010270Y1029285D02*
Y1026270D01*
X1013285D01*
X1012768Y1027518D01*
X1011518Y1028768D01*
X1010270Y1029285D01*
D02*
G37*
G36*
X1013285Y1023730D02*
X1010270D01*
Y1020715D01*
X1011518Y1021232D01*
X1012768Y1022482D01*
X1013285Y1023730D01*
D02*
G37*
G36*
X1064019Y1023730D02*
X1056270D01*
Y1015981D01*
X1058489Y1016576D01*
X1060551Y1017766D01*
X1062234Y1019449D01*
X1063424Y1021511D01*
X1064019Y1023730D01*
D02*
G37*
G36*
X1056270Y1008019D02*
Y1000270D01*
X1064019D01*
X1063424Y1002489D01*
X1062234Y1004551D01*
X1060551Y1006234D01*
X1058489Y1007424D01*
X1056270Y1008019D01*
D02*
G37*
G36*
X1116123Y1004532D02*
X1113877D01*
X1111707Y1003951D01*
X1109761Y1002827D01*
X1108173Y1001239D01*
X1107049Y999293D01*
X1106468Y997123D01*
Y994877D01*
X1107049Y992707D01*
X1108173Y990761D01*
X1109761Y989173D01*
X1111707Y988049D01*
X1113877Y987468D01*
X1116123D01*
X1118293Y988049D01*
X1120239Y989173D01*
X1121827Y990761D01*
X1122951Y992707D01*
X1123532Y994877D01*
Y997123D01*
X1122951Y999293D01*
X1121827Y1001239D01*
X1120239Y1002827D01*
X1118293Y1003951D01*
X1116123Y1004532D01*
D02*
G37*
G36*
X1076184Y920032D02*
X1073016D01*
X1069956Y919212D01*
X1067212Y917628D01*
X1064972Y915388D01*
X1063388Y912644D01*
X1062568Y909584D01*
Y906416D01*
X1063388Y903356D01*
X1064972Y900612D01*
X1067212Y898372D01*
X1069956Y896788D01*
X1073016Y895968D01*
X1076184D01*
X1079244Y896788D01*
X1081988Y898372D01*
X1084228Y900612D01*
X1085812Y903356D01*
X1086632Y906416D01*
Y909584D01*
X1085812Y912644D01*
X1084228Y915388D01*
X1081988Y917628D01*
X1079244Y919212D01*
X1076184Y920032D01*
D02*
G37*
G36*
X796784D02*
X793616D01*
X790556Y919212D01*
X787812Y917628D01*
X785572Y915388D01*
X783988Y912644D01*
X783168Y909584D01*
Y906416D01*
X783988Y903356D01*
X785572Y900612D01*
X787812Y898372D01*
X790556Y896788D01*
X793616Y895968D01*
X796784D01*
X799844Y896788D01*
X802588Y898372D01*
X804828Y900612D01*
X806412Y903356D01*
X807232Y906416D01*
Y909584D01*
X806412Y912644D01*
X804828Y915388D01*
X802588Y917628D01*
X799844Y919212D01*
X796784Y920032D01*
D02*
G37*
G36*
X942783Y878937D02*
X941217D01*
X939770Y878338D01*
X938662Y877230D01*
X938092Y875853D01*
X933660Y871421D01*
X932930Y870329D01*
X932674Y869040D01*
Y788334D01*
X932103Y786958D01*
Y785391D01*
X932703Y783944D01*
X933810Y782837D01*
X935257Y782237D01*
X936823D01*
X938270Y782837D01*
X939378Y783944D01*
X939977Y785391D01*
Y786958D01*
X939407Y788334D01*
Y867646D01*
X942853Y871092D01*
X944230Y871662D01*
X945338Y872770D01*
X945937Y874217D01*
Y875783D01*
X945338Y877230D01*
X944230Y878338D01*
X942783Y878937D01*
D02*
G37*
G36*
X906783Y703937D02*
X905217D01*
X903770Y703338D01*
X902662Y702230D01*
X902063Y700783D01*
Y699217D01*
X902633Y697840D01*
Y642344D01*
X902890Y641055D01*
X903619Y639963D01*
X904063Y639519D01*
Y639217D01*
X904363Y638492D01*
Y569508D01*
X904063Y568783D01*
Y567217D01*
X904662Y565770D01*
X905770Y564662D01*
X907217Y564063D01*
X908783D01*
X910230Y564662D01*
X910251Y564683D01*
X911288Y564890D01*
X912381Y565619D01*
X913110Y566712D01*
X913367Y568000D01*
X913110Y569288D01*
X912381Y570381D01*
X911288Y571110D01*
X911097Y571148D01*
Y636852D01*
X911288Y636890D01*
X912381Y637619D01*
X913110Y638712D01*
X913367Y640000D01*
X913110Y641288D01*
X912381Y642381D01*
X911288Y643110D01*
X910251Y643317D01*
X910230Y643338D01*
X909440Y643665D01*
X909367Y643738D01*
Y697840D01*
X909937Y699217D01*
Y700783D01*
X909338Y702230D01*
X908230Y703338D01*
X906783Y703937D01*
D02*
G37*
%LPD*%
G36*
X985898Y1390928D02*
X986180Y1390859D01*
X986604Y1390798D01*
X987881Y1390701D01*
X992150Y1390604D01*
X993574Y1390600D01*
X992489Y1380600D01*
X984919Y1380538D01*
X985759Y1391005D01*
X985898Y1390928D01*
D02*
G37*
G36*
X1009451Y1378441D02*
X1008999Y1378851D01*
X1008394Y1379218D01*
X1007635Y1379542D01*
X1006722Y1379823D01*
X1005656Y1380060D01*
X1004436Y1380255D01*
X1001535Y1380514D01*
X998020Y1380600D01*
X998715Y1390600D01*
X1000553Y1390618D01*
X1006394Y1391054D01*
X1007476Y1391254D01*
X1008407Y1391490D01*
X1009186Y1391762D01*
X1009814Y1392071D01*
X1010291Y1392416D01*
X1009451Y1378441D01*
D02*
G37*
G36*
X974786Y1330009D02*
X974192Y1330520D01*
X973524Y1330978D01*
X972782Y1331381D01*
X971965Y1331731D01*
X971074Y1332027D01*
X970108Y1332269D01*
X969069Y1332458D01*
X967954Y1332592D01*
X965503Y1332700D01*
X965361Y1337700D01*
X966630Y1337728D01*
X968930Y1337953D01*
X969963Y1338149D01*
X970916Y1338401D01*
X971792Y1338710D01*
X972588Y1339075D01*
X973306Y1339495D01*
X973945Y1339972D01*
X974506Y1340505D01*
X974786Y1330009D01*
D02*
G37*
G36*
X950269Y1255380D02*
X951170Y1255301D01*
X957469Y1255117D01*
X979969Y1255000D01*
Y1235000D01*
X949969Y1234530D01*
Y1255470D01*
X950269Y1255380D01*
D02*
G37*
%LPC*%
G36*
X960285Y1025730D02*
X957270D01*
Y1022715D01*
X958518Y1023232D01*
X959768Y1024482D01*
X960285Y1025730D01*
D02*
G37*
G36*
X954730D02*
X951715D01*
X952232Y1024482D01*
X953482Y1023232D01*
X954730Y1022715D01*
Y1025730D01*
D02*
G37*
G36*
X841783Y1027937D02*
X840217D01*
X838770Y1027338D01*
X837662Y1026230D01*
X837063Y1024783D01*
Y1023217D01*
X837633Y1021840D01*
Y989160D01*
X837063Y987783D01*
Y987082D01*
X837047Y987000D01*
X837063Y986918D01*
Y986217D01*
X837662Y984770D01*
X838770Y983662D01*
X840217Y983063D01*
X841783D01*
X843230Y983662D01*
X844338Y984770D01*
X844937Y986217D01*
Y987783D01*
X844367Y989160D01*
Y1021840D01*
X844937Y1023217D01*
Y1024783D01*
X844338Y1026230D01*
X843230Y1027338D01*
X841783Y1027937D01*
D02*
G37*
G36*
X829783Y1032937D02*
X828217D01*
X826770Y1032338D01*
X825662Y1031230D01*
X825063Y1029783D01*
Y1028217D01*
X825633Y1026840D01*
Y989160D01*
X825063Y987783D01*
Y987082D01*
X825047Y987000D01*
X825063Y986918D01*
Y986217D01*
X825662Y984770D01*
X826770Y983662D01*
X828217Y983063D01*
X829783D01*
X831230Y983662D01*
X832338Y984770D01*
X832937Y986217D01*
Y987783D01*
X832367Y989160D01*
Y1026840D01*
X832937Y1028217D01*
Y1029783D01*
X832338Y1031230D01*
X831230Y1032338D01*
X829783Y1032937D01*
D02*
G37*
G36*
X818783Y1037937D02*
X817217D01*
X815770Y1037338D01*
X814662Y1036230D01*
X814063Y1034783D01*
Y1033217D01*
X814633Y1031840D01*
Y991395D01*
X814619Y991381D01*
X813890Y990288D01*
X813683Y989251D01*
X813662Y989230D01*
X813063Y987783D01*
Y986217D01*
X813662Y984770D01*
X814770Y983662D01*
X816217Y983063D01*
X817783D01*
X819230Y983662D01*
X820338Y984770D01*
X820937Y986217D01*
Y987783D01*
X820766Y988196D01*
X821110Y988712D01*
X821367Y990000D01*
Y1031840D01*
X821937Y1033217D01*
Y1034783D01*
X821338Y1036230D01*
X820230Y1037338D01*
X818783Y1037937D01*
D02*
G37*
G36*
X807783Y1042937D02*
X806217D01*
X804770Y1042338D01*
X803662Y1041230D01*
X803063Y1039783D01*
Y1038217D01*
X803633Y1036840D01*
Y989160D01*
X803063Y987783D01*
Y986217D01*
X803662Y984770D01*
X804770Y983662D01*
X806217Y983063D01*
X807783D01*
X809230Y983662D01*
X810338Y984770D01*
X810937Y986217D01*
Y987783D01*
X810367Y989160D01*
Y1036840D01*
X810937Y1038217D01*
Y1039783D01*
X810338Y1041230D01*
X809230Y1042338D01*
X807783Y1042937D01*
D02*
G37*
G36*
X906138Y914160D02*
X906070D01*
Y905270D01*
X914960D01*
Y905338D01*
X914268Y907922D01*
X912930Y910238D01*
X911038Y912130D01*
X908722Y913468D01*
X906138Y914160D01*
D02*
G37*
G36*
X903530D02*
X903462D01*
X900878Y913468D01*
X898562Y912130D01*
X896670Y910238D01*
X895332Y907922D01*
X894640Y905338D01*
Y905270D01*
X903530D01*
Y914160D01*
D02*
G37*
G36*
X914960Y902730D02*
X906070D01*
Y893840D01*
X906138D01*
X908722Y894532D01*
X911038Y895870D01*
X912930Y897762D01*
X914268Y900078D01*
X914960Y902662D01*
Y902730D01*
D02*
G37*
G36*
X903530D02*
X894640D01*
Y902662D01*
X895332Y900078D01*
X896670Y897762D01*
X898562Y895870D01*
X900878Y894532D01*
X903462Y893840D01*
X903530D01*
Y902730D01*
D02*
G37*
%LPD*%
D11*
X805000Y1205000D02*
X812053Y1197947D01*
X765000Y1235000D02*
X785000Y1215000D01*
X765000Y1235000D02*
X765000D01*
X797000Y1215000D02*
X805000Y1207000D01*
X785000Y1215000D02*
X797000D01*
X805000Y1206000D02*
Y1207000D01*
X975000Y887929D02*
Y1001000D01*
X980000Y1006000D01*
X975000Y1011000D02*
Y1026024D01*
X980000Y1006000D02*
X990000D01*
X975000Y1011000D02*
X980000Y1006000D01*
X828000Y887929D02*
Y902000D01*
X830929Y885000D02*
X972071D01*
X975000Y887929D01*
X828000D02*
X830929Y885000D01*
X828600Y904400D02*
Y942400D01*
X824000Y947000D02*
X828600Y942400D01*
X793000Y947000D02*
X824000D01*
X788000Y952000D02*
X793000Y947000D01*
X788000Y952000D02*
Y1162800D01*
X765000Y1185800D02*
X788000Y1162800D01*
X785200Y1206000D02*
X805000D01*
Y1205000D02*
Y1206000D01*
X753000Y1290000D02*
X760000Y1297000D01*
X753000Y1253000D02*
Y1290000D01*
Y1253000D02*
X757971Y1248029D01*
X797971D01*
X828000Y1297000D02*
X835000Y1304000D01*
X760000Y1297000D02*
X828000D01*
X805000Y1206000D02*
Y1241000D01*
X871000Y1414000D02*
X871400Y1413600D01*
Y1386329D02*
Y1413600D01*
X850000Y1379000D02*
X864071D01*
X871400Y1386329D01*
X835000Y1364000D02*
X850000Y1379000D01*
X835000Y1304000D02*
Y1364000D01*
X837200Y1259200D02*
X857000Y1279000D01*
X764100Y1259200D02*
X837200D01*
X797971Y1248029D02*
X805000Y1241000D01*
X857000Y1279000D02*
X923000D01*
X766600Y1284600D02*
X834671D01*
X843000Y1292929D02*
Y1358000D01*
X834671Y1284600D02*
X843000Y1292929D01*
X765000Y1283000D02*
X766600Y1284600D01*
X859000Y1335000D02*
X896000D01*
X765000Y1185800D02*
X785200Y1206000D01*
X896000Y1335000D02*
X896200Y1335200D01*
X851000Y1310000D02*
X980000D01*
X896200Y1335200D02*
X979800D01*
X843000Y1358000D02*
X855000Y1370000D01*
X979800Y1335200D02*
X980000Y1335400D01*
X956800Y1360800D02*
X980000D01*
X943000Y1347000D02*
X956800Y1360800D01*
X896000Y1347000D02*
X943000D01*
X855000Y1370000D02*
X930000D01*
D13*
X888000Y1127000D02*
X890000Y1125000D01*
X873000Y1127000D02*
X888000D01*
X847000Y1168000D02*
X874000Y1141000D01*
X816000Y1168000D02*
X847000D01*
X812053Y1171947D02*
Y1197947D01*
Y1171947D02*
X816000Y1168000D01*
X817000Y987000D02*
Y989000D01*
X869000Y987000D02*
Y1015000D01*
X841000Y987587D02*
Y1024000D01*
X840413Y987000D02*
X841000Y987587D01*
X828413Y987000D02*
X829000Y987587D01*
Y1029000D01*
X818000Y990000D02*
Y1034000D01*
X817000Y989000D02*
X818000Y990000D01*
X807000Y987000D02*
Y1039000D01*
X796000Y987000D02*
Y1044000D01*
X865488Y1133000D02*
X889000D01*
X898000Y1111000D02*
Y1124000D01*
X889000Y1133000D02*
X898000Y1124000D01*
X861000Y1128512D02*
X865488Y1133000D01*
X856000Y876000D02*
X875000D01*
X944000Y1121226D02*
X947000Y1118226D01*
X944000Y1121226D02*
Y1122000D01*
X947000Y1056000D02*
Y1118226D01*
X933000Y1123000D02*
X941000Y1115000D01*
X933000Y1123000D02*
X933000D01*
X941000Y1046488D02*
Y1115000D01*
Y1046488D02*
X942488Y1045000D01*
X925000Y1122000D02*
X933000Y1114000D01*
Y1043000D02*
Y1114000D01*
X1124000Y1059000D02*
Y1151000D01*
X1080682Y1005000D02*
X1081000D01*
X1056682Y981000D02*
X1080682Y1005000D01*
X1055000Y981000D02*
X1056682D01*
X790000Y769000D02*
X798000Y761000D01*
X790000Y753000D02*
X814512D01*
X782000Y761000D02*
X790000Y753000D01*
X819000Y757488D02*
Y782000D01*
X908000Y640000D02*
Y640344D01*
X906000Y642344D02*
X908000Y640344D01*
X906000Y642344D02*
Y700000D01*
X824000D02*
X828467Y704467D01*
Y834467D01*
X873587Y1118000D02*
X879400Y1112187D01*
X873000Y1118000D02*
X873587D01*
X879400Y905400D02*
Y1112187D01*
X1042000Y480000D02*
X1044000Y482000D01*
X825000Y480000D02*
X1042000D01*
X782000Y830000D02*
Y833000D01*
X790000Y841000D02*
X817000D01*
X782000Y833000D02*
X790000Y841000D01*
Y822000D02*
X798000Y830000D01*
X790000Y769000D02*
Y822000D01*
X814512Y753000D02*
X819000Y757488D01*
X818730Y619270D02*
Y705730D01*
X820000Y618000D02*
Y618000D01*
X818730Y619270D02*
X820000Y618000D01*
X825000Y712000D02*
Y850000D01*
X818730Y705730D02*
X825000Y712000D01*
Y850000D02*
X841000Y866000D01*
X948000Y1014000D02*
X949000Y1015000D01*
X948000Y984000D02*
Y1014000D01*
X936040Y786174D02*
Y869040D01*
X941000Y874000D01*
X849512Y838000D02*
X852000Y840488D01*
Y872000D01*
X828467Y834467D02*
X832000Y838000D01*
X849512D01*
X852000Y872000D02*
X856000Y876000D01*
X841730Y811026D02*
X866000Y835296D01*
Y866000D01*
X841730Y582934D02*
Y811026D01*
X820000Y561204D02*
X841730Y582934D01*
X820000Y546000D02*
Y561204D01*
X765270Y538730D02*
X1011512D01*
X1013000Y537242D01*
Y524000D02*
Y537242D01*
X758730Y545270D02*
X765270Y538730D01*
X758730Y545270D02*
Y1092270D01*
X956000Y1080000D02*
X1000000D01*
X1022870Y1057130D01*
X995000Y726000D02*
Y1033512D01*
X1002000Y700000D02*
Y1036000D01*
X993512Y1035000D02*
X995000Y1033512D01*
X998000Y1040000D02*
X1002000Y1036000D01*
X1122130Y1057130D02*
X1124000Y1059000D01*
X1022870Y1057130D02*
X1122130D01*
X1038000Y1054000D02*
X1044000Y1048000D01*
X947000Y1056000D02*
X949000Y1054000D01*
X1038000D01*
X1044000Y784000D02*
X1049000Y779000D01*
X1044000Y784000D02*
Y1048000D01*
X934000Y1035000D02*
X993512D01*
X929000Y1040000D02*
X934000Y1035000D01*
X933000Y1043000D02*
X936000Y1040000D01*
X998000D01*
X942488Y1045000D02*
X990000D01*
X929000Y1040000D02*
Y1108000D01*
X941000Y911000D02*
X945570Y906430D01*
X953170D01*
X941000Y911000D02*
Y1018512D01*
X953170Y906430D02*
X955600Y904000D01*
X914488Y1020000D02*
X939512D01*
X941000Y1018512D01*
X854000Y904000D02*
Y904060D01*
X861000Y911060D01*
Y1128512D01*
X890000Y1015488D02*
Y1125000D01*
X898000Y1111000D02*
X901000Y1108000D01*
X919000D01*
X878000Y904000D02*
X879400Y905400D01*
X890000Y1015488D02*
X891488Y1014000D01*
X928400D01*
X930200Y1012200D01*
Y904000D02*
Y1012200D01*
X909000Y1100000D02*
X910000Y1099000D01*
Y1024488D02*
X914488Y1020000D01*
X910000Y1024488D02*
Y1099000D01*
X915000Y1122000D02*
X929000Y1108000D01*
X1055000Y1043000D02*
X1073000Y1025000D01*
X1081000D01*
X1002270Y640270D02*
Y699730D01*
X1002000Y700000D02*
X1002270Y699730D01*
X1090000Y760000D02*
Y775000D01*
X1086000Y779000D02*
X1090000Y775000D01*
X1049000Y779000D02*
X1086000D01*
X818500Y1240500D02*
X896500D01*
X818000Y1240000D02*
X818500Y1240500D01*
X896500D02*
X897000Y1241000D01*
X751000Y1310000D02*
X764100D01*
X748000Y1307000D02*
X751000Y1310000D01*
X748000Y1103000D02*
Y1307000D01*
Y1103000D02*
X758730Y1092270D01*
X742000Y1329000D02*
X748400Y1335400D01*
X742000Y1101000D02*
Y1329000D01*
Y1101000D02*
X755000Y1088000D01*
Y541000D02*
Y1088000D01*
Y541000D02*
X761000Y535000D01*
X965000D01*
X970020Y529980D01*
Y507980D02*
Y529980D01*
X748400Y1335400D02*
X764100D01*
X970020Y507980D02*
X973000Y505000D01*
X907730Y639730D02*
X908000Y640000D01*
X910000D01*
X907730Y568270D02*
Y639730D01*
X908000Y568000D02*
X910000D01*
X907730Y568270D02*
X908000Y568000D01*
X1000000Y567000D02*
X1001000Y566000D01*
X1002270Y566270D02*
Y639730D01*
X1002000Y566000D02*
X1002270Y566270D01*
X1001000Y566000D02*
X1002000D01*
Y640000D02*
X1002270Y639730D01*
X1002000Y640000D02*
X1002270Y640270D01*
X1000000Y640000D02*
X1002000D01*
D50*
X905000Y1391000D02*
X911000Y1385000D01*
X905000Y1391000D02*
Y1405123D01*
X896800Y1413323D02*
X905000Y1405123D01*
X896800Y1413323D02*
Y1416000D01*
D52*
X1023800D02*
D03*
X998400D02*
D03*
X973000D02*
D03*
X947600D02*
D03*
X922200D02*
D03*
X896800D02*
D03*
X871400D02*
D03*
X846000D02*
D03*
X904800Y904000D02*
D03*
X955600D02*
D03*
X930200D02*
D03*
X879400D02*
D03*
X854000D02*
D03*
X828600D02*
D03*
D54*
X1055000Y1025000D02*
D03*
Y1043000D02*
D03*
X1115000Y1044000D02*
D03*
Y996000D02*
D03*
X770000Y1056000D02*
D03*
Y1074000D02*
D03*
X745000Y1056000D02*
D03*
Y1074000D02*
D03*
X1055000Y981000D02*
D03*
Y999000D02*
D03*
D55*
X1017000Y1385000D02*
D03*
X1090000Y1355000D02*
D03*
X1074600Y908000D02*
D03*
X795200D02*
D03*
X1074600Y1416000D02*
D03*
X795200D02*
D03*
D56*
X1120000Y1385000D02*
D03*
D57*
X1040000Y1355000D02*
D03*
D58*
X765000Y1109600D02*
D03*
Y1160400D02*
D03*
Y1135000D02*
D03*
X980000Y1284600D02*
D03*
Y1386200D02*
D03*
Y1360800D02*
D03*
Y1335400D02*
D03*
Y1310000D02*
D03*
X764100Y1360800D02*
D03*
Y1335400D02*
D03*
Y1310000D02*
D03*
Y1284600D02*
D03*
Y1259200D02*
D03*
D59*
X765000Y1185800D02*
D03*
X764100Y1386200D02*
D03*
D60*
X765000Y1035000D02*
D03*
X745000D02*
D03*
D61*
X980000Y504800D02*
D03*
Y454000D02*
D03*
D64*
X874000Y1141000D02*
D03*
X869000Y1015000D02*
D03*
X841000Y1024000D02*
D03*
X829000Y1029000D02*
D03*
X818000Y1034000D02*
D03*
X807000Y1039000D02*
D03*
X796000Y1044000D02*
D03*
X873000Y1127000D02*
D03*
X875000Y876000D02*
D03*
X944000Y1122000D02*
D03*
X933000Y1123000D02*
D03*
X925000Y1122000D02*
D03*
X911000Y1385000D02*
D03*
X785000Y1215000D02*
D03*
X1124000Y1152000D02*
D03*
X798000Y761000D02*
D03*
X782000D02*
D03*
X819000Y782000D02*
D03*
X906000Y700000D02*
D03*
X824000D02*
D03*
X873000Y1118000D02*
D03*
X1009000Y1025000D02*
D03*
X900435Y1178435D02*
D03*
X956000Y1027000D02*
D03*
X847000Y1080000D02*
D03*
X818000Y841000D02*
D03*
X820000Y618000D02*
D03*
X782000Y829000D02*
D03*
X948000Y1015000D02*
D03*
Y984000D02*
D03*
X942000Y875000D02*
D03*
X936040Y786174D02*
D03*
X869000Y987000D02*
D03*
X866000Y866000D02*
D03*
X841000D02*
D03*
X820000Y546000D02*
D03*
X841000Y987000D02*
D03*
X829000D02*
D03*
X817000D02*
D03*
X807000D02*
D03*
X796000D02*
D03*
X956000Y1080000D02*
D03*
X995000Y726000D02*
D03*
X975000Y1027000D02*
D03*
X990000Y1045000D02*
D03*
Y1006000D02*
D03*
X910000Y1100000D02*
D03*
X919000Y1108000D02*
D03*
X915000Y1122000D02*
D03*
X1052000Y1156000D02*
D03*
X1081000Y1005000D02*
D03*
Y1025000D02*
D03*
X1002000Y700000D02*
D03*
X1090000Y761000D02*
D03*
X818000Y1240000D02*
D03*
X765000Y1235000D02*
D03*
X1013000Y523000D02*
D03*
X859000Y1335000D02*
D03*
X897000Y1241000D02*
D03*
X851000Y1310000D02*
D03*
X896000Y1347000D02*
D03*
X798000Y829000D02*
D03*
X908000Y640000D02*
D03*
Y568000D02*
D03*
X1002000Y566000D02*
D03*
Y640000D02*
D03*
D65*
X930000Y1245000D02*
D03*
Y1195000D02*
D03*
Y1170000D02*
D03*
Y1220000D02*
D03*
D66*
X880000Y1205000D02*
D03*
X855000D02*
D03*
X805000D02*
D03*
X830000D02*
D03*
D67*
X890259Y1147270D02*
X958381D01*
X971650Y1134000D01*
X855500Y1182029D02*
X890259Y1147270D01*
X971650Y1134000D02*
X1031304D01*
X1017118Y1165047D02*
X1034059Y1148106D01*
X1017118Y1165047D02*
Y1179444D01*
X930000Y1195000D02*
X1001561D01*
X1031304Y1134000D02*
Y1145000D01*
X1034059Y1142246D02*
Y1148106D01*
X1001561Y1195000D02*
X1017118Y1179444D01*
X855500Y1182029D02*
Y1204500D01*
X1050000Y1110000D02*
Y1126304D01*
X1031304Y1145000D02*
X1050000Y1126304D01*
X855000Y1205000D02*
X855500Y1204500D01*
D68*
X1119000Y1276000D02*
Y1384000D01*
X1088000Y1245000D02*
X1119000Y1276000D01*
X930000Y1245000D02*
X1088000D01*
D69*
X980600Y1385600D02*
X1012600D01*
X980000Y1386200D02*
X980600Y1385600D01*
X1012600D02*
X1014000Y1387000D01*
D70*
X944000Y479000D02*
D03*
D71*
X1027500Y1369500D02*
D03*
D72*
X1050000Y480000D02*
D03*
X825000Y480000D02*
D03*
Y1110000D02*
D03*
X1050000Y1110000D02*
D03*
D73*
X930000Y1280000D02*
D03*
Y1370000D02*
D03*
M02*
