M48
;Layer_Color=9474304
;FILE_FORMAT=4:4
METRIC,LZ
;TYPE=PLATED
T1F00S00C0.3810
T2F00S00C0.5000
T3F00S00C0.6000
T4F00S00C0.7620
T5F00S00C0.9000
T6F00S00C1.1000
T7F00S00C1.5000
%
T01
X0082Y00546
Y00618
X00824Y007
X00906
X00908Y0064
Y00568
X01002Y00566
X01013Y00523
X01002Y0064
Y007
X00995Y00726
X0093604Y00786174
X00819Y00782
X00798Y00761
X0109
X00782
Y00829
X00798
X00818Y00841
X00841Y00866
X00866
X00875Y00876
X00942Y00875
X00948Y00984
Y01015
X00956Y01027
X00975
X0099Y01045
X01009Y01025
X0099Y01006
X01081Y01005
Y01025
X01052Y01156
X01124Y01152
X00944Y01122
X00933Y01123
X00925Y01122
X00915
X00919Y01108
X0091Y011
X00873Y01118
Y01127
X00874Y01141
X00900435Y01178435
X00847Y0108
X00841Y01024
X00829Y01029
X00818Y01034
X00807Y01039
X00796Y01044
Y00987
X00807
X00817
X00829
X00841
X00869
Y01015
X00956Y0108
X00897Y01241
X00818Y0124
X00851Y0131
X00859Y01335
X00896Y01347
X00911Y01385
X00785Y01215
X00765Y01235
T02
X00745Y01035
X00765
X0077Y01056
Y01074
X00745
Y01056
X01055Y01043
Y01025
Y00999
Y00981
T03
X01115Y00996
Y01044
T04
X0098Y00454
Y005048
X009556Y00904
X009302
X009048
X008794
X00854
X008286
X00846Y01416
X008714
X008968
X009222
X009476
X00973
X009984
X010238
T05
X00765Y011096
Y01135
Y011604
Y011858
X0098Y012846
Y0131
Y013354
Y013608
Y013862
X007641
Y013608
Y013354
Y0131
Y012846
Y012592
T06
X0104Y01355
X0109
X0112Y01385
X01017
T07
X007952Y00908
X010746
Y01416
X007952
M30
