G04*
G04 #@! TF.GenerationSoftware,Altium Limited,Altium Designer,22.11.1 (43)*
G04*
G04 Layer_Color=8388736*
%FSLAX44Y44*%
%MOMM*%
G71*
G04*
G04 #@! TF.SameCoordinates,BDB78580-9DC3-4381-8F3F-6093B5378177*
G04*
G04*
G04 #@! TF.FilePolarity,Negative*
G04*
G01*
G75*
%ADD25R,1.4732X1.0922*%
%ADD26R,1.7032X2.2032*%
%ADD27O,0.5032X2.3032*%
%ADD28O,2.3032X0.5032*%
%ADD29R,1.0922X1.4732*%
%ADD30R,3.5032X3.7032*%
%ADD31R,1.6032X0.8032*%
G04:AMPARAMS|DCode=32|XSize=1.4732mm|YSize=1.0922mm|CornerRadius=0mm|HoleSize=0mm|Usage=FLASHONLY|Rotation=55.000|XOffset=0mm|YOffset=0mm|HoleType=Round|Shape=Rectangle|*
%AMROTATEDRECTD32*
4,1,4,0.0248,-0.9166,-0.8698,-0.2902,-0.0248,0.9166,0.8698,0.2902,0.0248,-0.9166,0.0*
%
%ADD32ROTATEDRECTD32*%

%ADD33C,1.7272*%
G04:AMPARAMS|DCode=34|XSize=6.2032mm|YSize=0.2032mm|CornerRadius=0mm|HoleSize=0mm|Usage=FLASHONLY|Rotation=0.000|XOffset=0mm|YOffset=0mm|HoleType=Round|Shape=RoundedRectangle|*
%AMROUNDEDRECTD34*
21,1,6.2032,0.2032,0,0,0.0*
21,1,6.2032,0.2032,0,0,0.0*
1,1,0.0000,3.1016,-0.1016*
1,1,0.0000,-3.1016,-0.1016*
1,1,0.0000,-3.1016,0.1016*
1,1,0.0000,3.1016,0.1016*
%
%ADD34ROUNDEDRECTD34*%
%ADD35C,0.2032*%
G04:AMPARAMS|DCode=36|XSize=1.2032mm|YSize=1.7032mm|CornerRadius=0.3516mm|HoleSize=0mm|Usage=FLASHONLY|Rotation=90.000|XOffset=0mm|YOffset=0mm|HoleType=Round|Shape=RoundedRectangle|*
%AMROUNDEDRECTD36*
21,1,1.2032,1.0000,0,0,90.0*
21,1,0.5000,1.7032,0,0,90.0*
1,1,0.7032,0.5000,0.2500*
1,1,0.7032,0.5000,-0.2500*
1,1,0.7032,-0.5000,-0.2500*
1,1,0.7032,-0.5000,0.2500*
%
%ADD36ROUNDEDRECTD36*%
%ADD37C,1.5032*%
%ADD38C,2.2032*%
%ADD39R,2.2032X2.2032*%
%ADD40R,2.2032X2.2032*%
%ADD41C,1.7032*%
%ADD42R,1.7032X1.7032*%
%ADD43C,1.2032*%
G04:AMPARAMS|DCode=44|XSize=1.7272mm|YSize=0.2032mm|CornerRadius=0mm|HoleSize=0mm|Usage=FLASHONLY|Rotation=180.000|XOffset=0mm|YOffset=0mm|HoleType=Round|Shape=RoundedRectangle|*
%AMROUNDEDRECTD44*
21,1,1.7272,0.2032,0,0,180.0*
21,1,1.7272,0.2032,0,0,180.0*
1,1,0.0000,-0.8636,0.1016*
1,1,0.0000,0.8636,0.1016*
1,1,0.0000,0.8636,-0.1016*
1,1,0.0000,-0.8636,-0.1016*
%
%ADD44ROUNDEDRECTD44*%
G04:AMPARAMS|DCode=45|XSize=1.7032mm|YSize=3.2032mm|CornerRadius=0.4766mm|HoleSize=0mm|Usage=FLASHONLY|Rotation=270.000|XOffset=0mm|YOffset=0mm|HoleType=Round|Shape=RoundedRectangle|*
%AMROUNDEDRECTD45*
21,1,1.7032,2.2500,0,0,270.0*
21,1,0.7500,3.2032,0,0,270.0*
1,1,0.9532,-1.1250,-0.3750*
1,1,0.9532,-1.1250,0.3750*
1,1,0.9532,1.1250,0.3750*
1,1,0.9532,1.1250,-0.3750*
%
%ADD45ROUNDEDRECTD45*%
G04:AMPARAMS|DCode=46|XSize=0.9032mm|YSize=1.7032mm|CornerRadius=0.2766mm|HoleSize=0mm|Usage=FLASHONLY|Rotation=0.000|XOffset=0mm|YOffset=0mm|HoleType=Round|Shape=RoundedRectangle|*
%AMROUNDEDRECTD46*
21,1,0.9032,1.1500,0,0,0.0*
21,1,0.3500,1.7032,0,0,0.0*
1,1,0.5532,0.1750,-0.5750*
1,1,0.5532,-0.1750,-0.5750*
1,1,0.5532,-0.1750,0.5750*
1,1,0.5532,0.1750,0.5750*
%
%ADD46ROUNDEDRECTD46*%
G04:AMPARAMS|DCode=47|XSize=0.2032mm|YSize=0.2032mm|CornerRadius=0mm|HoleSize=0mm|Usage=FLASHONLY|Rotation=0.000|XOffset=0mm|YOffset=0mm|HoleType=Round|Shape=RoundedRectangle|*
%AMROUNDEDRECTD47*
21,1,0.2032,0.2032,0,0,0.0*
21,1,0.2032,0.2032,0,0,0.0*
1,1,0.0000,0.1016,-0.1016*
1,1,0.0000,-0.1016,-0.1016*
1,1,0.0000,-0.1016,0.1016*
1,1,0.0000,0.1016,0.1016*
%
%ADD47ROUNDEDRECTD47*%
G04:AMPARAMS|DCode=48|XSize=0.9032mm|YSize=1.7032mm|CornerRadius=0.2766mm|HoleSize=0mm|Usage=FLASHONLY|Rotation=270.000|XOffset=0mm|YOffset=0mm|HoleType=Round|Shape=RoundedRectangle|*
%AMROUNDEDRECTD48*
21,1,0.9032,1.1500,0,0,270.0*
21,1,0.3500,1.7032,0,0,270.0*
1,1,0.5532,-0.5750,-0.1750*
1,1,0.5532,-0.5750,0.1750*
1,1,0.5532,0.5750,0.1750*
1,1,0.5532,0.5750,-0.1750*
%
%ADD48ROUNDEDRECTD48*%
%ADD49C,0.5842*%
D25*
X877998Y1161002D02*
D03*
X877998Y1142002D02*
D03*
X844999Y564501D02*
D03*
Y545501D02*
D03*
X1020000Y1160000D02*
D03*
Y1141000D02*
D03*
X1040001Y949499D02*
D03*
Y930499D02*
D03*
X754999Y680501D02*
D03*
Y699501D02*
D03*
X898999Y763501D02*
D03*
Y782501D02*
D03*
X1056999Y805501D02*
D03*
Y824501D02*
D03*
X902000Y824000D02*
D03*
Y805000D02*
D03*
X979999Y847501D02*
D03*
Y866501D02*
D03*
X823999Y805501D02*
D03*
Y824501D02*
D03*
X1115000Y771000D02*
D03*
Y790000D02*
D03*
X1114000Y837000D02*
D03*
Y856000D02*
D03*
X758000Y859000D02*
D03*
Y840000D02*
D03*
X845000Y699000D02*
D03*
X1030000D02*
D03*
X934999Y699501D02*
D03*
X1079999Y1024501D02*
D03*
Y1005501D02*
D03*
X1030000Y680000D02*
D03*
X934999Y680501D02*
D03*
X845000Y680000D02*
D03*
X1029999Y620501D02*
D03*
Y639501D02*
D03*
X935001Y639499D02*
D03*
Y620499D02*
D03*
X844999Y620501D02*
D03*
Y639501D02*
D03*
X754999Y620501D02*
D03*
Y639501D02*
D03*
X1030000Y545000D02*
D03*
Y564000D02*
D03*
X934999Y545501D02*
D03*
Y564501D02*
D03*
X754999Y545501D02*
D03*
Y564501D02*
D03*
D26*
X1005200Y904412D02*
D03*
X1005000Y983740D02*
D03*
D27*
X930000Y1144540D02*
D03*
X920000Y1060000D02*
D03*
X915000D02*
D03*
X955000D02*
D03*
X910000Y1144540D02*
D03*
X960000Y1060000D02*
D03*
X950000D02*
D03*
X945000D02*
D03*
X940000D02*
D03*
X935000D02*
D03*
X930000D02*
D03*
X925000D02*
D03*
X910000D02*
D03*
X905000D02*
D03*
Y1144540D02*
D03*
X915000D02*
D03*
X920000D02*
D03*
X925000D02*
D03*
X935000D02*
D03*
X940000D02*
D03*
X945000D02*
D03*
X950000D02*
D03*
X955000D02*
D03*
X960000D02*
D03*
D28*
X890484Y1079770D02*
D03*
X974770Y1109770D02*
D03*
X890484Y1074770D02*
D03*
Y1084770D02*
D03*
Y1089770D02*
D03*
Y1094770D02*
D03*
Y1099770D02*
D03*
Y1104770D02*
D03*
Y1109770D02*
D03*
Y1114770D02*
D03*
Y1119770D02*
D03*
Y1124770D02*
D03*
Y1129770D02*
D03*
X974770D02*
D03*
Y1124770D02*
D03*
Y1119770D02*
D03*
Y1114770D02*
D03*
Y1104770D02*
D03*
Y1099770D02*
D03*
Y1094770D02*
D03*
Y1089770D02*
D03*
Y1084770D02*
D03*
Y1079770D02*
D03*
Y1074770D02*
D03*
D29*
X745000Y1235000D02*
D03*
Y1217220D02*
D03*
X784501Y1235001D02*
D03*
X765501D02*
D03*
X1009501Y1025001D02*
D03*
X990501D02*
D03*
X956000Y1027000D02*
D03*
X975000D02*
D03*
X1105000Y1152000D02*
D03*
X1124000D02*
D03*
X1124492Y1130035D02*
D03*
X1105492D02*
D03*
X1105000Y1170000D02*
D03*
X1124000D02*
D03*
X1105494Y1110001D02*
D03*
X1124494D02*
D03*
X1124492Y1089999D02*
D03*
X1105492D02*
D03*
X990499Y1044999D02*
D03*
X1009499D02*
D03*
X785000Y1215000D02*
D03*
X766000D02*
D03*
X990501Y1005001D02*
D03*
X1009501D02*
D03*
X780501Y741001D02*
D03*
X799501D02*
D03*
D30*
X755000Y915000D02*
D03*
D31*
X1125139Y1200499D02*
D03*
X1100000Y1191000D02*
D03*
Y1210000D02*
D03*
D32*
X877000Y1063000D02*
D03*
X861436Y1073898D02*
D03*
D33*
X1023800Y1416000D02*
D03*
X998400D02*
D03*
X973000D02*
D03*
X947600D02*
D03*
X922200D02*
D03*
X896800D02*
D03*
X871400D02*
D03*
X846000D02*
D03*
X904800Y904000D02*
D03*
X955600D02*
D03*
X930200D02*
D03*
X879400D02*
D03*
X854000D02*
D03*
X828600D02*
D03*
D34*
X1050000Y480000D02*
D03*
X825000Y480000D02*
D03*
D35*
Y1110000D02*
D03*
D36*
X1100000Y545000D02*
D03*
Y567000D02*
D03*
X1060000Y545000D02*
D03*
Y567000D02*
D03*
X820000Y546000D02*
D03*
Y568000D02*
D03*
X780000Y546000D02*
D03*
Y568000D02*
D03*
X870000Y700000D02*
D03*
X1060000D02*
D03*
X960000D02*
D03*
X780000D02*
D03*
X1060000Y678000D02*
D03*
X1100000Y700000D02*
D03*
Y678000D02*
D03*
X960000D02*
D03*
X1000000Y700000D02*
D03*
Y678000D02*
D03*
X870000D02*
D03*
X910000Y700000D02*
D03*
Y678000D02*
D03*
X780000D02*
D03*
X820000Y700000D02*
D03*
Y678000D02*
D03*
X1060000Y640000D02*
D03*
Y618000D02*
D03*
X1100000Y640000D02*
D03*
Y618000D02*
D03*
X960000Y640000D02*
D03*
Y618000D02*
D03*
X1000000Y640000D02*
D03*
Y618000D02*
D03*
X870000Y640000D02*
D03*
Y618000D02*
D03*
X910000Y640000D02*
D03*
Y618000D02*
D03*
X780000Y640000D02*
D03*
Y618000D02*
D03*
X820000Y640000D02*
D03*
Y618000D02*
D03*
X960000Y567000D02*
D03*
Y545000D02*
D03*
X1000000Y567000D02*
D03*
Y545000D02*
D03*
X870000Y568000D02*
D03*
Y546000D02*
D03*
X910000Y568000D02*
D03*
Y546000D02*
D03*
D37*
X1055000Y1025000D02*
D03*
Y1043000D02*
D03*
X1115000Y1044000D02*
D03*
Y996000D02*
D03*
X770000Y1056000D02*
D03*
Y1074000D02*
D03*
X745000Y1056000D02*
D03*
Y1074000D02*
D03*
X1055000Y981000D02*
D03*
Y999000D02*
D03*
D38*
X1017000Y1385000D02*
D03*
X1090000Y1355000D02*
D03*
D39*
X1120000Y1385000D02*
D03*
D40*
X1040000Y1355000D02*
D03*
D41*
X765000Y1109600D02*
D03*
Y1160400D02*
D03*
Y1135000D02*
D03*
X980000Y1284600D02*
D03*
Y1386200D02*
D03*
Y1360800D02*
D03*
Y1335400D02*
D03*
Y1310000D02*
D03*
X764100Y1360800D02*
D03*
Y1335400D02*
D03*
Y1310000D02*
D03*
Y1284600D02*
D03*
Y1259200D02*
D03*
D42*
X765000Y1185800D02*
D03*
X764100Y1386200D02*
D03*
D43*
X765000Y1035000D02*
D03*
X745000D02*
D03*
D44*
X930000Y1280000D02*
D03*
Y1370000D02*
D03*
D45*
X980000Y504800D02*
D03*
Y454000D02*
D03*
D46*
X798000Y761000D02*
D03*
X782000D02*
D03*
Y801000D02*
D03*
X798000D02*
D03*
X782000Y870000D02*
D03*
X798000D02*
D03*
X782000Y830000D02*
D03*
X798000D02*
D03*
X1074000Y800000D02*
D03*
X1090000D02*
D03*
X1074000Y760000D02*
D03*
X1090000D02*
D03*
X1074000Y866000D02*
D03*
X1090000D02*
D03*
X1074000Y826000D02*
D03*
X1090000D02*
D03*
D47*
X1050000Y1110000D02*
D03*
D48*
X959000Y865000D02*
D03*
Y849000D02*
D03*
X919000Y865000D02*
D03*
Y849000D02*
D03*
X960000Y780000D02*
D03*
Y764000D02*
D03*
X920000Y780000D02*
D03*
Y764000D02*
D03*
X883000Y823000D02*
D03*
Y807000D02*
D03*
X843000Y823000D02*
D03*
Y807000D02*
D03*
X1037000Y824000D02*
D03*
Y808000D02*
D03*
X997000Y824000D02*
D03*
Y808000D02*
D03*
X920000D02*
D03*
Y824000D02*
D03*
X960000Y808000D02*
D03*
Y824000D02*
D03*
D49*
X874000Y1141000D02*
D03*
X869000Y1015000D02*
D03*
X841000Y1024000D02*
D03*
X829000Y1029000D02*
D03*
X818000Y1034000D02*
D03*
X807000Y1039000D02*
D03*
X796000Y1044000D02*
D03*
X873000Y1127000D02*
D03*
X875000Y876000D02*
D03*
X944000Y1122000D02*
D03*
X933000Y1123000D02*
D03*
X925000Y1122000D02*
D03*
X911000Y1385000D02*
D03*
X785000Y1215000D02*
D03*
X1124000Y1152000D02*
D03*
X798000Y761000D02*
D03*
X782000D02*
D03*
X819000Y782000D02*
D03*
X906000Y700000D02*
D03*
X824000D02*
D03*
X873000Y1118000D02*
D03*
X1009000Y1025000D02*
D03*
X900435Y1178435D02*
D03*
X956000Y1027000D02*
D03*
X847000Y1080000D02*
D03*
X818000Y841000D02*
D03*
X820000Y618000D02*
D03*
X782000Y829000D02*
D03*
X948000Y1015000D02*
D03*
Y984000D02*
D03*
X942000Y875000D02*
D03*
X936040Y786174D02*
D03*
X869000Y987000D02*
D03*
X866000Y866000D02*
D03*
X841000D02*
D03*
X820000Y546000D02*
D03*
X841000Y987000D02*
D03*
X829000D02*
D03*
X817000D02*
D03*
X807000D02*
D03*
X796000D02*
D03*
X956000Y1080000D02*
D03*
X995000Y726000D02*
D03*
X975000Y1027000D02*
D03*
X990000Y1045000D02*
D03*
Y1006000D02*
D03*
X910000Y1100000D02*
D03*
X919000Y1108000D02*
D03*
X915000Y1122000D02*
D03*
X1052000Y1156000D02*
D03*
X1081000Y1005000D02*
D03*
Y1025000D02*
D03*
X1002000Y700000D02*
D03*
X1090000Y761000D02*
D03*
X818000Y1240000D02*
D03*
X765000Y1235000D02*
D03*
X1013000Y523000D02*
D03*
X859000Y1335000D02*
D03*
X897000Y1241000D02*
D03*
X851000Y1310000D02*
D03*
X896000Y1347000D02*
D03*
X798000Y829000D02*
D03*
X908000Y640000D02*
D03*
Y568000D02*
D03*
X1002000Y566000D02*
D03*
Y640000D02*
D03*
M02*
