G04*
G04 #@! TF.GenerationSoftware,Altium Limited,Altium Designer,22.11.1 (43)*
G04*
G04 Layer_Color=128*
%FSLAX44Y44*%
%MOMM*%
G71*
G04*
G04 #@! TF.SameCoordinates,BDB78580-9DC3-4381-8F3F-6093B5378177*
G04*
G04*
G04 #@! TF.FilePolarity,Positive*
G04*
G01*
G75*
%ADD84C,0.1270*%
D84*
X1019990Y1416000D02*
X1027610D01*
X1023800Y1412190D02*
Y1419810D01*
X994590Y1416000D02*
X1002210D01*
X998400Y1412190D02*
Y1419810D01*
X969190Y1416000D02*
X976810D01*
X973000Y1412190D02*
Y1419810D01*
X943790Y1416000D02*
X951410D01*
X947600Y1412190D02*
Y1419810D01*
X918390Y1416000D02*
X926010D01*
X922200Y1412190D02*
Y1419810D01*
X892990Y1416000D02*
X900610D01*
X896800Y1412190D02*
Y1419810D01*
X867590Y1416000D02*
X875210D01*
X871400Y1412190D02*
Y1419810D01*
X842190Y1416000D02*
X849810D01*
X846000Y1412190D02*
Y1419810D01*
X1052500Y1025000D02*
X1057500D01*
X1055000Y1022500D02*
Y1027500D01*
X1052500Y1043000D02*
X1057500D01*
X1055000Y1040500D02*
Y1045500D01*
X1011500Y1385000D02*
X1022500D01*
X1017000Y1379500D02*
Y1390500D01*
X1114500Y1385000D02*
X1125500D01*
X1120000Y1379500D02*
Y1390500D01*
X1034500Y1355000D02*
X1045500D01*
X1040000Y1349500D02*
Y1360500D01*
X1084500Y1355000D02*
X1095500D01*
X1090000Y1349500D02*
Y1360500D01*
X900990Y904000D02*
X908610D01*
X904800Y900190D02*
Y907810D01*
X951790Y904000D02*
X959410D01*
X955600Y900190D02*
Y907810D01*
X926390Y904000D02*
X934010D01*
X930200Y900190D02*
Y907810D01*
X875590Y904000D02*
X883210D01*
X879400Y900190D02*
Y907810D01*
X850190Y904000D02*
X857810D01*
X854000Y900190D02*
Y907810D01*
X824790Y904000D02*
X832410D01*
X828600Y900190D02*
Y907810D01*
X760500Y1109600D02*
X769500D01*
X765000Y1105100D02*
Y1114100D01*
X760500Y1185800D02*
X769500D01*
X765000Y1181300D02*
Y1190300D01*
X760500Y1160400D02*
X769500D01*
X765000Y1155900D02*
Y1164900D01*
X760500Y1135000D02*
X769500D01*
X765000Y1130500D02*
Y1139500D01*
X975500Y1284600D02*
X984500D01*
X980000Y1280100D02*
Y1289100D01*
X975500Y1386200D02*
X984500D01*
X980000Y1381700D02*
Y1390700D01*
X975500Y1360800D02*
X984500D01*
X980000Y1356300D02*
Y1365300D01*
X975500Y1335400D02*
X984500D01*
X980000Y1330900D02*
Y1339900D01*
X975500Y1310000D02*
X984500D01*
X980000Y1305500D02*
Y1314500D01*
X759600Y1386200D02*
X768600D01*
X764100Y1381700D02*
Y1390700D01*
X759600Y1360800D02*
X768600D01*
X764100Y1356300D02*
Y1365300D01*
X759600Y1335400D02*
X768600D01*
X764100Y1330900D02*
Y1339900D01*
X759600Y1310000D02*
X768600D01*
X764100Y1305500D02*
Y1314500D01*
X759600Y1284600D02*
X768600D01*
X764100Y1280100D02*
Y1289100D01*
X759600Y1259200D02*
X768600D01*
X764100Y1254700D02*
Y1263700D01*
X762500Y1035000D02*
X767500D01*
X765000Y1032500D02*
Y1037500D01*
X742500Y1035000D02*
X747500D01*
X745000Y1032500D02*
Y1037500D01*
X1112000Y1044000D02*
X1118000D01*
X1115000Y1041000D02*
Y1047000D01*
X1112000Y996000D02*
X1118000D01*
X1115000Y993000D02*
Y999000D01*
X976190Y504800D02*
X983810D01*
X980000Y500990D02*
Y508610D01*
X976190Y454000D02*
X983810D01*
X980000Y450190D02*
Y457810D01*
X767500Y1056000D02*
X772500D01*
X770000Y1053500D02*
Y1058500D01*
X767500Y1074000D02*
X772500D01*
X770000Y1071500D02*
Y1076500D01*
X742500Y1056000D02*
X747500D01*
X745000Y1053500D02*
Y1058500D01*
X742500Y1074000D02*
X747500D01*
X745000Y1071500D02*
Y1076500D01*
X1052500Y981000D02*
X1057500D01*
X1055000Y978500D02*
Y983500D01*
X1052500Y999000D02*
X1057500D01*
X1055000Y996500D02*
Y1001500D01*
X872095Y1141000D02*
X875905D01*
X874000Y1139095D02*
Y1142905D01*
X867095Y1015000D02*
X870905D01*
X869000Y1013095D02*
Y1016905D01*
X839095Y1024000D02*
X842905D01*
X841000Y1022095D02*
Y1025905D01*
X827095Y1029000D02*
X830905D01*
X829000Y1027095D02*
Y1030905D01*
X816095Y1034000D02*
X819905D01*
X818000Y1032095D02*
Y1035905D01*
X805095Y1039000D02*
X808905D01*
X807000Y1037095D02*
Y1040905D01*
X794095Y1044000D02*
X797905D01*
X796000Y1042095D02*
Y1045905D01*
X871095Y1127000D02*
X874905D01*
X873000Y1125095D02*
Y1128905D01*
X873095Y876000D02*
X876905D01*
X875000Y874095D02*
Y877905D01*
X942095Y1122000D02*
X945905D01*
X944000Y1120095D02*
Y1123905D01*
X931095Y1123000D02*
X934905D01*
X933000Y1121095D02*
Y1124905D01*
X923095Y1122000D02*
X926905D01*
X925000Y1120095D02*
Y1123905D01*
X909095Y1385000D02*
X912905D01*
X911000Y1383095D02*
Y1386905D01*
X783095Y1215000D02*
X786905D01*
X785000Y1213095D02*
Y1216905D01*
X1122095Y1152000D02*
X1125905D01*
X1124000Y1150095D02*
Y1153905D01*
X796095Y761000D02*
X799905D01*
X798000Y759095D02*
Y762905D01*
X780095Y761000D02*
X783905D01*
X782000Y759095D02*
Y762905D01*
X817095Y782000D02*
X820905D01*
X819000Y780095D02*
Y783905D01*
X904095Y700000D02*
X907905D01*
X906000Y698095D02*
Y701905D01*
X822095Y700000D02*
X825905D01*
X824000Y698095D02*
Y701905D01*
X871095Y1118000D02*
X874905D01*
X873000Y1116095D02*
Y1119905D01*
X1007095Y1025000D02*
X1010905D01*
X1009000Y1023095D02*
Y1026905D01*
X898530Y1178435D02*
X902340D01*
X900435Y1176530D02*
Y1180340D01*
X954095Y1027000D02*
X957905D01*
X956000Y1025095D02*
Y1028905D01*
X1067100Y908000D02*
X1082100D01*
X1074600Y900500D02*
Y915500D01*
X787700Y908000D02*
X802700D01*
X795200Y900500D02*
Y915500D01*
X1067100Y1416000D02*
X1082100D01*
X1074600Y1408500D02*
Y1423500D01*
X787700Y1416000D02*
X802700D01*
X795200Y1408500D02*
Y1423500D01*
X845095Y1080000D02*
X848905D01*
X847000Y1078095D02*
Y1081905D01*
X816095Y841000D02*
X819905D01*
X818000Y839095D02*
Y842905D01*
X818095Y618000D02*
X821905D01*
X820000Y616095D02*
Y619905D01*
X780095Y829000D02*
X783905D01*
X782000Y827095D02*
Y830905D01*
X946095Y1015000D02*
X949905D01*
X948000Y1013095D02*
Y1016905D01*
X946095Y984000D02*
X949905D01*
X948000Y982095D02*
Y985905D01*
X940095Y875000D02*
X943905D01*
X942000Y873095D02*
Y876905D01*
X934135Y786174D02*
X937945D01*
X936040Y784269D02*
Y788079D01*
X867095Y987000D02*
X870905D01*
X869000Y985095D02*
Y988905D01*
X864095Y866000D02*
X867905D01*
X866000Y864095D02*
Y867905D01*
X839095Y866000D02*
X842905D01*
X841000Y864095D02*
Y867905D01*
X818095Y546000D02*
X821905D01*
X820000Y544095D02*
Y547905D01*
X839095Y987000D02*
X842905D01*
X841000Y985095D02*
Y988905D01*
X827095Y987000D02*
X830905D01*
X829000Y985095D02*
Y988905D01*
X815095Y987000D02*
X818905D01*
X817000Y985095D02*
Y988905D01*
X805095Y987000D02*
X808905D01*
X807000Y985095D02*
Y988905D01*
X794095Y987000D02*
X797905D01*
X796000Y985095D02*
Y988905D01*
X954095Y1080000D02*
X957905D01*
X956000Y1078095D02*
Y1081905D01*
X993095Y726000D02*
X996905D01*
X995000Y724095D02*
Y727905D01*
X973095Y1027000D02*
X976905D01*
X975000Y1025095D02*
Y1028905D01*
X988095Y1045000D02*
X991905D01*
X990000Y1043095D02*
Y1046905D01*
X988095Y1006000D02*
X991905D01*
X990000Y1004095D02*
Y1007905D01*
X908095Y1100000D02*
X911905D01*
X910000Y1098095D02*
Y1101905D01*
X917095Y1108000D02*
X920905D01*
X919000Y1106095D02*
Y1109905D01*
X913095Y1122000D02*
X916905D01*
X915000Y1120095D02*
Y1123905D01*
X1050095Y1156000D02*
X1053905D01*
X1052000Y1154095D02*
Y1157905D01*
X1079095Y1005000D02*
X1082905D01*
X1081000Y1003095D02*
Y1006905D01*
X1079095Y1025000D02*
X1082905D01*
X1081000Y1023095D02*
Y1026905D01*
X1000095Y700000D02*
X1003905D01*
X1002000Y698095D02*
Y701905D01*
X1088095Y761000D02*
X1091905D01*
X1090000Y759095D02*
Y762905D01*
X816095Y1240000D02*
X819905D01*
X818000Y1238095D02*
Y1241905D01*
X763095Y1235000D02*
X766905D01*
X765000Y1233095D02*
Y1236905D01*
X1011095Y523000D02*
X1014905D01*
X1013000Y521095D02*
Y524905D01*
X857095Y1335000D02*
X860905D01*
X859000Y1333095D02*
Y1336905D01*
X895095Y1241000D02*
X898905D01*
X897000Y1239095D02*
Y1242905D01*
X849095Y1310000D02*
X852905D01*
X851000Y1308095D02*
Y1311905D01*
X894095Y1347000D02*
X897905D01*
X896000Y1345095D02*
Y1348905D01*
X796095Y829000D02*
X799905D01*
X798000Y827095D02*
Y830905D01*
X906095Y640000D02*
X909905D01*
X908000Y638095D02*
Y641905D01*
X906095Y568000D02*
X909905D01*
X908000Y566095D02*
Y569905D01*
X1000095Y566000D02*
X1003905D01*
X1002000Y564095D02*
Y567905D01*
X1000095Y640000D02*
X1003905D01*
X1002000Y638095D02*
Y641905D01*
M02*
