G04*
G04 #@! TF.GenerationSoftware,Altium Limited,Altium Designer,22.11.1 (43)*
G04*
G04 Layer_Color=32896*
%FSLAX44Y44*%
%MOMM*%
G71*
G04*
G04 #@! TF.SameCoordinates,BDB78580-9DC3-4381-8F3F-6093B5378177*
G04*
G04*
G04 #@! TF.FilePolarity,Positive*
G04*
G01*
G75*
%ADD10C,0.2000*%
%ADD13C,0.2540*%
%ADD82C,0.3810*%
D10*
X1205000Y1335000D02*
G03*
X1205000Y1315000I0J-10000D01*
G01*
X1260000D02*
G03*
X1260000Y1335000I-0J10000D01*
G01*
X1070000D02*
G03*
X1070000Y1315000I0J-10000D01*
G01*
X1125000D02*
G03*
X1125000Y1335000I-0J10000D01*
G01*
X740000Y510000D02*
X910000D01*
X740000Y1085000D02*
X910000D01*
X740000Y510000D02*
Y1085000D01*
X910000Y510000D02*
Y1085000D01*
X1130000Y1150000D02*
Y1270000D01*
X930000Y1260000D02*
Y1270000D01*
X1130000D01*
X930000Y1150000D02*
X1130000D01*
X745000Y1231200D02*
X1000000D01*
X745000Y1461200D02*
X1000000D01*
X745000Y1231200D02*
Y1461200D01*
X1000000Y1231200D02*
Y1461200D01*
X1070000Y1315000D02*
X1125000D01*
X1070000Y1335000D02*
X1125000D01*
X1070000Y1315000D02*
Y1335000D01*
X1125000Y1315000D02*
Y1335000D01*
X1035000Y1280000D02*
Y1370000D01*
X1036000Y1280000D02*
X1290000D01*
X1036000Y1370000D02*
X1290000D01*
Y1280000D02*
Y1370000D01*
X1260000Y1315000D02*
Y1335000D01*
X1205000Y1315000D02*
Y1335000D01*
X1260000D01*
X1205000Y1315000D02*
X1260000D01*
X965000Y505000D02*
Y1080000D01*
X1135000Y505000D02*
Y1080000D01*
X965000Y505000D02*
X1135000D01*
X965000Y1080000D02*
X1135000D01*
X900000Y1205000D02*
Y1405000D01*
X780000Y1205000D02*
Y1405000D01*
Y1205000D02*
X790000D01*
X780000Y1405000D02*
X900000D01*
D13*
X1045640Y1369760D02*
Y1400240D01*
X1048180Y1369760D02*
Y1400240D01*
X1050720Y1369760D02*
Y1400240D01*
X1098980Y1385000D02*
X1106600D01*
X1030400D02*
X1038020D01*
X1098980Y1369760D02*
Y1400240D01*
X1038020Y1369760D02*
X1098980D01*
X1038020D02*
Y1400240D01*
X1098980D01*
X1053999Y1362999D02*
Y1357001D01*
X1050000D01*
X1048001D02*
X1046001D01*
X1047001D01*
Y1362999D01*
X1048001Y1361999D01*
X989598Y1451599D02*
X990598Y1452599D01*
X992597D01*
X993597Y1451599D01*
Y1450600D01*
X992597Y1449600D01*
X990598D01*
X989598Y1448600D01*
Y1447601D01*
X990598Y1446601D01*
X992597D01*
X993597Y1447601D01*
X987599Y1452599D02*
X985600D01*
X986599D01*
Y1446601D01*
X987599D01*
X985600D01*
X982600D02*
Y1452599D01*
X980601Y1450600D01*
X978602Y1452599D01*
Y1446601D01*
X976602D02*
X974603D01*
X975603D01*
Y1452599D01*
X976602Y1451599D01*
X902497Y1077999D02*
Y1072001D01*
X898499D01*
X896499D02*
X894500D01*
X895500D01*
Y1076000D01*
X896499D01*
X887502Y1072001D02*
X891501D01*
X887502Y1076000D01*
Y1076999D01*
X888502Y1077999D01*
X890501D01*
X891501Y1076999D01*
X1131498Y1072999D02*
Y1067001D01*
X1127499D01*
X1125500D02*
X1123501D01*
X1124500D01*
Y1071000D01*
X1125500D01*
X1120501Y1067001D02*
X1118502D01*
X1119502D01*
Y1072999D01*
X1120501Y1071999D01*
X1010000Y1322999D02*
X1013999D01*
Y1317001D01*
X1010000D01*
X1013999Y1320000D02*
X1011999D01*
X1008001Y1317001D02*
X1006001D01*
X1007001D01*
Y1322999D01*
X1008001Y1321999D01*
X1122999Y1233006D02*
X1117001D01*
Y1236004D01*
X1118001Y1237004D01*
X1121999D01*
X1122999Y1236004D01*
Y1233006D01*
X1121999Y1243002D02*
X1122999Y1242003D01*
Y1240003D01*
X1121999Y1239004D01*
X1118001D01*
X1117001Y1240003D01*
Y1242003D01*
X1118001Y1243002D01*
X1120000Y1245002D02*
Y1249000D01*
X1122999Y1251000D02*
X1117001D01*
Y1253999D01*
X1118001Y1254998D01*
X1121999D01*
X1122999Y1253999D01*
Y1251000D01*
X1121999Y1260996D02*
X1122999Y1259997D01*
Y1257997D01*
X1121999Y1256998D01*
X1118001D01*
X1117001Y1257997D01*
Y1259997D01*
X1118001Y1260996D01*
X1117001Y1266994D02*
Y1262996D01*
X1121000Y1266994D01*
X1121999D01*
X1122999Y1265995D01*
Y1263996D01*
X1121999Y1262996D01*
X815995Y1397999D02*
Y1392001D01*
X812996D01*
X811996Y1393001D01*
Y1396999D01*
X812996Y1397999D01*
X815995D01*
X805998Y1396999D02*
X806998Y1397999D01*
X808997D01*
X809997Y1396999D01*
Y1393001D01*
X808997Y1392001D01*
X806998D01*
X805998Y1393001D01*
X803999Y1395000D02*
X800000D01*
X798001Y1397999D02*
Y1392001D01*
X795002D01*
X794002Y1393001D01*
Y1396999D01*
X795002Y1397999D01*
X798001D01*
X788004Y1396999D02*
X789004Y1397999D01*
X791003D01*
X792003Y1396999D01*
Y1393001D01*
X791003Y1392001D01*
X789004D01*
X788004Y1393001D01*
X786004Y1392001D02*
X784005D01*
X785005D01*
Y1397999D01*
X786004Y1396999D01*
X1093498Y1392999D02*
Y1387001D01*
X1090499D01*
X1089500Y1388001D01*
Y1391999D01*
X1090499Y1392999D01*
X1093498D01*
X1083502Y1387001D02*
X1087500D01*
X1083502Y1391000D01*
Y1391999D01*
X1084501Y1392999D01*
X1086501D01*
X1087500Y1391999D01*
D82*
X1065000Y1164500D02*
X1128500Y1101000D01*
X1065000Y1189900D02*
X1128500Y1126400D01*
X1039600Y1329600D02*
Y1342300D01*
X1090400Y1329600D02*
Y1342300D01*
X1103100Y1329600D02*
X1128500Y1304200D01*
X1077700Y1329600D02*
X1128500Y1278800D01*
X1065000Y1316900D02*
X1128500Y1253400D01*
X1065000Y1291500D02*
X1128500Y1228000D01*
X1065000Y1266100D02*
X1128500Y1202600D01*
X1065000Y1240700D02*
X1128500Y1177200D01*
X1065000Y1215300D02*
X1128500Y1151800D01*
X1065000Y1137830D02*
X1118340Y1084490D01*
X1065000Y1112430D02*
X1092940Y1084490D01*
X1065000D02*
Y1329600D01*
X1001500Y1084490D02*
Y1329600D01*
Y1084490D02*
X1128500D01*
Y1329600D01*
X1001500D02*
X1128500D01*
M02*
