G04*
G04 #@! TF.GenerationSoftware,Altium Limited,Altium Designer,22.11.1 (43)*
G04*
G04 Layer_Color=32768*
%FSLAX44Y44*%
%MOMM*%
G71*
G04*
G04 #@! TF.SameCoordinates,BDB78580-9DC3-4381-8F3F-6093B5378177*
G04*
G04*
G04 #@! TF.FilePolarity,Positive*
G04*
G01*
G75*
%ADD83C,0.0500*%
D83*
X881499Y1151501D02*
G03*
X881499Y1151501I-3500J0D01*
G01*
D02*
G03*
X881499Y1151501I-3500J0D01*
G01*
X936000Y1102270D02*
G03*
X936000Y1102270I-3500J0D01*
G01*
X1058500Y1034000D02*
G03*
X1058500Y1034000I-3500J0D01*
G01*
X848500Y555000D02*
G03*
X848500Y555000I-3500J0D01*
G01*
D02*
G03*
X848500Y555000I-3500J0D01*
G01*
X1072000Y1385000D02*
G03*
X1072000Y1385000I-3500J0D01*
G01*
X1068500Y1355000D02*
G03*
X1068500Y1355000I-3500J0D01*
G01*
X778500Y1235000D02*
G03*
X778500Y1235000I-3500J0D01*
G01*
X1003500Y1025000D02*
G03*
X1003500Y1025000I-3500J0D01*
G01*
X969001Y1027001D02*
G03*
X969001Y1027001I-3500J0D01*
G01*
D02*
G03*
X969001Y1027001I-3500J0D01*
G01*
X1117999Y1151999D02*
G03*
X1117999Y1151999I-3500J0D01*
G01*
X1118493Y1130035D02*
G03*
X1118493Y1130035I-3500J0D01*
G01*
X1117999Y1169999D02*
G03*
X1117999Y1169999I-3500J0D01*
G01*
X1118493Y1110000D02*
G03*
X1118493Y1110000I-3500J0D01*
G01*
Y1090000D02*
G03*
X1118493Y1090000I-3500J0D01*
G01*
X1023499Y1150501D02*
G03*
X1023499Y1150501I-3500J0D01*
G01*
D02*
G03*
X1023499Y1150501I-3500J0D01*
G01*
X872719Y1068449D02*
G03*
X872719Y1068449I-3500J0D01*
G01*
D02*
G03*
X872719Y1068449I-3500J0D01*
G01*
X1003500Y1045000D02*
G03*
X1003500Y1045000I-3500J0D01*
G01*
X779001Y1215001D02*
G03*
X779001Y1215001I-3500J0D01*
G01*
X1003500Y1005000D02*
G03*
X1003500Y1005000I-3500J0D01*
G01*
X1043500Y940000D02*
G03*
X1043500Y940000I-3500J0D01*
G01*
D02*
G03*
X1043500Y940000I-3500J0D01*
G01*
X773500Y1065000D02*
G03*
X773500Y1065000I-3500J0D01*
G01*
X748500D02*
G03*
X748500Y1065000I-3500J0D01*
G01*
X1058500Y990000D02*
G03*
X1058500Y990000I-3500J0D01*
G01*
X758500Y690000D02*
G03*
X758500Y690000I-3500J0D01*
G01*
D02*
G03*
X758500Y690000I-3500J0D01*
G01*
X902500Y773000D02*
G03*
X902500Y773000I-3500J0D01*
G01*
D02*
G03*
X902500Y773000I-3500J0D01*
G01*
X793500Y741000D02*
G03*
X793500Y741000I-3500J0D01*
G01*
D02*
G03*
X793500Y741000I-3500J0D01*
G01*
X1060500Y815000D02*
G03*
X1060500Y815000I-3500J0D01*
G01*
D02*
G03*
X1060500Y815000I-3500J0D01*
G01*
X905499Y814501D02*
G03*
X905499Y814501I-3500J0D01*
G01*
D02*
G03*
X905499Y814501I-3500J0D01*
G01*
X983500Y857000D02*
G03*
X983500Y857000I-3500J0D01*
G01*
D02*
G03*
X983500Y857000I-3500J0D01*
G01*
X827500Y815000D02*
G03*
X827500Y815000I-3500J0D01*
G01*
D02*
G03*
X827500Y815000I-3500J0D01*
G01*
X1118499Y780501D02*
G03*
X1118499Y780501I-3500J0D01*
G01*
D02*
G03*
X1118499Y780501I-3500J0D01*
G01*
X1117499Y846501D02*
G03*
X1117499Y846501I-3500J0D01*
G01*
D02*
G03*
X1117499Y846501I-3500J0D01*
G01*
X761501Y849499D02*
G03*
X761501Y849499I-3500J0D01*
G01*
D02*
G03*
X761501Y849499I-3500J0D01*
G01*
X1083500Y1015000D02*
G03*
X1083500Y1015000I-3500J0D01*
G01*
X1033501Y689499D02*
G03*
X1033501Y689499I-3500J0D01*
G01*
D02*
G03*
X1033501Y689499I-3500J0D01*
G01*
X938500Y690000D02*
G03*
X938500Y690000I-3500J0D01*
G01*
D02*
G03*
X938500Y690000I-3500J0D01*
G01*
X848501Y689499D02*
G03*
X848501Y689499I-3500J0D01*
G01*
D02*
G03*
X848501Y689499I-3500J0D01*
G01*
X1033500Y630000D02*
G03*
X1033500Y630000I-3500J0D01*
G01*
D02*
G03*
X1033500Y630000I-3500J0D01*
G01*
X938500D02*
G03*
X938500Y630000I-3500J0D01*
G01*
D02*
G03*
X938500Y630000I-3500J0D01*
G01*
X848500D02*
G03*
X848500Y630000I-3500J0D01*
G01*
D02*
G03*
X848500Y630000I-3500J0D01*
G01*
X758500D02*
G03*
X758500Y630000I-3500J0D01*
G01*
D02*
G03*
X758500Y630000I-3500J0D01*
G01*
X1033501Y554499D02*
G03*
X1033501Y554499I-3500J0D01*
G01*
D02*
G03*
X1033501Y554499I-3500J0D01*
G01*
X938500Y555000D02*
G03*
X938500Y555000I-3500J0D01*
G01*
D02*
G03*
X938500Y555000I-3500J0D01*
G01*
X758500D02*
G03*
X758500Y555000I-3500J0D01*
G01*
D02*
G03*
X758500Y555000I-3500J0D01*
G01*
X872999Y1151501D02*
X882999D01*
X877999Y1146501D02*
Y1156501D01*
Y1146501D02*
Y1156501D01*
X872999Y1151501D02*
X882999D01*
X932500Y1097270D02*
Y1107270D01*
X927500Y1102270D02*
X937500D01*
X1050000Y1034000D02*
X1060000D01*
X1055000Y1029000D02*
Y1039000D01*
X840000Y555000D02*
X850000D01*
X845000Y550000D02*
Y560000D01*
Y550000D02*
Y560000D01*
X840000Y555000D02*
X850000D01*
X1063500Y1385000D02*
X1073500D01*
X1068500Y1380000D02*
Y1390000D01*
X1065000Y1350000D02*
Y1360000D01*
X1060000Y1355000D02*
X1070000D01*
X770000Y1235000D02*
X780000D01*
X775000Y1230000D02*
Y1240000D01*
X995000Y1025000D02*
X1005000D01*
X1000000Y1020000D02*
Y1030000D01*
X965501Y1022001D02*
Y1032001D01*
X960501Y1027001D02*
X970501D01*
X960501D02*
X970501D01*
X965501Y1022001D02*
Y1032001D01*
X1114499Y1146999D02*
Y1156999D01*
X1109499Y1151999D02*
X1119499D01*
X1114993Y1125035D02*
Y1135035D01*
X1109993Y1130035D02*
X1119993D01*
X1114499Y1164999D02*
Y1174999D01*
X1109499Y1169999D02*
X1119499D01*
X1114993Y1105000D02*
Y1115000D01*
X1109993Y1110000D02*
X1119993D01*
X1114993Y1085000D02*
Y1095000D01*
X1109993Y1090000D02*
X1119993D01*
X1014999Y1150501D02*
X1024999D01*
X1019999Y1145501D02*
Y1155501D01*
Y1145501D02*
Y1155501D01*
X1014999Y1150501D02*
X1024999D01*
X866351Y1064353D02*
X872087Y1072545D01*
X865123Y1071317D02*
X873315Y1065581D01*
X865123Y1071317D02*
X873315Y1065581D01*
X866351Y1064353D02*
X872087Y1072545D01*
X1000000Y1040000D02*
Y1050000D01*
X995000Y1045000D02*
X1005000D01*
X775501Y1210001D02*
Y1220001D01*
X770501Y1215001D02*
X780501D01*
X1000000Y1000000D02*
Y1010000D01*
X995000Y1005000D02*
X1005000D01*
X1035000Y940000D02*
X1045000D01*
X1040000Y935000D02*
Y945000D01*
Y935000D02*
Y945000D01*
X1035000Y940000D02*
X1045000D01*
X770000Y1060000D02*
Y1070000D01*
X765000Y1065000D02*
X775000D01*
X745000Y1060000D02*
Y1070000D01*
X740000Y1065000D02*
X750000D01*
X1055000Y985000D02*
Y995000D01*
X1050000Y990000D02*
X1060000D01*
X750000Y690000D02*
X760000D01*
X755000Y685000D02*
Y695000D01*
Y685000D02*
Y695000D01*
X750000Y690000D02*
X760000D01*
X894000Y773000D02*
X904000D01*
X899000Y768000D02*
Y778000D01*
Y768000D02*
Y778000D01*
X894000Y773000D02*
X904000D01*
X790000Y736000D02*
Y746000D01*
X785000Y741000D02*
X795000D01*
X785000D02*
X795000D01*
X790000Y736000D02*
Y746000D01*
X1052000Y815000D02*
X1062000D01*
X1057000Y810000D02*
Y820000D01*
Y810000D02*
Y820000D01*
X1052000Y815000D02*
X1062000D01*
X896999Y814501D02*
X906999D01*
X901999Y809501D02*
Y819501D01*
Y809501D02*
Y819501D01*
X896999Y814501D02*
X906999D01*
X975000Y857000D02*
X985000D01*
X980000Y852000D02*
Y862000D01*
Y852000D02*
Y862000D01*
X975000Y857000D02*
X985000D01*
X819000Y815000D02*
X829000D01*
X824000Y810000D02*
Y820000D01*
Y810000D02*
Y820000D01*
X819000Y815000D02*
X829000D01*
X1109999Y780501D02*
X1119999D01*
X1114999Y775501D02*
Y785501D01*
Y775501D02*
Y785501D01*
X1109999Y780501D02*
X1119999D01*
X1108999Y846501D02*
X1118999D01*
X1113999Y841501D02*
Y851501D01*
Y841501D02*
Y851501D01*
X1108999Y846501D02*
X1118999D01*
X753001Y849499D02*
X763001D01*
X758001Y844499D02*
Y854499D01*
Y844499D02*
Y854499D01*
X753001Y849499D02*
X763001D01*
X1080000Y1010000D02*
Y1020000D01*
X1075000Y1015000D02*
X1085000D01*
X1025001Y689499D02*
X1035001D01*
X1030001Y684499D02*
Y694499D01*
Y684499D02*
Y694499D01*
X1025001Y689499D02*
X1035001D01*
X930000Y690000D02*
X940000D01*
X935000Y685000D02*
Y695000D01*
Y685000D02*
Y695000D01*
X930000Y690000D02*
X940000D01*
X840001Y689499D02*
X850001D01*
X845001Y684499D02*
Y694499D01*
Y684499D02*
Y694499D01*
X840001Y689499D02*
X850001D01*
X1025000Y630000D02*
X1035000D01*
X1030000Y625000D02*
Y635000D01*
Y625000D02*
Y635000D01*
X1025000Y630000D02*
X1035000D01*
X930000D02*
X940000D01*
X935000Y625000D02*
Y635000D01*
Y625000D02*
Y635000D01*
X930000Y630000D02*
X940000D01*
X840000D02*
X850000D01*
X845000Y625000D02*
Y635000D01*
Y625000D02*
Y635000D01*
X840000Y630000D02*
X850000D01*
X750000D02*
X760000D01*
X755000Y625000D02*
Y635000D01*
Y625000D02*
Y635000D01*
X750000Y630000D02*
X760000D01*
X1025001Y554499D02*
X1035001D01*
X1030001Y549499D02*
Y559499D01*
Y549499D02*
Y559499D01*
X1025001Y554499D02*
X1035001D01*
X930000Y555000D02*
X940000D01*
X935000Y550000D02*
Y560000D01*
Y550000D02*
Y560000D01*
X930000Y555000D02*
X940000D01*
X750000D02*
X760000D01*
X755000Y550000D02*
Y560000D01*
Y550000D02*
Y560000D01*
X750000Y555000D02*
X760000D01*
M02*
